  0
SECTION
  2
HEADER
  9
$ACADVER
  1
AC1027
  9
$ACADMAINTVER
 70
   105
  9
$DWGCODEPAGE
  3
ANSI_1252
  9
$REQUIREDVERSIONS
160
                 0
  9
$LASTSAVEDBY
  1
postgres
  9
$INSBASE
 10
0.0
 20
0.0
 30
0.0
  9
$EXTMIN
 10
0.9299719485070597
 20
2.980779664951293
 30
0.0
  9
$EXTMAX
 10
14.74673418645471
 20
11.96098290121358
 30
0.0
  9
$LIMMIN
 10
0.0
 20
0.0
  9
$LIMMAX
 10
12.0
 20
9.0
  9
$ORTHOMODE
 70
     0
  9
$REGENMODE
 70
     1
  9
$FILLMODE
 70
     0
  9
$QTEXTMODE
 70
     0
  9
$MIRRTEXT
 70
     1
  9
$LTSCALE
 40
1.0
  9
$ATTMODE
 70
     1
  9
$TEXTSIZE
 40
0.2
  9
$TRACEWID
 40
0.05
  9
$TEXTSTYLE
  7
STANDARD
  9
$CLAYER
  8
0
  9
$CELTYPE
  6
ByBlock
  9
$CECOLOR
 62
   256
  9
$CELTSCALE
 40
1.0
  9
$DISPSILH
 70
     0
  9
$DIMSCALE
 40
1.0
  9
$DIMASZ
 40
0.18
  9
$DIMEXO
 40
0.0625
  9
$DIMDLI
 40
0.38
  9
$DIMRND
 40
0.0
  9
$DIMDLE
 40
0.0
  9
$DIMEXE
 40
0.18
  9
$DIMTP
 40
0.0
  9
$DIMTM
 40
0.0
  9
$DIMTXT
 40
0.18
  9
$DIMCEN
 40
0.09
  9
$DIMTSZ
 40
0.0
  9
$DIMTOL
 70
     0
  9
$DIMLIM
 70
     0
  9
$DIMTIH
 70
     1
  9
$DIMTOH
 70
     1
  9
$DIMSE1
 70
     0
  9
$DIMSE2
 70
     0
  9
$DIMTAD
 70
     0
  9
$DIMZIN
 70
     0
  9
$DIMBLK
  1

  9
$DIMASO
 70
     1
  9
$DIMSHO
 70
     1
  9
$DIMPOST
  1

  9
$DIMAPOST
  1

  9
$DIMALT
 70
     0
  9
$DIMALTD
 70
     2
  9
$DIMALTF
 40
25.4
  9
$DIMLFAC
 40
1.0
  9
$DIMTOFL
 70
     0
  9
$DIMTVP
 40
0.0
  9
$DIMTIX
 70
     0
  9
$DIMSOXD
 70
     0
  9
$DIMSAH
 70
     0
  9
$DIMBLK1
  1

  9
$DIMBLK2
  1

  9
$DIMSTYLE
  2
STANDARD
  9
$DIMCLRD
 70
     0
  9
$DIMCLRE
 70
     0
  9
$DIMCLRT
 70
     0
  9
$DIMTFAC
 40
1.0
  9
$DIMGAP
 40
0.09
  9
$DIMJUST
 70
     0
  9
$DIMSD1
 70
     0
  9
$DIMSD2
 70
     0
  9
$DIMTOLJ
 70
     1
  9
$DIMTZIN
 70
     0
  9
$DIMALTZ
 70
     0
  9
$DIMALTTZ
 70
     0
  9
$DIMUPT
 70
     0
  9
$DIMDEC
 70
     4
  9
$DIMTDEC
 70
     4
  9
$DIMALTU
 70
     2
  9
$DIMALTTD
 70
     2
  9
$DIMTXSTY
  7
STANDARD
  9
$DIMAUNIT
 70
     0
  9
$DIMADEC
 70
     0
  9
$DIMALTRND
 40
0.0
  9
$DIMAZIN
 70
     0
  9
$DIMDSEP
 70
    46
  9
$DIMATFIT
 70
     3
  9
$DIMFRAC
 70
     0
  9
$DIMLDRBLK
  1

  9
$DIMLUNIT
 70
     2
  9
$DIMLWD
 70
    -2
  9
$DIMLWE
 70
    -2
  9
$DIMTMOVE
 70
     2
  9
$DIMFXL
 40
1.0
  9
$DIMFXLON
 70
     0
  9
$DIMJOGANG
 40
0.7853981633974483
  9
$DIMTFILL
 70
     0
  9
$DIMTFILLCLR
 70
     0
  9
$DIMARCSYM
 70
     0
  9
$DIMLTYPE
  6

  9
$DIMLTEX1
  6

  9
$DIMLTEX2
  6

  9
$DIMTXTDIRECTION
 70
     0
  9
$LUNITS
 70
     2
  9
$LUPREC
 70
     4
  9
$SKETCHINC
 40
0.1
  9
$FILLETRAD
 40
0.5
  9
$AUNITS
 70
     0
  9
$AUPREC
 70
     0
  9
$MENU
  1
.
  9
$ELEVATION
 40
0.0
  9
$PELEVATION
 40
0.0
  9
$THICKNESS
 40
0.0
  9
$LIMCHECK
 70
     0
  9
$CHAMFERA
 40
0.0
  9
$CHAMFERB
 40
0.0
  9
$CHAMFERC
 40
0.0
  9
$CHAMFERD
 40
0.0
  9
$SKPOLY
 70
     0
  9
$TDCREATE
 40
2458605.838129734
  9
$TDUCREATE
 40
2458606.088129734
  9
$TDUPDATE
 40
2458605.84681838
  9
$TDUUPDATE
 40
2458606.09681838
  9
$TDINDWG
 40
0.0000008681
  9
$TDUSRTIMER
 40
0.0035105671
  9
$USRTIMER
 70
     1
  9
$ANGBASE
 50
0.0
  9
$ANGDIR
 70
     0
  9
$PDMODE
 70
     0
  9
$PDSIZE
 40
0.0
  9
$PLINEWID
 40
0.0
  9
$SPLFRAME
 70
     1
  9
$SPLINETYPE
 70
     6
  9
$SPLINESEGS
 70
     8
  9
$HANDSEED
  5
1184
  9
$SURFTAB1
 70
     6
  9
$SURFTAB2
 70
     6
  9
$SURFTYPE
 70
     6
  9
$SURFU
 70
     6
  9
$SURFV
 70
     6
  9
$UCSBASE
  2

  9
$UCSNAME
  2

  9
$UCSORG
 10
0.0
 20
0.0
 30
0.0
  9
$UCSXDIR
 10
1.0
 20
0.0
 30
0.0
  9
$UCSYDIR
 10
0.0
 20
1.0
 30
0.0
  9
$UCSORTHOREF
  2

  9
$UCSORTHOVIEW
 70
     0
  9
$UCSORGTOP
 10
0.0
 20
0.0
 30
0.0
  9
$UCSORGBOTTOM
 10
0.0
 20
0.0
 30
0.0
  9
$UCSORGLEFT
 10
0.0
 20
0.0
 30
0.0
  9
$UCSORGRIGHT
 10
0.0
 20
0.0
 30
0.0
  9
$UCSORGFRONT
 10
0.0
 20
0.0
 30
0.0
  9
$UCSORGBACK
 10
0.0
 20
0.0
 30
0.0
  9
$PUCSBASE
  2

  9
$PUCSNAME
  2

  9
$PUCSORG
 10
0.0
 20
0.0
 30
0.0
  9
$PUCSXDIR
 10
1.0
 20
0.0
 30
0.0
  9
$PUCSYDIR
 10
0.0
 20
1.0
 30
0.0
  9
$PUCSORTHOREF
  2

  9
$PUCSORTHOVIEW
 70
     0
  9
$PUCSORGTOP
 10
0.0
 20
0.0
 30
0.0
  9
$PUCSORGBOTTOM
 10
0.0
 20
0.0
 30
0.0
  9
$PUCSORGLEFT
 10
0.0
 20
0.0
 30
0.0
  9
$PUCSORGRIGHT
 10
0.0
 20
0.0
 30
0.0
  9
$PUCSORGFRONT
 10
0.0
 20
0.0
 30
0.0
  9
$PUCSORGBACK
 10
0.0
 20
0.0
 30
0.0
  9
$USERI1
 70
     0
  9
$USERI2
 70
     0
  9
$USERI3
 70
     0
  9
$USERI4
 70
     0
  9
$USERI5
 70
     0
  9
$USERR1
 40
0.0
  9
$USERR2
 40
0.0
  9
$USERR3
 40
0.0
  9
$USERR4
 40
0.0
  9
$USERR5
 40
0.0
  9
$WORLDVIEW
 70
     1
  9
$SHADEDGE
 70
     3
  9
$SHADEDIF
 70
    70
  9
$TILEMODE
 70
     1
  9
$MAXACTVP
 70
    64
  9
$PINSBASE
 10
0.0
 20
0.0
 30
0.0
  9
$PLIMCHECK
 70
     0
  9
$PEXTMIN
 10
1.000000000000000E+20
 20
1.000000000000000E+20
 30
1.000000000000000E+20
  9
$PEXTMAX
 10
-1.000000000000000E+20
 20
-1.000000000000000E+20
 30
-1.000000000000000E+20
  9
$PLIMMIN
 10
0.0
 20
0.0
  9
$PLIMMAX
 10
0.0
 20
0.0
  9
$UNITMODE
 70
     0
  9
$VISRETAIN
 70
     1
  9
$PLINEGEN
 70
     0
  9
$PSLTSCALE
 70
     1
  9
$TREEDEPTH
 70
  3020
  9
$CMLSTYLE
  2
Standard
  9
$CMLJUST
 70
     0
  9
$CMLSCALE
 40
1.0
  9
$PROXYGRAPHICS
 70
     1
  9
$MEASUREMENT
 70
     0
  9
$CELWEIGHT
370
    -1
  9
$ENDCAPS
280
     0
  9
$JOINSTYLE
280
     0
  9
$LWDISPLAY
290
     0
  9
$INSUNITS
 70
     0
  9
$HYPERLINKBASE
  1

  9
$STYLESHEET
  1

  9
$XEDIT
290
     1
  9
$CEPSNTYPE
380
     0
  9
$PSTYLEMODE
290
     1
  9
$FINGERPRINTGUID
  2
{17B24147-113E-42FF-9817-398FB4E21DA7}
  9
$VERSIONGUID
  2
{FAEB1C32-E019-11D5-929B-00C0DF256EC4}
  9
$EXTNAMES
290
     1
  9
$PSVPSCALE
 40
0.0
  9
$OLESTARTUP
290
     0
  9
$SORTENTS
280
   127
  9
$INDEXCTL
280
     0
  9
$HIDETEXT
280
     1
  9
$XCLIPFRAME
280
     2
  9
$HALOGAP
280
     0
  9
$OBSCOLOR
 70
   257
  9
$OBSLTYPE
280
     0
  9
$INTERSECTIONDISPLAY
280
     0
  9
$INTERSECTIONCOLOR
 70
   257
  9
$DIMASSOC
280
     2
  9
$PROJECTNAME
  1

  9
$CAMERADISPLAY
290
     0
  9
$LENSLENGTH
 40
50.0
  9
$CAMERAHEIGHT
 40
0.0
  9
$STEPSPERSEC
 40
2.0
  9
$STEPSIZE
 40
6.0
  9
$3DDWFPREC
 40
2.0
  9
$PSOLWIDTH
 40
0.25
  9
$PSOLHEIGHT
 40
4.0
  9
$LOFTANG1
 40
1.570796326794897
  9
$LOFTANG2
 40
1.570796326794897
  9
$LOFTMAG1
 40
0.0
  9
$LOFTMAG2
 40
0.0
  9
$LOFTPARAM
 70
     7
  9
$LOFTNORMALS
280
     1
  9
$LATITUDE
 40
37.795
  9
$LONGITUDE
 40
-122.394
  9
$NORTHDIRECTION
 40
0.0
  9
$TIMEZONE
 70
 -8000
  9
$LIGHTGLYPHDISPLAY
280
     1
  9
$TILEMODELIGHTSYNCH
280
     1
  9
$SOLIDHIST
280
     0
  9
$SHOWHIST
280
     1
  9
$DWFFRAME
280
     2
  9
$DGNFRAME
280
     2
  9
$REALWORLDSCALE
290
     1
  9
$INTERFERECOLOR
 62
   256
  9
$CSHADOW
280
     0
  9
$SHADOWPLANELOCATION
 40
0.0
  0
ENDSEC
  0
SECTION
  2
CLASSES
  0
CLASS
  1
ACDBDICTIONARYWDFLT
  2
AcDbDictionaryWithDefault
  3
ObjectDBX Classes
 90
        0
 91
        5
280
     0
281
     0
  0
CLASS
  1
MATERIAL
  2
AcDbMaterial
  3
ObjectDBX Classes
 90
     1153
 91
        5
280
     0
281
     0
  0
CLASS
  1
SCALE
  2
AcDbScale
  3
ObjectDBX Classes
 90
     1153
 91
        5
280
     0
281
     0
  0
CLASS
  1
VISUALSTYLE
  2
AcDbVisualStyle
  3
ObjectDBX Classes
 90
     4095
 91
        5
280
     0
281
     0
  0
CLASS
  1
TABLESTYLE
  2
AcDbTableStyle
  3
ObjectDBX Classes
 90
     4095
 91
        5
280
     0
281
     0
  0
CLASS
  1
MLEADERSTYLE
  2
AcDbMLeaderStyle
  3
ACDB_MLEADERSTYLE_CLASS
 90
     4095
 91
        5
280
     0
281
     0
  0
CLASS
  1
DICTIONARYVAR
  2
AcDbDictionaryVar
  3
ObjectDBX Classes
 90
        0
 91
        4
280
     0
281
     0
  0
CLASS
  1
CELLSTYLEMAP
  2
AcDbCellStyleMap
  3
ObjectDBX Classes
 90
     1152
 91
        4
280
     0
281
     0
  0
ENDSEC
  0
SECTION
  2
TABLES
  0
TABLE
  2
VPORT
  5
1114
330
0
100
AcDbSymbolTable
 70
     1
  0
VPORT
  5
112B
330
1114
100
AcDbSymbolTableRecord
100
AcDbViewportTableRecord
  2
*ACTIVE
 70
     0
 10
0.0
 20
0.0
 11
1.0
 21
1.0
 12
9.639003249292111
 22
5.594016642762414
 13
0.0
 23
0.0
 14
0.5
 24
0.5
 15
0.5
 25
0.5
 16
0.0
 26
0.0
 36
1.0
 17
0.0
 27
0.0
 37
0.0
 40
9.382017355333442
 41
1.627551020408163
 42
50.0
 43
0.0
 44
0.0
 50
0.0
 51
0.0
 71
    16
 72
   100
 73
     1
 74
     3
 75
     0
 76
     0
 77
     0
 78
     0
281
     0
 65
     0
110
0.0
120
0.0
130
0.0
111
1.0
121
0.0
131
0.0
112
0.0
122
1.0
132
0.0
 79
     0
146
0.0
348
1161
 60
     3
 61
     5
292
     1
282
     1
141
0.0
142
0.0
 63
   256
  0
ENDTAB
  0
TABLE
  2
LTYPE
  5
1111
330
0
100
AcDbSymbolTable
 70
     1
  0
LTYPE
  5
111F
330
1111
100
AcDbSymbolTableRecord
100
AcDbLinetypeTableRecord
  2
ByBlock
 70
     0
  3

 72
    65
 73
     0
 40
0.0
  0
LTYPE
  5
1120
330
1111
100
AcDbSymbolTableRecord
100
AcDbLinetypeTableRecord
  2
ByLayer
 70
     0
  3

 72
    65
 73
     0
 40
0.0
  0
LTYPE
  5
1121
330
1111
100
AcDbSymbolTableRecord
100
AcDbLinetypeTableRecord
  2
CONTINUOUS
 70
     0
  3
Solid line
 72
    65
 73
     0
 40
0.0
  0
ENDTAB
  0
TABLE
  2
LAYER
  5
110E
330
0
100
AcDbSymbolTable
 70
     2
  0
LAYER
  5
111C
330
110E
100
AcDbSymbolTableRecord
100
AcDbLayerTableRecord
  2
0
 70
     0
 62
     7
  6
CONTINUOUS
370
    -3
390
111B
347
1131
348
0
  0
LAYER
  5
1132
330
110E
100
AcDbSymbolTableRecord
100
AcDbLayerTableRecord
  2
DEFPOINTS
 70
     0
 62
     7
  6
CONTINUOUS
290
     0
370
    -3
390
111B
347
1131
348
0
  0
ENDTAB
  0
TABLE
  2
STYLE
  5
110F
330
0
100
AcDbSymbolTable
 70
     1
  0
STYLE
  5
111D
330
110F
100
AcDbSymbolTableRecord
100
AcDbTextStyleTableRecord
  2
STANDARD
 70
     0
 40
0.0
 41
1.0
 50
0.0
 71
     0
 42
0.2
  3
txt
  4

  0
ENDTAB
  0
TABLE
  2
VIEW
  5
1112
330
0
100
AcDbSymbolTable
 70
     0
  0
ENDTAB
  0
TABLE
  2
UCS
  5
1113
330
0
100
AcDbSymbolTable
 70
     0
  0
ENDTAB
  0
TABLE
  2
APPID
  5
1115
330
0
100
AcDbSymbolTable
 70
     1
  0
APPID
  5
111E
330
1115
100
AcDbSymbolTableRecord
100
AcDbRegAppTableRecord
  2
ACAD
 70
     0
  0
ENDTAB
  0
TABLE
  2
DIMSTYLE
  5
1116
330
0
100
AcDbSymbolTable
 70
     1
100
AcDbDimStyleTable
  0
DIMSTYLE
105
1135
330
1116
100
AcDbSymbolTableRecord
100
AcDbDimStyleTableRecord
  2
STANDARD
 70
     0
178
     0
340
111D
  0
ENDTAB
  0
TABLE
  2
BLOCK_RECORD
  5
110D
330
0
100
AcDbSymbolTable
 70
     1
  0
BLOCK_RECORD
  5
1128
330
110D
100
AcDbSymbolTableRecord
100
AcDbBlockTableRecord
  2
*Model_Space
340
1129
 70
     0
280
     1
281
     0
  0
BLOCK_RECORD
  5
1126
330
110D
100
AcDbSymbolTableRecord
100
AcDbBlockTableRecord
  2
*Paper_Space
340
1127
 70
     0
280
     1
281
     0
  0
BLOCK_RECORD
  5
1139
330
110D
100
AcDbSymbolTableRecord
100
AcDbBlockTableRecord
  2
*D0
340
0
 70
     0
280
     1
281
     0
  0
ENDTAB
  0
ENDSEC
  0
SECTION
  2
BLOCKS
  0
BLOCK
  5
1136
330
1128
100
AcDbEntity
  8
0
100
AcDbBlockBegin
  2
*Model_Space
 70
     0
 10
0.0
 20
0.0
 30
0.0
  3
*Model_Space
  1

  0
ENDBLK
  5
8A2
330
1128
100
AcDbEntity
  8
0
100
AcDbBlockEnd
  0
BLOCK
  5
1137
330
1126
100
AcDbEntity
 67
     1
  8
0
100
AcDbBlockBegin
  2
*Paper_Space
 70
     0
 10
0.0
 20
0.0
 30
0.0
  3
*Paper_Space
  1

  0
ENDBLK
  5
8A4
330
1126
100
AcDbEntity
 67
     1
  8
0
100
AcDbBlockEnd
  0
BLOCK
  5
1138
330
1139
100
AcDbEntity
  8
0
100
AcDbBlockBegin
  2
*D0
 70
     1
 10
0.0
 20
0.0
 30
0.0
  3
*D0
  1

  0
LINE
  5
8CA
330
1139
100
AcDbEntity
  8
0
  6
ByBlock
 62
     0
370
    -2
100
AcDbLine
 10
0.9299719485070606
 20
4.24476908738885
 30
0.0
 11
0.9299719485070597
 21
1.068449433082917
 31
0.0
  0
LINE
  5
8CB
330
1139
100
AcDbEntity
  8
0
  6
ByBlock
 62
     0
370
    -2
100
AcDbLine
 10
14.74673418645471
 20
4.24476908738885
 30
0.0
 11
14.74673418645471
 21
1.068449433082915
 31
0.0
  0
LINE
  5
8CC
330
1139
100
AcDbEntity
  8
0
  6
ByBlock
 62
     0
370
    -2
100
AcDbLine
 10
1.10997194850706
 20
1.248449433082917
 30
0.0
 11
7.268353067480884
 21
1.248449433082916
 31
0.0
  0
LINE
  5
8CD
330
1139
100
AcDbEntity
  8
0
  6
ByBlock
 62
     0
370
    -2
100
AcDbLine
 10
14.56673418645471
 20
1.248449433082915
 30
0.0
 11
8.408353067480883
 21
1.248449433082916
 31
0.0
  0
SOLID
  5
8CE
330
1139
100
AcDbEntity
  8
0
 62
     0
100
AcDbTrace
 10
1.10997194850706
 20
1.278449433082917
 30
0.0
 11
1.10997194850706
 21
1.218449433082917
 31
0.0
 12
0.9299719485070597
 22
1.248449433082917
 32
0.0
 13
0.9299719485070597
 23
1.248449433082917
 33
0.0
  0
SOLID
  5
8CF
330
1139
100
AcDbEntity
  8
0
 62
     0
100
AcDbTrace
 10
14.56673418645471
 20
1.218449433082915
 30
0.0
 11
14.56673418645471
 21
1.278449433082915
 31
0.0
 12
14.74673418645471
 22
1.248449433082915
 32
0.0
 13
14.74673418645471
 23
1.248449433082915
 33
0.0
  0
MTEXT
  5
8D0
330
1139
100
AcDbEntity
  8
0
  6
ByBlock
 62
     0
100
AcDbMText
 10
7.838353067480885
 20
1.248449433082916
 30
0.0
 40
0.18
 41
0.0
 46
0.0
 71
     5
 72
     1
  1
\A1;13.8168
 73
     1
 44
1.0
  0
POINT
  5
8D1
330
1139
100
AcDbEntity
  8
DEFPOINTS
 62
     0
100
AcDbPoint
 10
0.9299719485070606
 20
4.30726908738885
 30
0.0
  0
POINT
  5
8D2
330
1139
100
AcDbEntity
  8
DEFPOINTS
 62
     0
100
AcDbPoint
 10
14.74673418645471
 20
4.30726908738885
 30
0.0
  0
POINT
  5
8D3
330
1139
100
AcDbEntity
  8
DEFPOINTS
 62
     0
100
AcDbPoint
 10
14.74673418645471
 20
1.248449433082915
 30
0.0
  0
ENDBLK
  5
8C9
330
1139
100
AcDbEntity
  8
0
100
AcDbBlockEnd
  0
ENDSEC
  0
SECTION
  2
ENTITIES
  0
LWPOLYLINE
  5
27
330
1128
100
AcDbEntity
  8
0
 62
     0
100
AcDbPolyline
 90
      559
 70
     1
 43
0.0
 10
2.704562944290141
 20
2.989509077874402
 10
2.699787880810834
 20
2.990818904314906
 10
2.685396370046809
 20
2.995809508854044
 10
2.658768759117058
 20
3.005931648625285
 10
2.628277989191895
 20
3.018698311399822
 10
2.605065875056372
 20
3.029052572312419
 10
2.597463907676987
 20
3.032683610166476
 10
2.572958547182485
 20
3.044554948538644
 10
2.505046533254552
 20
3.091600929866893
 10
2.426150215316059
 20
3.17014077605259
 10
2.364895104120564
 20
3.263105293165363
 10
2.33224063355634
 20
3.338892845817848
 10
2.3254510901717
 20
3.365155694954041
 10
2.324290484464923
 20
3.369748377536569
 10
2.321629381380101
 20
3.383642485854833
 10
2.318528906134856
 20
3.407169621539338
 10
2.316149664435964
 20
3.438331884766279
 10
2.314342435549699
 20
3.479931309313443
 10
2.313040899149957
 20
3.534628998265652
 10
2.3121870249514
 20
3.605011444340866
 10
2.311739362750215
 20
3.693888971357633
 10
2.311648172301826
 20
3.776374876946369
 10
2.311648172301826
 20
3.803856362074677
 10
2.311648172301826
 20
4.18898678578683
 10
1.048259224133537
 20
4.18898678578683
 10
1.011154245185864
 20
4.210574051932867
 10
1.005532188241833
 20
4.213807167830315
 10
0.9777817741911836
 20
4.23683690106906
 10
0.9547988796827481
 20
4.264583667501773
 10
0.9515606239600273
 20
4.270171154975825
 10
0.9299719485070606
 20
4.30726908738885
 10
0.9299719485070606
 20
10.63366447469975
 10
0.9515606239600273
 20
10.67072095690897
 10
0.9547988796827481
 20
10.67635818462759
 10
0.9777817741911836
 20
10.70412982118259
 10
1.005532188241833
 20
10.72709323409524
 10
1.011154245185864
 20
10.73032634999268
 10
1.048259224133537
 20
10.7519633563833
 10
2.311648172301826
 20
10.7519633563833
 10
2.311648172301826
 20
11.13703574981011
 10
2.311648172301826
 20
11.17268292508967
 10
2.311780812954028
 20
11.27945865011308
 10
2.312684427397161
 20
11.38872138736529
 10
2.31493102844385
 20
11.47095859173115
 10
2.319291589885023
 20
11.5322219929674
 10
2.326346414574069
 20
11.5784804204232
 10
2.336742125690479
 20
11.61603430507817
 10
2.351233116943656
 20
11.65085247628146
 10
2.365483697014716
 20
11.67945311691273
 10
2.370391401146226
 20
11.68890376338219
 10
2.378706312031201
 20
11.7049864424618
 10
2.409868575258142
 20
11.75025006502608
 10
2.462410853612052
 20
11.81010415933267
 10
2.522273237959416
 20
11.86266301776811
 10
2.567520280442162
 20
11.89383357103581
 10
2.583660989807114
 20
11.9021236117985
 10
2.588784234998454
 20
11.90485932525019
 10
2.604212000857815
 20
11.91306646560525
 10
2.622334029965049
 20
11.92260001248234
 10
2.640290258257028
 20
11.93072425242977
 10
2.660252676413579
 20
11.9376049862628
 10
2.684501045644438
 20
11.94332511438905
 10
2.715174196466381
 20
11.94805043762379
 10
2.754527019966856
 20
11.95194675678225
 10
2.804814407233316
 20
11.95484827104919
 10
2.868233219067872
 20
11.95708658205512
 10
2.946988606313399
 20
11.95874459020765
 10
3.04327742977201
 20
11.9598222955068
 10
3.159362870571917
 20
11.96048549876782
 10
3.297483239719046
 20
11.96081710039833
 10
3.459802237852458
 20
11.96098290121358
 10
3.648566466018843
 20
11.96098290121358
 10
3.811648147902423
 20
11.96090000080595
 10
3.86603081530565
 20
11.96090000080595
 10
3.949196504236927
 20
11.96090000080595
 10
4.198676990949231
 20
11.96081710039833
 10
4.4598961753815
 20
11.96048549876782
 10
4.658691352870736
 20
11.95973939509918
 10
4.804231308500471
 20
11.9585787893924
 10
4.905568766783557
 20
11.95683788083224
 10
4.971814482518189
 20
11.95435086860343
 10
5.012021180217221
 20
11.95120065311361
 10
5.029571196511831
 20
11.94854784006955
 10
5.035283034597321
 20
11.94705563273227
 10
5.067796574468581
 20
11.93868269156195
 10
5.16053726048076
 20
11.89466257511208
 10
5.269601036754672
 20
11.81002125892505
 10
5.354474474083061
 20
11.70109012330334
 10
5.398917382611828
 20
11.60832456716887
 10
5.407456124597394
 20
11.57574470697151
 10
5.409346253891287
 20
11.56853237150797
 10
5.410921361636198
 20
11.54556895859533
 10
5.413972096636867
 20
11.48629516714212
 10
5.4165420092733
 20
11.40198545258559
 10
5.418614519463972
 20
11.29695063612235
 10
5.420222787371933
 20
11.1752528377261
 10
5.421399973160234
 20
11.04111997818582
 10
5.422112916665826
 20
10.89861417747523
 10
5.42234503780718
 20
10.7519633563833
 10
5.422112916665826
 20
10.60531253529136
 10
5.421399973160234
 20
10.46280673458077
 10
5.420222787371933
 20
10.3286738750405
 10
5.418614519463972
 20
10.20697607664425
 10
5.4165420092733
 20
10.10185835977338
 10
5.413972096636867
 20
10.01763154562448
 10
5.410921361636198
 20
9.958357754171267
 10
5.409346253891287
 20
9.935394341258622
 10
5.407456124597394
 20
9.928099105387457
 10
5.399953637707163
 20
9.899415564348558
 10
5.363568648799729
 20
9.817095459575079
 10
5.294885661080867
 20
9.719355878982999
 10
5.204292095626223
 20
9.638113479508664
 10
5.123522228475363
 20
9.58895353778593
 10
5.094880137640279
 20
9.576684277457154
 10
5.027498686321159
 20
9.547254632749613
 10
4.535277516036614
 20
9.538632990356419
 10
4.486929998308623
 20
9.236378104148848
 10
4.482072034421688
 20
9.206285256180294
 10
4.467589333209274
 20
9.115675110644126
 10
4.450951221398562
 20
9.010806094996134
 10
4.438665380988259
 20
8.932796811419248
 10
4.433351464859376
 20
8.89855894306935
 10
4.432505880701583
 20
8.892673014127844
 10
4.426479021067109
 20
8.852134714798304
 10
5.480856145510226
 20
8.852134714798304
 10
5.813328230297791
 20
9.517078884373433
 10
5.827943572162408
 20
9.54634272826572
 10
5.871839338000837
 20
9.634134259942574
 10
5.923154690321869
 20
9.736599163769387
 10
5.967771689706651
 20
9.825634201560646
 10
6.006270639008569
 20
9.901985476984994
 10
6.039148940673386
 20
9.966896496156831
 10
6.066945447350676
 20
10.02127916356006
 10
6.090290202138402
 20
10.0661282840862
 10
6.109581126993175
 20
10.10252156303439
 10
6.125498005257535
 20
10.13128800448092
 10
6.13850507921419
 20
10.15367111454017
 10
6.149166071635007
 20
10.17049989728843
 10
6.158061285373369
 20
10.18293495843246
 10
6.165671542793516
 20
10.19180530204853
 10
6.172543986585784
 20
10.19835443425106
 10
6.179250629562797
 20
10.20332845870867
 10
6.184556255650917
 20
10.206810275829
 10
6.186355194496421
 20
10.20788798112815
 10
6.226976394233587
 20
10.23383580871536
 10
8.410896442715103
 20
10.23383580871536
 10
8.446286626731016
 20
10.21311070680864
 10
8.451227491025577
 20
10.21029209294932
 10
8.473991942959916
 20
10.19528711916886
 10
8.539516425148195
 20
10.15226180761052
 10
8.638516091936204
 20
10.08685338599291
 10
8.766746442453446
 20
10.00179756776775
 10
8.919938105707143
 20
9.899912966794322
 10
9.09390461111213
 20
9.78418399774721
 10
9.284260527104951
 20
9.657346374078099
 10
9.436216974285003
 20
9.55604207595806
 10
9.48686912334502
 20
9.5222187096463
 10
10.49112466133693
 20
8.852134714798304
 10
10.70185749752444
 20
8.852134714798304
 10
10.72780532511165
 20
8.852134714798304
 10
10.80581460868853
 20
8.852715017651693
 10
10.87031112582224
 20
8.854538826619482
 10
10.90330548805773
 20
8.85802064373981
 10
10.91259033371194
 20
8.8619998633059
 10
10.91259033371194
 20
8.86340917023556
 10
10.91259033371194
 20
8.87261111548214
 10
10.90786501047721
 20
8.900299851629516
 10
10.89559575014843
 20
8.990412594719924
 10
10.87793796332391
 20
9.116587015128022
 10
10.8575444630477
 20
9.261662728475045
 10
10.83665356032573
 20
9.408479350382233
 10
10.81783516779443
 20
9.539793596063195
 10
10.80341049686735
 20
9.63844508113917
 10
10.79818777118686
 20
9.675087061310247
 10
10.79594946018094
 20
9.687190520823773
 10
10.79080963490807
 20
9.715708261047414
 10
10.65518456803051
 20
9.715708261047414
 10
10.63081184818821
 20
9.71579116145504
 10
10.55761078825368
 20
9.717780771238086
 10
10.48963245399965
 20
9.724993106701625
 10
10.4330114755905
 20
9.740992885373611
 10
10.38501213957454
 20
9.761635086872701
 10
10.36934396253306
 20
9.769179023966746
 10
10.34497124269076
 20
9.780950881849762
 10
10.27732451006723
 20
9.827623811343692
 10
10.19840332200645
 20
9.905881796143458
 10
10.13697411995494
 20
9.99873025268555
 10
10.1041455585347
 20
10.07458412566414
 10
10.09734772510929
 20
10.10078065447423
 10
10.09311980432033
 20
10.11719493518435
 10
10.09054989168389
 20
10.16892478954352
 10
10.08565876763391
 20
10.29974163277872
 10
10.08275725336697
 20
10.47217448064261
 10
10.08184534888307
 20
10.6655811316361
 10
10.08275725336697
 20
10.85898778262959
 10
10.08565876763391
 20
11.03150353090111
 10
10.09054989168389
 20
11.16232037413631
 10
10.09311980432033
 20
11.21405022849547
 10
10.09734772510929
 20
11.23038160879797
 10
10.10572066627961
 20
11.26304436940296
 10
10.14965788232185
 20
11.35597572635268
 10
10.23413339769363
 20
11.46490686197438
 10
10.34306453331534
 20
11.54938237734617
 10
10.43599589026506
 20
11.59331959338841
 10
10.46865865087005
 20
11.60169253455872
 10
10.47413007777342
 20
11.60310184148838
 10
10.49104176092931
 20
11.60575465453244
 10
10.52735213946988
 20
11.60898777042989
 10
10.58538242480869
 20
11.61139188225107
 10
10.67259365363215
 20
11.61313279081123
 10
10.79661266344195
 20
11.61429339651801
 10
10.96498339133213
 20
11.61503950018665
 10
11.18533267480435
 20
11.61537110181716
 10
11.39523650691558
 20
11.61545400222478
 10
11.46520445095266
 20
11.61545400222478
 10
11.53517239498974
 20
11.61545400222478
 10
11.74507622710098
 20
11.61537110181716
 10
11.9654255105732
 20
11.61503950018665
 10
12.133879138871
 20
11.61429339651801
 10
12.25781524827317
 20
11.61313279081123
 10
12.34502647709664
 20
11.61139188225107
 10
12.40305676243545
 20
11.60898777042989
 10
12.43945004138365
 20
11.60575465453244
 10
12.4562788241319
 20
11.60310184148838
 10
12.46175025103527
 20
11.60169253455872
 10
12.49433011123264
 20
11.59331959338841
 10
12.58701276695948
 20
11.54921657653091
 10
12.69610970339644
 20
11.46457526034388
 10
12.78091682039873
 20
11.35564412472217
 10
12.82535143888673
 20
11.2628785685877
 10
12.83397308127993
 20
11.23038160879797
 10
12.83803520125364
 20
11.21421602931073
 10
12.84010771144431
 20
11.16331517902783
 10
12.84458433345616
 20
11.03274703701551
 10
12.84723714650022
 20
10.85981678670586
 10
12.84814905098412
 20
10.6655811316361
 10
12.84723714650022
 20
10.47142837697397
 10
12.84458433345616
 20
10.29849812666432
 10
12.84010771144431
 20
10.16784708424437
 10
12.83803520125364
 20
10.11694623396147
 10
12.83397308127993
 20
10.10078065447423
 10
12.82709234744689
 20
10.07458412566414
 10
12.7940979852114
 20
9.999144754723687
 10
12.73225428112175
 20
9.906213397773964
 10
12.65291859102284
 20
9.827706711751318
 10
12.58543765921457
 20
9.780950881849762
 10
12.56114783977989
 20
9.769179023966746
 10
12.54547966273842
 20
9.761635086872701
 10
12.49748032672246
 20
9.740992885373611
 10
12.44077644790568
 20
9.724993106701625
 10
12.37279811365164
 20
9.717780771238086
 10
12.29959705371711
 20
9.71579116145504
 10
12.27522433387481
 20
9.715708261047414
 10
12.26196026865452
 20
9.715708261047414
 10
12.22216807299362
 20
9.715542460232161
 10
12.17881115980477
 20
9.715045057786401
 10
12.14954731591248
 20
9.714216053710132
 10
12.13877026292099
 20
9.713387049633862
 10
12.13877026292099
 20
9.713055448003356
 10
12.13860446210573
 20
9.712889647188103
 10
12.13329883601761
 20
9.677656973946682
 10
12.11945446794392
 20
9.582404405583407
 10
12.0993096688906
 20
9.441971115063488
 10
12.08098867880506
 20
9.313724184464721
 10
12.07485404864067
 20
9.270947574129256
 10
12.06863651806865
 20
9.22817096379379
 10
12.05006682676024
 20
9.09967533197214
 10
12.03017072892979
 20
8.959242041452221
 10
12.01707246452474
 20
8.864155273904199
 10
12.01251294210526
 20
8.829063531355747
 10
12.01276164332814
 20
8.828839700255152
 10
12.0129274441434
 20
8.828425198217019
 10
12.02693761303234
 20
8.826045956518126
 10
12.06465729850256
 20
8.820657430022383
 10
12.11986896998206
 20
8.813320743947404
 10
12.17035531822683
 20
8.806804771907931
 10
12.18718410097508
 20
8.804641071268868
 10
12.24131806715543
 20
8.797843237843466
 10
12.40347126447358
 20
8.773967920446928
 10
12.63111578381697
 20
8.735369490655856
 10
12.85759969745358
 20
8.691249893716837
 10
13.01751458376582
 20
8.656630683491855
 10
13.07065374505464
 20
8.64402982153257
 10
13.081016296008
 20
8.641600839589103
 10
13.11251845090621
 20
8.634313893758701
 10
13.14791692496288
 20
8.626355454626523
 10
13.17320154928908
 20
8.620958638090013
 10
13.18157449045939
 20
8.618977318347731
 10
13.18447600472633
 20
8.618977318347731
 10
13.18497340717209
 20
8.618977318347731
 10
13.18613401287887
 20
8.638276533243264
 10
13.18762622021615
 20
8.69412653786149
 10
13.18886972633056
 20
8.783501467324019
 10
13.19003033203733
 20
8.903284266304084
 10
13.19094223652123
 20
9.050598290657032
 10
13.1917712405975
 20
9.22228503485228
 10
13.192102842228
 20
9.415360084215262
 10
13.19235154345089
 20
9.57386566359784
 10
13.19235154345089
 20
9.626673223256155
 10
13.19235154345089
 20
10.63366447469975
 10
13.2139885498415
 20
10.67072095690897
 10
13.21722166573895
 20
10.67635818462759
 10
13.24010217824396
 20
10.70412982118259
 10
13.26787381479896
 20
10.72709323409524
 10
13.27351104251759
 20
10.73032634999268
 10
13.3105675247268
 20
10.7519633563833
 10
14.62843530477117
 20
10.7519633563833
 10
14.66549178698038
 20
10.73032634999268
 10
14.67104611429138
 20
10.72709323409524
 10
14.69881775084638
 20
10.70412982118259
 10
14.72186406416665
 20
10.67635818462759
 10
14.72518008047172
 20
10.67072095690897
 10
14.74673418645471
 20
10.63366447469975
 10
14.74673418645471
 20
4.30726908738885
 10
14.72518008047172
 20
4.270171154975825
 10
14.72186406416665
 20
4.264583667501773
 10
14.69881775084638
 20
4.23683690106906
 10
14.67104611429138
 20
4.213807167830315
 10
14.66549178698038
 20
4.210574051932867
 10
14.62843530477117
 20
4.18898678578683
 10
13.3105675247268
 20
4.18898678578683
 10
13.27351104251759
 20
4.210574051932867
 10
13.26787381479896
 20
4.213807167830315
 10
13.24010217824396
 20
4.23683690106906
 10
13.21722166573895
 20
4.264583667501773
 10
13.2139885498415
 20
4.270171154975825
 10
13.19235154345089
 20
4.30726908738885
 10
13.19235154345089
 20
5.319383584023787
 10
13.19235154345089
 20
5.393446808197633
 10
13.19218574263563
 20
5.615545290270783
 10
13.19185414100512
 20
5.848702686721357
 10
13.19119093774411
 20
6.02614271920591
 10
13.19011323244496
 20
6.154994822780355
 10
13.18862102510768
 20
6.242429882704417
 10
13.18646561450938
 20
6.295593914115528
 10
13.18372990105769
 20
6.321757282762568
 10
13.18049678516024
 20
6.328107453986787
 10
13.18024808393736
 20
6.327966523293822
 10
13.17485955744161
 20
6.325811112695523
 10
13.15695306939421
 20
6.321632932151128
 10
13.10812472930198
 20
6.309985424879553
 10
13.04064379749371
 20
6.294599109224006
 10
12.96155680861768
 20
6.277065673010922
 10
12.87799319772979
 20
6.258852453455299
 10
12.79683369866309
 20
6.241534558302046
 10
12.72512484606584
 20
6.22664564509226
 10
12.68367464225241
 20
6.218322444166522
 10
12.66991317458635
 20
6.215702791285513
 10
12.62788266791952
 20
6.207528811093503
 10
12.42577147412521
 20
6.172577999238015
 10
12.21976396117244
 20
6.142767012655391
 10
12.17599254594545
 20
6.137138074977528
 10
12.16049016971923
 20
6.135339136132024
 10
12.11406594144818
 20
6.129395176905178
 10
12.06308219075765
 20
6.122249161767741
 10
12.02809821873911
 20
6.116769444823606
 10
12.01483415351882
 20
6.114290722635562
 10
12.01441965148068
 20
6.113843060434377
 10
12.01400514944255
 20
6.113436848437005
 10
12.01815016982389
 20
6.077773093075926
 10
12.03075103178317
 20
5.981923641777738
 10
12.05023262757549
 20
5.841100719341973
 10
12.06863651806865
 20
5.712746018213289
 10
12.07485404864067
 20
5.669969407877823
 10
12.08098867880506
 20
5.627151347338545
 10
12.0993096688906
 20
5.498655715516896
 10
12.11945446794392
 20
5.358147814630112
 10
12.13329883601761
 20
5.262804055818448
 10
12.13860446210573
 20
5.227405581761774
 10
12.13877026292099
 20
5.226949629519827
 10
12.13877026292099
 20
5.226816988867624
 10
12.14938151509723
 20
5.226369326666439
 10
12.178313757359
 20
5.225780733772288
 10
12.22109036769447
 20
5.225424262019492
 10
12.26038516090961
 20
5.225241881122713
 10
12.27348342531465
 20
5.225241881122713
 10
12.29827064719509
 20
5.225241881122713
 10
12.37271521324402
 20
5.222904089627636
 10
12.44715977929295
 20
5.214042036052323
 10
12.51016408908937
 20
5.196102387841869
 10
12.55907532958922
 20
5.174680922511085
 10
12.57490930744595
 20
5.166498652278313
 10
12.59762401913571
 20
5.154809694802924
 10
12.66004802607875
 20
5.108352306368825
 10
12.7354873970192
 20
5.029547178878722
 10
12.79542439173343
 20
4.937627206902048
 10
12.82734104866977
 20
4.865296601247604
 10
12.83397308127993
 20
4.84011145741056
 10
12.83803520125364
 20
4.82400390820866
 10
12.84010771144431
 20
4.773086477844235
 10
12.84458433345616
 20
4.642485175668863
 10
12.84723714650022
 20
4.469546635318448
 10
12.84814905098412
 20
4.275344140411741
 10
12.84723714650022
 20
4.081183095708847
 10
12.84458433345616
 20
3.908244555358432
 10
12.84010771144431
 20
3.777626673101536
 10
12.83803520125364
 20
3.726725822818637
 10
12.83397308127993
 20
3.71056853337216
 10
12.82551723970198
 20
3.678195924193866
 10
12.78116552162161
 20
3.585894610342109
 10
12.69586100217356
 20
3.476565552763792
 10
12.58643246410609
 20
3.391194712989641
 10
12.49408141000976
 20
3.346842994909265
 10
12.46175025103527
 20
3.338395443372086
 10
12.45362601108784
 20
3.336273192936839
 10
12.42767818350063
 20
3.334930206333284
 10
12.35737863783304
 20
3.331879471332615
 10
12.25607433971301
 20
3.329309558696182
 10
12.12898801482102
 20
3.32723704850551
 10
11.98109368761468
 20
3.325628780597548
 10
11.81777988458974
 20
3.324451594809247
 10
11.64402063020382
 20
3.323738651303656
 10
11.46520445095266
 20
3.323506530162301
 10
11.2863882717015
 20
3.323738651303656
 10
11.11262901731558
 20
3.324451594809247
 10
10.94931521429065
 20
3.325628780597548
 10
10.80150378749194
 20
3.32723704850551
 10
10.67433456219232
 20
3.329309558696182
 10
10.57303026407228
 20
3.331879471332615
 10
10.5027307184047
 20
3.334930206333284
 10
10.47686579122511
 20
3.336273192936839
 10
10.46865865087005
 20
3.338395443372086
 10
10.43624459148795
 20
3.34698392560223
 10
10.34372773657635
 20
3.391459994294046
 10
10.23479660095465
 20
3.476607002967606
 10
10.14990658354473
 20
3.585679069282279
 10
10.10572066627961
 20
3.67814618394929
 10
10.09734772510929
 20
3.71056853337216
 10
10.09311980432033
 20
3.726941363878467
 10
10.09054989168389
 20
3.778662928196872
 10
10.08565876763391
 20
3.909463191350548
 10
10.08275725336697
 20
4.081945779459014
 10
10.08184534888307
 20
4.275344140411741
 10
10.08275725336697
 20
4.468783951568281
 10
10.08565876763391
 20
4.641266539676749
 10
10.09054989168389
 20
4.772066802830425
 10
10.09311980432033
 20
4.823788367148829
 10
10.09734772510929
 20
4.84011145741056
 10
10.10572066627961
 20
4.872765927974784
 10
10.14965788232185
 20
4.965771895291371
 10
10.23413339769363
 20
5.074661580709265
 10
10.34306453331534
 20
5.159128806040284
 10
10.43599589026506
 20
5.203115762327101
 10
10.46865865087005
 20
5.211438963252839
 10
10.47819219774714
 20
5.213818204951731
 10
10.54136230835882
 20
5.221917574776875
 10
10.62741293147551
 20
5.225241881122713
 10
10.65609647251441
 20
5.225241881122713
 10
10.79080963490807
 20
5.225241881122713
 10
10.79594946018094
 20
5.252856006903224
 10
10.79810487077923
 20
5.26509210706895
 10
10.80341049686735
 20
5.301974498422145
 10
10.81783516779443
 20
5.400833234517187
 10
10.83665356032573
 20
5.53229670093188
 10
10.8575444630477
 20
5.679187933205932
 10
10.87793796332391
 20
5.824321676838294
 10
10.89559575014843
 20
5.950529257409442
 10
10.90786501047721
 20
6.040708320825952
 10
10.91259033371194
 20
6.068372186851038
 10
10.91259033371194
 20
6.07754097193457
 10
10.91259033371194
 20
6.078941988823464
 10
10.90313968724248
 20
6.082987528715656
 10
10.8698966237841
 20
6.086403025509883
 10
10.80506850501989
 20
6.0882434145592
 10
10.72697632103538
 20
6.088790557249537
 10
10.70102849344817
 20
6.088790557249537
 10
10.48946665318439
 20
6.088790557249537
 10
8.416915012308817
 20
4.707114333454772
 10
6.226976394233587
 20
4.707114333454772
 10
6.186355194496421
 20
4.733020710838169
 10
6.184556255650917
 20
4.734148156381894
 10
6.179250629562797
 20
4.737605103379935
 10
6.172543986585784
 20
4.742645448163649
 10
6.165671542793516
 20
4.749119969999307
 10
6.158061285373369
 20
4.758031763819195
 10
6.149166071635007
 20
4.770441954840938
 10
6.13850507921419
 20
4.787312187793006
 10
6.125498005257535
 20
4.809653847648448
 10
6.109581126993175
 20
4.838486609421074
 10
6.090290202138402
 20
4.874830148124693
 10
6.066945447350676
 20
4.919670978610069
 10
6.039148940673386
 20
4.974053646013295
 10
6.006270639008569
 20
5.03894808510361
 10
5.967771689706651
 20
5.115365680854059
 10
5.923154690321869
 20
5.204334398319216
 10
5.871839338000837
 20
5.306832462309079
 10
5.827943572162408
 20
5.394623993985936
 10
5.813328230297791
 20
5.42385467771517
 10
5.480856145510226
 20
6.088790557249537
 10
4.426479021067109
 20
6.088790557249537
 10
4.431652006503025
 20
6.051634594551174
 10
4.432505880701583
 20
6.046693730256612
 10
4.437852956993516
 20
6.013409216594423
 10
4.450180247607632
 20
5.935963655789401
 10
4.467091930763512
 20
5.830671848062512
 10
4.481931103728723
 20
5.73928243869465
 10
4.486929998308623
 20
5.708824828932538
 10
4.536131390235171
 20
5.402267411569133
 10
4.777073134961908
 20
5.397102716173978
 10
4.803916286951488
 20
5.396696504176607
 10
4.884470613042518
 20
5.394574253741359
 10
4.966691237326849
 20
5.39093492584654
 10
5.023179575083798
 20
5.386532914201553
 10
5.047784416067453
 20
5.383291508263341
 10
5.053405063704555
 20
5.381534019621652
 10
5.084617067176072
 20
5.371552810543378
 10
5.172955741543266
 20
5.324689210111907
 10
5.276713891729057
 20
5.239276920133943
 10
5.357351118227714
 20
5.132865956904091
 10
5.399315304568436
 20
5.043988429887324
 10
5.407456124597394
 20
5.01281787661962
 10
5.409346253891287
 20
5.005580671033794
 10
5.410921361636198
 20
4.982642128243439
 10
5.413972096636867
 20
4.923310306504888
 10
5.4165420092733
 20
4.839075202315224
 10
5.418614519463972
 20
4.734007225688929
 10
5.420222787371933
 20
4.612309427292683
 10
5.421399973160234
 20
4.478135117548593
 10
5.422112916665826
 20
4.33565418696029
 10
5.42234503780718
 20
4.18898678578683
 10
5.422112916665826
 20
4.042369124857947
 10
5.421399973160234
 20
3.899879904228881
 10
5.420222787371933
 20
3.765713884525554
 10
5.418614519463972
 20
3.644007796088546
 10
5.4165420092733
 20
3.538948109503012
 10
5.413972096636867
 20
3.454704715272586
 10
5.410921361636198
 20
3.395372893534035
 10
5.409346253891287
 20
3.372442640784442
 10
5.407456124597394
 20
3.365155694954041
 10
5.400616840968178
 20
3.338934296021661
 10
5.367605898651158
 20
3.263461764918159
 10
5.305671004113123
 20
3.170546988049962
 10
5.226376764218021
 20
3.092056882108841
 10
5.158920702532036
 20
3.045325922329574
 10
5.13458943289355
 20
3.033537484365032
 10
5.126896275065777
 20
3.029715775573434
 10
5.103418879625847
 20
3.018930432541178
 10
5.072065945461365
 20
3.005740977687743
 10
5.044087057887295
 20
2.995453037101248
 10
5.028485201171918
 20
2.990595073214314
 10
5.023179575083798
 20
2.989509077874402
 10
5.015088495299416
 20
2.987577498376695
 10
4.989397658975848
 20
2.987403407520679
 10
4.911147964216846
 20
2.985596178634413
 10
4.794788952071769
 20
2.984079101174841
 10
4.64663763360179
 20
2.982852175141964
 10
4.473127080438749
 20
2.981907110495018
 10
4.280483113195428
 20
2.981277067397053
 10
4.075163673625957
 20
2.980870855399682
 10
3.863510642913793
 20
2.980779664951292
 10
3.651849322160867
 20
2.980970335888834
 10
3.44657133279521
 20
2.981417998090019
 10
3.254035136081803
 20
2.982139231636373
 10
3.080508002837238
 20
2.983134036527895
 10
2.932497615060222
 20
2.984344382479247
 10
2.816229793363537
 20
2.985828299775768
 10
2.73815418946055
 20
2.987577498376695
 10
2.712604283829948
 20
2.987710139028898
 10
2.704562944290141
 20
2.989509077874402
  0
LWPOLYLINE
  5
258
330
1128
100
AcDbEntity
  8
0
 62
     0
100
AcDbPolyline
 90
       79
 70
     1
 43
0.0
 10
4.975685931554365
 20
3.3478792500046
 10
4.982293094042226
 20
3.351535157980945
 10
5.001542568693186
 20
3.363762968105909
 10
5.021430376482871
 20
3.380716101465604
 10
5.038068488293585
 20
3.401582134065288
 10
5.050528419559903
 20
3.422058534749124
 10
5.054258937903112
 20
3.429063619193595
 10
5.055834045648023
 20
3.431990003582824
 10
5.059423633298267
 20
3.441382619766948
 10
5.06338627278283
 20
3.461983371062225
 10
5.066262916927483
 20
3.498550740866438
 10
5.068293976914342
 20
3.558736436803546
 10
5.069545773069508
 20
3.650217036619798
 10
5.070275296656623
 20
3.780644247939153
 10
5.070582028164843
 20
3.957669778385573
 10
5.070673218613233
 20
4.131188621589375
 10
5.070673218613233
 20
4.18898678578683
 10
5.070673218613233
 20
4.246818110147335
 10
5.070582028164843
 20
4.420345243391901
 10
5.070275296656623
 20
4.59737077383832
 10
5.069545773069508
 20
4.727806275198438
 10
5.068293976914342
 20
4.81928687501469
 10
5.066262916927483
 20
4.879464280911036
 10
5.06338627278283
 20
4.916031650715249
 10
5.059423633298267
 20
4.936632402010526
 10
5.055834045648023
 20
4.946025018194651
 10
5.054258937903112
 20
4.948909952380065
 10
5.050528419559903
 20
4.955964777069112
 10
5.038068488293585
 20
4.976432887712186
 10
5.021430376482871
 20
4.99729892031187
 10
5.001542568693186
 20
5.014260343712327
 10
4.982293094042226
 20
5.026488153837291
 10
4.975685931554365
 20
5.030094321569059
 10
4.941141331696247
 20
5.048216350676293
 10
3.972267687679485
 20
5.05082771351654
 10
3.002482139178827
 20
5.052535461913654
 10
3.002482139178827
 20
4.916073100919062
 10
3.002482139178827
 20
4.898489924461403
 10
3.00171945542866
 20
4.845732105047662
 10
2.999016902140024
 20
4.793065476082311
 10
2.993711276051904
 20
4.750695077744218
 10
2.98768441641743
 20
4.721149372466001
 10
2.985213984270149
 20
4.711433444692132
 10
2.977205804893394
 20
4.680495012565784
 10
2.941044647086553
 20
4.590672420902069
 10
2.874881831759548
 20
4.478408688893762
 10
2.790870558670477
 20
4.38054475769024
 10
2.719443567459165
 20
4.319604668043728
 10
2.693313358975176
 20
4.30294997615149
 10
2.65621542656215
 20
4.279663251649101
 10
2.658768759117058
 20
3.869472034711345
 10
2.658951140013837
 20
3.837671438345678
 10
2.659680663600954
 20
3.742145298637235
 10
2.6606257282479
 20
3.643701064580326
 10
2.66182778415849
 20
3.569927991833174
 10
2.663411181944163
 20
3.516863440911214
 10
2.665608042746275
 20
3.480337521310815
 10
2.668625617583893
 20
3.456271532976734
 10
2.672588257068457
 20
3.440537035609154
 10
2.676269035167091
 20
3.431849072889858
 10
2.677802692708188
 20
3.429063619193595
 10
2.682834747451139
 20
3.419753903417097
 10
2.70082413590617
 20
3.393225772976499
 10
2.727319106183717
 20
3.36623340025319
 10
2.759484464342943
 20
3.346768384542401
 10
2.789287160884804
 20
3.335742630328027
 10
2.79955023134901
 20
3.33322245793617
 10
2.80318955924383
 20
3.332368583737613
 10
2.826443123583167
 20
3.332003821944055
 10
2.893194531804323
 20
3.330967566848719
 10
2.99542731448978
 20
3.330072242446349
 10
3.128639979505398
 20
3.329359298940758
 10
3.288438805246954
 20
3.328812156250421
 10
3.470463230273274
 20
3.328414234293811
 10
3.670195182368694
 20
3.32813237290788
 10
3.830002298151012
 20
3.328057762541016
 10
3.883298970214327
 20
3.328057762541016
 10
4.941141331696247
 20
3.329757220897367
 10
4.975685931554365
 20
3.3478792500046
  0
LWPOLYLINE
  5
2A9
330
1128
100
AcDbEntity
  8
0
 62
     0
100
AcDbPolyline
 90
       97
 70
     1
 43
0.0
 10
12.39783403675496
 20
3.691592630066369
 10
12.40488057140324
 20
3.695323148409579
 10
12.42535697208708
 20
3.707783079675897
 10
12.44624787480905
 20
3.72442119148661
 10
12.46315955796493
 20
3.744308999276296
 10
12.47534591788608
 20
3.763558473927255
 10
12.47899353582167
 20
3.770165636415117
 10
12.4806515439742
 20
3.773183211252735
 10
12.48504526557842
 20
3.78248463698847
 10
12.48952188759027
 20
3.798011883336983
 10
12.49275500348773
 20
3.822334862934707
 10
12.49491041408602
 20
3.861198574030184
 10
12.49615392020043
 20
3.920248534382804
 10
12.49690002386907
 20
4.005163421915007
 10
12.49714872509195
 20
4.121655074712286
 10
12.49723162549958
 20
4.236928091517449
 10
12.49723162549958
 20
4.275344140411741
 10
12.49723162549958
 20
4.313801639509846
 10
12.49714872509195
 20
4.429074656315009
 10
12.49690002386907
 20
4.545558019071526
 10
12.49615392020043
 20
4.630481196644492
 10
12.49491041408602
 20
4.689531156997113
 10
12.49275500348773
 20
4.72839486809259
 10
12.48952188759027
 20
4.752717847690313
 10
12.48504526557842
 20
4.768245094038826
 10
12.4806515439742
 20
4.77754651977456
 10
12.47899353582167
 20
4.780514354367603
 10
12.47534591788608
 20
4.787171257100041
 10
12.46315955796493
 20
4.806420731751
 10
12.44624787480905
 20
4.826308539540686
 10
12.42535697208708
 20
4.842946651351399
 10
12.40488057140324
 20
4.855406582617718
 10
12.39783403675496
 20
4.859087360716351
 10
12.39484962208039
 20
4.860753658909651
 10
12.38506737398042
 20
4.864301796356081
 10
12.36202106066015
 20
4.868264435840646
 10
12.31957605195519
 20
4.871282010678263
 10
12.24853040261896
 20
4.873478871480376
 10
12.13984796822013
 20
4.875053979225286
 10
11.98432680351213
 20
4.876264325176638
 10
11.77284786365598
 20
4.877209389823586
 10
11.56543104377355
 20
4.877938913410701
 10
11.49629210381274
 20
4.87812129430748
 10
11.44613735719848
 20
4.878295385163496
 10
11.29567311735571
 20
4.878568956508666
 10
11.11843204584946
 20
4.878610406712479
 10
10.96523209255501
 20
4.878295385163496
 10
10.83648775951048
 20
4.877574151617143
 10
10.73277934956926
 20
4.876496446317994
 10
10.65460426517712
 20
4.875053979225286
 10
10.6027086100027
 20
4.873304780624359
 10
10.58364151624852
 20
4.872401166181226
 10
10.57750688608413
 20
4.871190820229874
 10
10.56731013594603
 20
4.869391881384371
 10
10.53763179001561
 20
4.859858334507281
 10
10.50355972248096
 20
4.841321803361912
 10
10.47512488266495
 20
4.81545687618233
 10
10.45705259380229
 20
4.791042706136215
 10
10.45224437015993
 20
4.782222102764717
 10
10.43326017681338
 20
4.745978044550249
 10
10.43326017681338
 20
4.275344140411741
 10
10.43326017681338
 20
4.238461749058547
 10
10.433343077221
 20
4.127822865039725
 10
10.43367467885151
 20
4.014207856387099
 10
10.43433788211253
 20
3.929740631056081
 10
10.43566428863456
 20
3.869472034711345
 10
10.4376538984176
 20
3.828685034158925
 10
10.44055541268454
 20
3.802513375471122
 10
10.44453463225063
 20
3.786041064475663
 10
10.44818225018621
 20
3.77727020134874
 10
10.4496744575235
 20
3.774484747652477
 10
10.45473138238874
 20
3.765166741835217
 10
10.47272077084377
 20
3.738638611394618
 10
10.49924890128437
 20
3.711654528712072
 10
10.53141425944359
 20
3.69218122296052
 10
10.56117550578164
 20
3.681163758786909
 10
10.57145515632737
 20
3.678643586395052
 10
10.57510277426295
 20
3.677789712196495
 10
10.59483307127815
 20
3.677424950402937
 10
10.6514540496873
 20
3.676388695307601
 10
10.73775337402687
 20
3.675485080864468
 10
10.8498347251384
 20
3.674772137358877
 10
10.98405048508631
 20
3.674233284709302
 10
11.136753035935
 20
3.67382707271193
 10
11.30404605852603
 20
3.673553501366762
 10
11.4378473164358
 20
3.673470600959135
 10
11.48253063614668
 20
3.673470600959135
 10
11.55283018181427
 20
3.673603241611338
 10
11.76389461963228
 20
3.674142094260913
 10
11.97885537660875
 20
3.674863327807266
 10
12.13686355354557
 20
3.675858132698789
 10
12.24712109568931
 20
3.67734204999531
 10
12.31907864950943
 20
3.679497460593609
 10
12.36193816025252
 20
3.68246529518665
 10
12.38506737398042
 20
3.686427934671215
 10
12.39484962208039
 20
3.689976072117645
 10
12.39783403675496
 20
3.691592630066369
  0
LWPOLYLINE
  5
30C
330
1128
100
AcDbEntity
  8
0
 62
     0
100
AcDbPolyline
 90
       62
 70
     1
 43
0.0
 10
2.3548227045939
 20
4.543037846679669
 10
2.382801592167969
 20
4.547497888609994
 10
2.46406886176459
 20
4.577847727842193
 10
2.552133964786615
 20
4.641805392326323
 10
2.614922733523207
 20
4.730898460402921
 10
2.644294347945407
 20
4.812862093423607
 10
2.648431078285987
 20
4.840965331609117
 10
2.649110861628528
 20
4.846320697941812
 10
2.649326402688358
 20
4.86260233799973
 10
2.650221727090728
 20
4.911753989681702
 10
2.651075601289285
 20
4.98668766813563
 10
2.651846575080214
 20
5.085496663986097
 10
2.652559518585806
 20
5.206348878224549
 10
2.653197851724532
 20
5.347437081964721
 10
2.653827894822497
 20
5.506929176198057
 10
2.654366747472071
 20
5.682968191793717
 10
2.654864149917833
 20
5.87370544966162
 10
2.655270361915204
 20
6.077366881078554
 10
2.655668283871813
 20
6.292029196587573
 10
2.655933565176219
 20
6.515934907546987
 10
2.65621542656215
 20
6.747202174703669
 10
2.656381227377405
 20
6.983998899049062
 10
2.65652215807037
 20
7.224492981574614
 10
2.65661334851876
 20
7.466819163108719
 10
2.65661334851876
 20
7.7091950848874
 10
2.656571898314946
 20
7.94977206782058
 10
2.656480707866557
 20
8.186659982614362
 10
2.65630661701054
 20
8.418117920708585
 10
2.656024755624609
 20
8.64223917272783
 10
2.655759474320203
 20
8.857191639663544
 10
2.655394712526644
 20
9.061126642425645
 10
2.654947050325459
 20
9.252294982413208
 10
2.654449647879698
 20
9.42870704984319
 10
2.653919085270886
 20
9.58870483656305
 10
2.653330492376735
 20
9.730298732789745
 10
2.652609258830382
 20
9.85174782996311
 10
2.651896315324791
 20
9.951228319115355
 10
2.651075601289285
 20
10.02683349087106
 10
2.650180276886914
 20
10.07673953626244
 10
2.649914995582509
 20
10.09356831901069
 10
2.649276662443782
 20
10.09912264632169
 10
2.645546144100573
 20
10.12739168532245
 10
2.615867798170153
 20
10.20971179009594
 10
2.55069978773467
 20
10.30040483603974
 10
2.459434728978248
 20
10.3653987556192
 10
2.376368520536123
 20
10.39507710154962
 10
2.347892230516293
 20
10.3987247194852
 10
2.3398923411803
 20
10.3996366239691
 10
2.285385323165633
 20
10.40129463212164
 10
2.158141487499149
 20
10.40361584353519
 10
1.984581194091533
 20
10.40543965250298
 10
1.833503491232324
 20
10.40635155698687
 10
1.783174653762051
 20
10.40651735780213
 10
1.275390589953714
 20
10.40651735780213
 10
1.275390589953714
 20
4.534407914245712
 10
1.78749376499941
 20
4.534407914245712
 10
1.840608056165947
 20
4.534407914245712
 10
1.999959219706317
 20
4.535037957343677
 10
2.17279827956758
 20
4.536787155944603
 10
2.294827679594333
 20
4.539531159437053
 10
2.346375153056722
 20
4.541786050524504
 10
2.3548227045939
 20
4.543037846679669
  0
LWPOLYLINE
  5
34C
330
1128
100
AcDbEntity
  8
0
 62
     0
100
AcDbPolyline
 90
       31
 70
     1
 43
0.0
 10
14.40128818787354
 20
5.61383754187367
 10
14.40128818787354
 20
5.668037828380117
 10
14.40120528746591
 20
5.83057236757336
 10
14.40079078542778
 20
6.032791331897585
 10
14.40029338298202
 20
6.216117293323648
 10
14.39971308012863
 20
6.376048759717406
 10
14.39888407605236
 20
6.508192009474638
 10
14.39797217156847
 20
6.608045550461203
 10
14.39706026708457
 20
6.671232241154405
 10
14.39631416341593
 20
6.693267169501627
 10
14.39614836260067
 20
6.693267169501627
 10
14.39233494384984
 20
6.693267169501627
 10
14.38089468759733
 20
6.688906608060454
 10
14.34450140864913
 20
6.67689433899532
 10
14.29210835102895
 20
6.659037591192492
 10
14.24502091949689
 20
6.642664760686185
 10
14.22935274245541
 20
6.637143593538235
 10
14.21186075644614
 20
6.631116733903761
 10
14.1593018980107
 20
6.613351176549323
 10
14.07913720383552
 20
6.586856206271776
 10
13.99292077990357
 20
6.558927058942283
 10
13.90479764659621
 20
6.53081553071601
 10
13.81866412307189
 20
6.503831448033464
 10
13.73874813011959
 20
6.479176866805233
 10
13.66911178771302
 20
6.45812845330877
 10
13.62757868349196
 20
6.445950383428383
 10
13.61373431541827
 20
6.441987743943819
 10
13.53771464162443
 20
6.421254351996339
 10
13.53771464162443
 20
4.534407914245712
 10
14.40128818787354
 20
4.534407914245712
 10
14.40128818787354
 20
5.61383754187367
  0
LWPOLYLINE
  5
36D
330
1128
100
AcDbEntity
  8
0
 62
     0
100
AcDbPolyline
 90
      130
 70
     1
 43
0.0
 10
9.294291476427802
 20
5.720074414247504
 10
9.344694924264939
 20
5.753707109621726
 10
9.496236869406857
 20
5.854596905703628
 10
9.686078802872391
 20
5.981028317375367
 10
9.859672256443059
 20
6.096475425036547
 10
10.01262350851463
 20
6.19816935507243
 10
10.14078753870578
 20
6.283225173297599
 10
10.23993642622752
 20
6.348749655485878
 10
10.30567644947562
 20
6.391973928022528
 10
10.32855696198064
 20
6.406995481884517
 10
10.33402838888401
 20
6.410004766681372
 10
10.37282577965339
 20
6.432503937311305
 10
11.03776994922852
 20
6.436823048548665
 10
11.09190391540886
 20
6.437179520301461
 10
11.25422291354228
 20
6.438481056701202
 10
11.42731896466718
 20
6.440321445750518
 10
11.5655968445888
 20
6.442700687449411
 10
11.67742949447745
 20
6.445900643183808
 10
11.77143855672632
 20
6.450219754421167
 10
11.85599697250573
 20
6.456022782955048
 10
11.93964348380124
 20
6.463533559886042
 10
12.00803632009341
 20
6.470588384575089
 10
12.0308339321908
 20
6.473067106763133
 10
12.08190058328895
 20
6.478687754400235
 10
12.23452023373002
 20
6.49937140610314
 10
12.45113899885904
 20
6.534554339099983
 10
12.67812031494141
 20
6.577944412451886
 10
12.91314297056358
 20
6.629185154406056
 10
13.15396865471964
 20
6.687555331416135
 10
13.3981932555884
 20
6.752632151403229
 10
13.64341266134869
 20
6.823793861310135
 10
13.8267054626117
 20
6.880680121023693
 10
13.88755436180982
 20
6.900518188568803
 10
13.91996842119193
 20
6.911228921234195
 10
14.017044798523
 20
6.94438079424418
 10
14.16062830453274
 20
6.994568701021488
 10
14.29252285306709
 20
7.042012604306346
 10
14.36431460607196
 20
7.068731405684487
 10
14.38669771613121
 20
7.077552009055985
 10
14.38794122224561
 20
7.078132311909374
 10
14.39125723855069
 20
7.081323977603008
 10
14.39473905567102
 20
7.090641983420269
 10
14.39722606789982
 20
7.109211674728687
 10
14.39888407605236
 20
7.140829890197576
 10
14.39987888094388
 20
7.189177407925567
 10
14.40029338298202
 20
7.257993036296632
 10
14.40004468175914
 20
7.35109848410237
 10
14.39971308012863
 20
7.441940750779896
 10
14.39954727931338
 20
7.472166239400653
 10
14.39706026708457
 20
7.861673804635504
 10
14.29766267833995
 20
7.898771737048529
 10
14.23581897425031
 20
7.922290582692272
 10
14.04896145545934
 20
7.989041990913429
 10
13.78964898040249
 20
8.075084323989358
 10
13.52395317395837
 20
8.155854191140218
 10
13.25601905650832
 20
8.230199276699995
 10
12.98999164843369
 20
8.296992135124963
 10
12.73034757174634
 20
8.355146771075214
 10
12.48123184682759
 20
8.403585479251596
 10
12.30548298265862
 20
8.432865903225405
 10
12.24670659365117
 20
8.441097913702754
 10
12.21230292448602
 20
8.44595587758969
 10
12.10884321576768
 20
8.459269683054563
 10
11.97661706560283
 20
8.473843574715367
 10
11.8423184052473
 20
8.485176060437961
 10
11.69848619801467
 20
8.493673352219716
 10
11.5374936064033
 20
8.49970021185419
 10
11.35187959372673
 20
8.50365456129799
 10
11.13393442207569
 20
8.505868002181629
 10
10.94069357189745
 20
8.50667213613561
 10
10.87627995517137
 20
8.506713586339423
 10
10.36851495845679
 20
8.506713586339423
 10
9.710534423122319
 20
8.945397673378533
 10
9.675467550696151
 20
8.968775588329311
 10
9.570266933417653
 20
9.038909333181643
 10
9.424528016809614
 20
9.135902810105083
 10
9.277545594087172
 20
9.233808191512416
 10
9.13352271591701
 20
9.329723963136704
 10
8.996745333373436
 20
9.420748610711009
 10
8.871482817449234
 20
9.503980619968388
 10
8.761979669014902
 20
9.576850078272408
 10
8.69487178904095
 20
9.621450497575665
 10
8.672513549103982
 20
9.636289670540872
 10
8.292556110827746
 20
9.888389810134186
 10
6.396217576403844
 20
9.888389810134186
 10
6.063753781657041
 20
9.223445640559056
 10
6.049096989588611
 20
9.194264697074399
 10
6.00519293370942
 20
9.106473165397542
 10
5.953877581388388
 20
9.003925361163105
 10
5.909260582003606
 20
8.91497322377947
 10
5.870753342660924
 20
8.83854733798826
 10
5.83788333103687
 20
8.773652898897947
 10
5.810086824359581
 20
8.719278521535482
 10
5.786742069571853
 20
8.674429401009345
 10
5.76745114471708
 20
8.638094152346486
 10
5.751525976411959
 20
8.60926139057386
 10
5.738527192496065
 20
8.586911440677657
 10
5.727866200075249
 20
8.570041207725588
 10
5.718970986336886
 20
8.557631016703846
 10
5.711369018957503
 20
8.548719222883957
 10
5.70447999508371
 20
8.542244701048297
 10
5.697781642147458
 20
8.537204356264585
 10
5.692476016059338
 20
8.533747409266544
 10
5.690726817458412
 20
8.53261996372282
 10
5.650105617721245
 20
8.506713586339423
 10
3.002482139178827
 20
8.506713586339423
 10
3.002482139178827
 20
6.434203395667656
 10
5.650105617721245
 20
6.434203395667656
 10
5.690726817458412
 20
6.408297018284259
 10
5.692476016059338
 20
6.407219312985109
 10
5.697781642147458
 20
6.403754075946306
 10
5.70447999508371
 20
6.398722021203356
 10
5.711369018957503
 20
6.392239209326934
 10
5.718970986336886
 20
6.383335705547807
 10
5.727866200075249
 20
6.370925514526065
 10
5.738527192496065
 20
6.354055281573998
 10
5.751525976411959
 20
6.331705331677793
 10
5.76745114471708
 20
6.302880859945931
 10
5.786742069571853
 20
6.26653732124231
 10
5.810086824359581
 20
6.221696490756936
 10
5.83788333103687
 20
6.167313823353708
 10
5.870753342660924
 20
6.102419384263395
 10
5.909260582003606
 20
6.026001788512945
 10
5.953877581388388
 20
5.937033071047787
 10
6.00519293370942
 20
5.834535007057924
 10
6.049096989588611
 20
5.746743475381068
 10
6.063753781657041
 20
5.717463051407258
 10
6.396217576403844
 20
5.052535461913654
 10
8.29340169498554
 20
5.052535461913654
 10
9.294291476427802
 20
5.720074414247504
  0
LWPOLYLINE
  5
3F1
330
1128
100
AcDbEntity
  8
0
 62
     0
100
AcDbPolyline
 90
       36
 70
     1
 43
0.0
 10
11.77608097955343
 20
5.23649146643768
 10
11.77608097955343
 20
5.245701701725025
 10
11.77143855672632
 20
5.273373857790874
 10
11.75908639598992
 20
5.363503180962808
 10
11.74151150957302
 20
5.489702471493193
 10
11.72103510888919
 20
5.634794764921742
 10
11.70022710657484
 20
5.781553356543591
 10
11.68140871404354
 20
5.912892472346843
 10
11.66698404311646
 20
6.01151908730053
 10
11.66167841702834
 20
6.048227387797709
 10
11.65952300643005
 20
6.06026452698513
 10
11.65438318115718
 20
6.088790557249537
 10
11.27610862115577
 20
6.088790557249537
 10
11.2709687958829
 20
6.06026452698513
 10
11.26881338528461
 20
6.048227387797709
 10
11.26342485878886
 20
6.01151908730053
 10
11.24908308826941
 20
5.912892472346843
 10
11.23026469573811
 20
5.781553356543591
 10
11.20937379301614
 20
5.634794764921742
 10
11.18898029273993
 20
5.489702471493193
 10
11.17132250591541
 20
5.363503180962808
 10
11.158970345179
 20
5.273373857790874
 10
11.1543279223519
 20
5.245701701725025
 10
11.1543279223519
 20
5.23649146643768
 10
11.1543279223519
 20
5.2351318997526
 10
11.16767488797982
 20
5.23109464990117
 10
11.21592292521866
 20
5.227629412862368
 10
11.31100969276668
 20
5.225830474016864
 10
11.42665576140617
 20
5.225241881122713
 10
11.46520445095266
 20
5.225241881122713
 10
11.50375314049916
 20
5.225241881122713
 10
11.61948210954627
 20
5.225830474016864
 10
11.71456887709429
 20
5.227629412862368
 10
11.7627340139255
 20
5.23109464990117
 10
11.77608097955343
 20
5.2351318997526
 10
11.77608097955343
 20
5.23649146643768
  0
LWPOLYLINE
  5
417
330
1128
100
AcDbEntity
  8
0
 62
     0
100
AcDbPolyline
 90
       18
 70
     1
 43
0.0
 10
4.173442106867611
 20
5.421243314874924
 10
4.172770613565834
 20
5.424708551913727
 10
4.167730268782121
 20
5.454668759230078
 10
4.155858930409952
 20
5.527173455740539
 10
4.139527550107459
 20
5.628320243086084
 10
4.125401320647841
 20
5.717869263404629
 10
4.120775477902261
 20
5.747688540028014
 10
4.116141345115919
 20
5.777366885958434
 10
4.102106306104689
 20
5.866385343668168
 10
4.086098237391941
 20
5.966587066366767
 10
4.074492180324179
 20
6.037699036029096
 10
4.069592766233431
 20
6.066349416904942
 10
4.068962723135467
 20
6.068902749459851
 10
4.064643611898107
 20
6.088790557249537
 10
3.002482139178827
 20
6.088790557249537
 10
3.002482139178827
 20
5.397948300331773
 10
4.178606802262766
 20
5.397948300331773
 10
4.173442106867611
 20
5.421243314874924
  0
LWPOLYLINE
  5
42B
330
1128
100
AcDbEntity
  8
0
 62
     0
100
AcDbPolyline
 90
       28
 70
     1
 43
0.0
 10
14.40128818787354
 20
9.327071150092646
 10
14.40128818787354
 20
10.40651735780213
 10
13.53771464162443
 20
10.40651735780213
 10
13.53945555018459
 20
9.46443712553037
 10
13.54210836322865
 20
8.522282282891748
 10
13.72772237590522
 20
8.467858165284706
 10
13.75043708759498
 20
8.461159812348455
 10
13.81841542184901
 20
8.440111398851993
 10
13.92867296399275
 20
8.405160586996505
 10
14.04398743100173
 20
8.367465771648568
 10
14.12415212517691
 20
8.34057287941441
 10
14.15084605643277
 20
8.331395804290116
 10
14.17397527016066
 20
8.323437365157936
 10
14.24344581175198
 20
8.299653238209787
 10
14.32037739002972
 20
8.27346499944046
 10
14.37351655131854
 20
8.255525351230002
 10
14.39415875281763
 20
8.248735807845364
 10
14.3953193585244
 20
8.248503686704009
 10
14.3953193585244
 20
8.248503686704009
 10
14.39647996423118
 20
8.270281623787588
 10
14.39764056993796
 20
8.333153292931804
 10
14.39863537482948
 20
8.432774712777015
 10
14.39954727931338
 20
8.564685841392894
 10
14.40029338298202
 20
8.724534407379025
 10
14.40079078542778
 20
8.90784378872356
 10
14.40120528746591
 20
9.110120783333127
 10
14.40128818787354
 20
9.272854283504671
 10
14.40128818787354
 20
9.327071150092646
  0
LWPOLYLINE
  5
449
330
1128
100
AcDbEntity
  8
0
 62
     0
100
AcDbPolyline
 90
       18
 70
     1
 43
0.0
 10
4.068962723135467
 20
8.871118908144858
 10
4.069592766233431
 20
8.873937522004173
 10
4.074492180324179
 20
8.90278686385832
 10
4.086098237391941
 20
8.973915413602178
 10
4.102106306104689
 20
9.074142006423063
 10
4.116141345115919
 20
9.163508645844832
 10
4.120775477902261
 20
9.193269892182876
 10
4.125401320647841
 20
9.223031138520923
 10
4.139527550107459
 20
9.312231977127436
 10
4.155858930409952
 20
9.413370474432217
 10
4.167730268782121
 20
9.485742530290477
 10
4.172770613565834
 20
9.515503776628524
 10
4.173442106867611
 20
9.518736892525972
 10
4.178606802262766
 20
9.542943811553016
 10
3.002482139178827
 20
9.542943811553016
 10
3.002482139178827
 20
8.852134714798304
 10
4.064643611898107
 20
8.852134714798304
 10
4.068962723135467
 20
8.871118908144858
  0
LWPOLYLINE
  5
45D
330
1128
100
AcDbEntity
  8
0
 62
     0
100
AcDbPolyline
 90
       36
 70
     1
 43
0.0
 10
11.65952300643005
 20
8.879740550538052
 10
11.66167841702834
 20
8.892009810866828
 10
11.66698404311646
 20
8.928900492260784
 10
11.68140871404354
 20
9.027717778152017
 10
11.70022710657484
 20
9.159197824648231
 10
11.72103510888919
 20
9.306097346963046
 10
11.74151150957302
 20
9.451255960717699
 10
11.75908639598992
 20
9.577430381125794
 10
11.77143855672632
 20
9.667626024623832
 10
11.77608097955343
 20
9.695231860363577
 10
11.77608097955343
 20
9.704433805610162
 10
11.77608097955343
 20
9.705843112539817
 10
11.7627340139255
 20
9.709905232513535
 10
11.71456887709429
 20
9.713304149226236
 10
11.61948210954627
 20
9.715127958194028
 10
11.50375314049916
 20
9.715708261047414
 10
11.46520445095266
 20
9.715708261047414
 10
11.42665576140617
 20
9.715708261047414
 10
11.31100969276668
 20
9.715127958194028
 10
11.21592292521866
 20
9.713304149226236
 10
11.16767488797982
 20
9.709905232513535
 10
11.1543279223519
 20
9.705843112539817
 10
11.1543279223519
 20
9.704433805610162
 10
11.1543279223519
 20
9.695231860363577
 10
11.158970345179
 20
9.667626024623832
 10
11.17132250591541
 20
9.577430381125794
 10
11.18898029273993
 20
9.451255960717699
 10
11.20937379301614
 20
9.306097346963046
 10
11.23026469573811
 20
9.159197824648231
 10
11.24908308826941
 20
9.027717778152017
 10
11.26342485878886
 20
8.928900492260784
 10
11.26881338528461
 20
8.892009810866828
 10
11.2709687958829
 20
8.879740550538052
 10
11.27610862115577
 20
8.852134714798304
 10
11.65438318115718
 20
8.852134714798304
 10
11.65952300643005
 20
8.879740550538052
  0
LWPOLYLINE
  5
483
330
1128
100
AcDbEntity
  8
0
 62
     0
100
AcDbPolyline
 90
       83
 70
     1
 43
0.0
 10
4.971366820317004
 20
9.909114912040906
 10
4.978380194802238
 20
9.912845430384113
 10
4.998848305445312
 20
9.925280491528145
 10
5.019714338044995
 20
9.941943473461144
 10
5.036675761445453
 20
9.961839571291595
 10
5.048903571570417
 20
9.981072465861029
 10
5.052551189505999
 20
9.987704498471178
 10
5.054167747454723
 20
9.990854713961
 10
5.058528308895895
 20
10.00063696206097
 10
5.063029801030035
 20
10.01912375296176
 10
5.066354107375873
 20
10.05153781234387
 10
5.06869189887095
 20
10.10650078260048
 10
5.070316746860438
 20
10.1923027044943
 10
5.071477352567213
 20
10.31756522041849
 10
5.072380967010346
 20
10.4906612715434
 10
5.073060750352886
 20
10.66267961736916
 10
5.073284581453479
 20
10.72004669944695
 10
5.073549862757885
 20
10.79573477161028
 10
5.073740533695427
 20
11.02271608769266
 10
5.07270427860009
 20
11.25077510907418
 10
5.070175816167471
 20
11.39991294239492
 10
5.067846314713157
 20
11.45835772977186
 10
5.066354107375873
 20
11.46606746768116
 10
5.064513718326556
 20
11.47634711822689
 10
5.054980171449466
 20
11.50643996619545
 10
5.036443640304098
 20
11.5408436353606
 10
5.010587003165277
 20
11.56936137558424
 10
4.986164543078401
 20
11.5874336644469
 10
4.977385389910715
 20
11.59215898768163
 10
4.941141331696247
 20
11.61114318102819
 10
3.897101888084201
 20
11.61379599407224
 10
3.836161798437689
 20
11.6139617948875
 10
3.653333239457388
 20
11.61421049611038
 10
3.439831529655145
 20
11.61429339651801
 10
3.256638208881287
 20
11.6139617948875
 10
3.104126328970132
 20
11.61321569121886
 10
2.9824699807777
 20
11.61213798591971
 10
2.891843255160005
 20
11.61072867899005
 10
2.832511433421454
 20
11.60898777042989
 10
2.811512760169567
 20
11.60815876635362
 10
2.804714926744164
 20
11.60683235983159
 10
2.794601077013686
 20
11.6050085508638
 10
2.765096821939283
 20
11.59522630276383
 10
2.730776053181758
 20
11.57599340819439
 10
2.702084222102099
 20
11.54929947693854
 10
2.684144573891643
 20
11.52434645424285
 10
2.679502151064538
 20
11.51531030981153
 10
2.677935333360391
 20
11.51232589513696
 10
2.673748862775234
 20
11.50304104948275
 10
2.669338561089484
 20
11.4877873744794
 10
2.666005964702884
 20
11.46474106115913
 10
2.663626723003993
 20
11.42942548751008
 10
2.661918974606879
 20
11.3770324298899
 10
2.660667178451714
 20
11.30308526628674
 10
2.659680663600954
 20
11.20269287265059
 10
2.658951140013837
 20
11.1042900887975
 10
2.658768759117058
 20
11.07146152737726
 10
2.65621542656215
 20
10.6612703104395
 10
2.693313358975176
 20
10.63797529589635
 10
2.719443567459165
 20
10.62139521437098
 10
2.790870558670477
 20
10.56046341476523
 10
2.874881831759548
 20
10.46255803335789
 10
2.941044647086553
 20
10.35031088143111
 10
2.977205804893394
 20
10.26044683956358
 10
2.985213984270149
 20
10.22952498751876
 10
2.98768441641743
 20
10.21982563982642
 10
2.993711276051904
 20
10.19031309471125
 10
2.999016902140024
 20
10.14786808600629
 10
3.00171945542866
 20
10.09522632716323
 10
3.002482139178827
 20
10.04250166791254
 10
3.002482139178827
 20
10.02484388108802
 10
3.002482139178827
 20
9.888389810134186
 10
3.972267687679485
 20
9.890130718694351
 10
4.049215846038747
 20
9.890296519509604
 10
4.280217831891021
 20
9.891042623178247
 10
4.515480898695317
 20
9.891954527662143
 10
4.688145867700563
 20
9.893198033776546
 10
4.808550419737831
 20
9.894773141521455
 10
4.886858144782172
 20
9.897011452527384
 10
4.933265792971695
 20
9.899995867201948
 10
4.958011564648316
 20
9.903975086768039
 10
4.968224894867945
 20
9.907456903888367
 10
4.971366820317004
 20
9.909114912040906
  0
LWPOLYLINE
  5
4D8
330
1128
100
AcDbEntity
  8
0
 62
     0
100
AcDbPolyline
 90
       93
 70
     1
 43
0.0
 10
12.39783403675496
 20
10.08179646112768
 10
12.40488057140324
 20
10.08552697947088
 10
12.42535697208708
 20
10.09804494102254
 10
12.44624787480905
 20
10.11462502254792
 10
12.46315955796493
 20
10.13452112037837
 10
12.47534591788608
 20
10.15383691535543
 10
12.47899353582167
 20
10.16038604755795
 10
12.4806515439742
 20
10.16345336264014
 10
12.48504526557842
 20
10.17282110870198
 10
12.48952188759027
 20
10.18824058452058
 10
12.49283790389535
 20
10.21178430028661
 10
12.4951591153089
 20
10.24859208127294
 10
12.49673422305381
 20
10.30396955356769
 10
12.49806062957584
 20
10.3829736420361
 10
12.49880673324449
 20
10.49090997276628
 10
12.49955283691313
 20
10.59727119575156
 10
12.49971863772838
 20
10.63275257021586
 10
12.50013313976651
 20
10.68025450378606
 10
12.50021604017414
 20
10.82267740408902
 10
12.49930413569025
 20
10.96990852803434
 10
12.49698292427669
 20
11.07030092167048
 10
12.49491041408602
 20
11.11224852792968
 10
12.49366690797162
 20
11.11979246502372
 10
12.49167729818857
 20
11.13023791638471
 10
12.48181214968098
 20
11.16066236598377
 10
12.46299375714968
 20
11.19523183596418
 10
12.43704592956247
 20
11.22391537700307
 10
12.41267320972017
 20
11.24198766586573
 10
12.40388576651172
 20
11.24679588950809
 10
12.36765828837878
 20
11.26578008285464
 10
11.49629210381274
 20
11.26834999549108
 10
11.44555705434509
 20
11.26851579630633
 10
11.29343480634979
 20
11.26884739793684
 10
11.11519892995202
 20
11.26884739793684
 10
10.96175027543468
 20
11.26851579630633
 10
10.83342044442828
 20
11.26785259304532
 10
10.73045813815571
 20
11.26677488774616
 10
10.65319495824746
 20
11.26528268040888
 10
10.6017967055188
 20
11.26354177184872
 10
10.58281251217225
 20
11.26262986736482
 10
10.57659498160024
 20
11.26146926165805
 10
10.56648113186976
 20
11.25956255228263
 10
10.53705148716222
 20
11.24986320459028
 10
10.50264781799707
 20
11.23054740961322
 10
10.47396427695817
 20
11.203936378765
 10
10.45605778891077
 20
11.17898335606931
 10
10.45141536608366
 20
11.16986431123035
 10
10.44984025833875
 20
11.16696279696341
 10
10.44569523795741
 20
11.1576779513092
 10
10.44130151635318
 20
11.14184397345247
 10
10.43806840045573
 20
11.11705675157204
 10
10.43583008944981
 20
11.07767905794927
 10
10.43450368292778
 20
11.01840526649606
 10
10.43367467885151
 20
10.93359814949377
 10
10.433343077221
 20
10.81786918044666
 10
10.43326017681338
 20
10.70371531914446
 10
10.43326017681338
 20
10.6655811316361
 10
10.43326017681338
 20
10.62869045024214
 10
10.433343077221
 20
10.5181013064679
 10
10.43367467885151
 20
10.40444484761146
 10
10.43433788211253
 20
10.31996933223968
 10
10.43566428863456
 20
10.25970073589494
 10
10.4376538984176
 20
10.21891373534252
 10
10.44055541268454
 20
10.19271720653243
 10
10.44453463225063
 20
10.17630292582231
 10
10.44818225018621
 20
10.16751548261386
 10
10.4496744575235
 20
10.16469686875455
 10
10.45473138238874
 20
10.15541202310034
 10
10.47272077084377
 20
10.12888389265974
 10
10.49924890128437
 20
10.10185835977338
 10
10.53141425944359
 20
10.08245966438869
 10
10.56117550578164
 20
10.07143391017432
 10
10.57145515632737
 20
10.06886399753789
 10
10.57510277426295
 20
10.06803499346162
 10
10.59483307127815
 20
10.06770339183111
 10
10.6514540496873
 20
10.06662568653196
 10
10.73775337402687
 20
10.06571378204806
 10
10.8498347251384
 20
10.06505057878705
 10
10.98405048508631
 20
10.06447027593366
 10
11.136753035935
 20
10.06405577389553
 10
11.30404605852603
 20
10.06380707267265
 10
11.4378473164358
 20
10.06372417226502
 10
11.48253063614668
 20
10.06372417226502
 10
11.55283018181427
 20
10.06380707267265
 10
11.76389461963228
 20
10.06438737552604
 10
11.97885537660875
 20
10.06513347919467
 10
12.13686355354557
 20
10.0661282840862
 10
12.24712109568931
 20
10.06762049142348
 10
12.31907864950943
 20
10.06977590202178
 10
12.36193816025252
 20
10.07267741628872
 10
12.38506737398042
 20
10.07665663585481
 10
12.39484962208039
 20
10.08022135338276
 10
12.39783403675496
 20
10.08179646112768
  0
LWPOLYLINE
  5
537
330
1128
100
AcDbEntity
  8
0
 62
     0
100
AcDbPolyline
 90
       62
 70
     1
 43
0.0
 10
6.882420177094677
 20
6.45664453601225
 10
6.877189161373422
 20
6.459711851094443
 10
6.849807156734267
 20
6.482783034537002
 10
6.826686233047132
 20
6.510223069461496
 10
6.823676948250276
 20
6.51538776485665
 10
6.802081392063477
 20
6.552485697269675
 10
6.802081392063477
 20
8.388431284737402
 10
6.823676948250276
 20
8.425529217150427
 10
6.826910064147724
 20
8.431158154828292
 10
6.849890057141893
 20
8.458913211301768
 10
6.877653403656132
 20
8.481893204295936
 10
6.883265761252471
 20
8.485126320193384
 10
6.920363693665496
 20
8.506713586339423
 10
7.6068868393459
 20
8.506713586339423
 10
7.66837407168275
 20
8.506713586339423
 10
7.852868928856351
 20
8.506622395891032
 10
8.0405969019274
 20
8.505868002181629
 10
8.180168028207998
 20
8.50401932309155
 10
8.281530356613374
 20
8.500462895604356
 10
8.354797736874001
 20
8.494751057518865
 10
8.410075728679598
 20
8.486336666144737
 10
8.457353831149202
 20
8.474697448913926
 10
8.494402023317651
 20
8.463232322539127
 10
8.50673760397253
 20
8.459219942809987
 10
8.53826462899303
 20
8.448965162386543
 10
8.630184600969702
 20
8.409885910231237
 10
8.745291816959613
 20
8.345613224198123
 10
8.850890356194721
 20
8.267570780458188
 10
8.945794742845962
 20
8.177084985533458
 10
9.028902401491901
 20
8.075299865049187
 10
9.099069306507282
 20
7.96353353548664
 10
9.155060241818472
 20
7.84299634279717
 10
9.187714712382697
 20
7.747428752884914
 10
9.195814082207843
 20
7.714865472769079
 10
9.203780811380785
 20
7.683330157707816
 10
9.21474853530982
 20
7.585366746015144
 10
9.214068751967279
 20
7.436817505588555
 10
9.194736376908693
 20
7.283045539481472
 10
9.169642423520038
 20
7.17339317031341
 10
9.157862275596258
 20
7.137994696256737
 10
9.148278988474594
 20
7.109476956033093
 10
9.112971704866307
 20
7.0261371762458
 10
9.05607715511199
 20
6.921027749415691
 10
8.988065660694904
 20
6.823611480413356
 10
8.909857416139715
 20
6.734825143844978
 10
8.822422356215654
 20
6.655663544602078
 10
8.726581194958229
 20
6.587080037372368
 10
8.623361897422011
 20
6.529920206313641
 10
8.541588935338865
 20
6.49465437290917
 10
8.513610047764796
 20
6.485170566276656
 10
8.500934575438649
 20
6.480851455039295
 10
8.462783807848762
 20
6.468391523772977
 10
8.414792761873567
 20
6.455699471365303
 10
8.359249488763565
 20
6.446663326933974
 10
8.285849467850735
 20
6.440595017095688
 10
8.184163827855613
 20
6.436897658915528
 10
8.043888048110185
 20
6.435015819662399
 10
7.854618127457276
 20
6.434344326360621
 10
7.668150240582158
 20
6.434203395667656
 10
7.606032965147343
 20
6.434203395667656
 10
6.918664235309145
 20
6.434203395667656
 10
6.882420177094677
 20
6.45664453601225
  0
LWPOLYLINE
  5
577
330
1128
100
AcDbEntity
  8
0
 62
     0
100
AcDbPolyline
 90
       48
 70
     1
 43
0.0
 10
8.343514991395985
 20
6.802919538669689
 10
8.358760376358566
 20
6.807064559051032
 10
8.404148349534278
 20
6.820958667369295
 10
8.455637792711325
 20
6.840614354017626
 10
8.504399812477452
 20
6.865036814104503
 10
8.543926726833945
 20
6.888696590441212
 10
8.556784580056872
 20
6.89705295153
 10
8.592365435010324
 20
6.92013242501332
 10
8.687800384270378
 20
7.006837961350264
 10
8.784868471560682
 20
7.142363547738674
 10
8.845178518109229
 20
7.298556205748461
 10
8.865961650301285
 20
7.42751607985282
 10
8.865961650301285
 20
7.470458491003539
 10
8.865961650301285
 20
7.496182487490157
 10
8.859752409770032
 20
7.573371057031537
 10
8.840362004426108
 20
7.6670485176499
 10
8.806546928155107
 20
7.755743663769889
 10
8.770833432549452
 20
7.822445331746469
 10
8.757163155331781
 20
7.843493745242932
 10
8.739704329485562
 20
7.870477827925479
 10
8.677330062787105
 20
7.944872653729831
 10
8.581173879980696
 20
8.028204143476362
 10
8.469813762415523
 20
8.092568019957863
 10
8.376434743264614
 20
8.128778918009282
 10
8.344368865594541
 20
8.137093828894256
 10
8.338300555756254
 20
8.138668936639167
 10
8.319946405507665
 20
8.142855407224324
 10
8.292954032784355
 20
8.147307159113886
 10
8.256801165018278
 20
8.150639755500487
 10
8.205038150496058
 20
8.15311018764777
 10
8.13109098689289
 20
8.154909126493271
 10
8.02850173245464
 20
8.156301853341404
 10
7.890787575304881
 20
8.157520489333518
 10
7.756256793807996
 20
8.158415813735887
 10
7.711424253363383
 20
8.158681095040293
 10
7.147502520522359
 20
8.163000206277655
 10
7.147502520522359
 20
6.778770649927981
 10
7.711424253363383
 20
6.782235886966784
 10
7.756165603359605
 20
6.782459718067376
 10
7.89050571391895
 20
6.783180951613731
 10
8.02813697066108
 20
6.784126016260677
 10
8.130643324691707
 20
6.785377812415843
 10
8.204590488294876
 20
6.787085560812956
 10
8.256353502817092
 20
6.789464802511847
 10
8.292456630338595
 20
6.79280568893921
 10
8.319357812613514
 20
6.797207700584197
 10
8.33748813176151
 20
6.801394171169354
 10
8.343514991395985
 20
6.802919538669689
  0
LWPOLYLINE
  5
5A9
330
1128
100
AcDbEntity
  8
0
 62
     0
100
AcDbPolyline
 90
       43
 70
     1
 43
0.0
 10
5.500743953299912
 20
6.629359245262072
 10
5.491243566585873
 20
6.635021343102987
 10
5.465569310343831
 20
6.65674953994199
 10
5.440467066914414
 20
6.690929378006549
 10
5.425404062848612
 20
6.731865599292697
 10
5.420413458309475
 20
6.767711735550556
 10
5.420413458309475
 20
6.779624524126538
 10
5.420413458309475
 20
6.789108330759052
 10
5.423472483350905
 20
6.817584620778882
 10
5.432417437333846
 20
6.851449437294458
 10
5.447041069239225
 20
6.880961982409624
 10
5.466912296947386
 20
6.905832104697685
 10
5.491782419235448
 20
6.925711622446609
 10
5.521294964350614
 20
6.940326964311227
 10
5.55515978086619
 20
6.949271918294166
 10
5.58363607088602
 20
6.952330943335597
 10
5.593119877518534
 20
6.952330943335597
 10
5.602562233947235
 20
6.952330943335597
 10
5.631038523967066
 20
6.949271918294166
 10
5.664895050441879
 20
6.940326964311227
 10
5.694407595557045
 20
6.925711622446609
 10
5.719277717845106
 20
6.905832104697685
 10
5.739165525634792
 20
6.880961982409624
 10
5.753772577458647
 20
6.851449437294458
 10
5.762717531441586
 20
6.817584620778882
 10
5.765826296727594
 20
6.789108330759052
 10
5.765826296727594
 20
6.779624524126538
 10
5.765826296727594
 20
6.770182167697838
 10
5.762717531441586
 20
6.741705877678007
 10
5.753731127254833
 20
6.707849351203193
 10
5.739115785390217
 20
6.678336806088027
 10
5.719186527396716
 20
6.653466683799966
 10
5.694225214660265
 20
6.633578876010279
 10
5.664538578689084
 20
6.618971824186425
 10
5.630449931072913
 20
6.610026870203486
 10
5.601799550197067
 20
6.606918104917478
 10
5.592266003319978
 20
6.606918104917478
 10
5.585028797734152
 20
6.606918104917478
 10
5.563391791343538
 20
6.607904619768238
 10
5.5406273394092
 20
6.611369856807041
 10
5.520847302149428
 20
6.618242300599309
 10
5.505552176942271
 20
6.626308510261403
 10
5.500743953299912
 20
6.629359245262072
  0
LWPOLYLINE
  5
5D6
330
1128
100
AcDbEntity
  8
0
 62
     0
100
AcDbPolyline
 90
       43
 70
     1
 43
0.0
 10
10.33659830152045
 20
6.629359245262072
 10
10.32706475464336
 20
6.635021343102987
 10
10.30144852868665
 20
6.65674953994199
 10
10.27632970517571
 20
6.690929378006549
 10
10.26124183098762
 20
6.731865599292697
 10
10.25626780653001
 20
6.767711735550556
 10
10.25626780653001
 20
6.779624524126538
 10
10.25626780653001
 20
6.789108330759052
 10
10.2593351216122
 20
6.817584620778882
 10
10.2682883656359
 20
6.851449437294458
 10
10.28287883737823
 20
6.880961982409624
 10
10.30277493520868
 20
6.905832104697685
 10
10.32764505749674
 20
6.925711622446609
 10
10.35715760261191
 20
6.940326964311227
 10
10.39098096892367
 20
6.949271918294166
 10
10.41949870914732
 20
6.952330943335597
 10
10.42894935561678
 20
6.952330943335597
 10
10.43840000208624
 20
6.952330943335597
 10
10.46691774230989
 20
6.949271918294166
 10
10.50074110862165
 20
6.940326964311227
 10
10.53025365373681
 20
6.925711622446609
 10
10.55512377602488
 20
6.905832104697685
 10
10.57501987385533
 20
6.880961982409624
 10
10.58961034559766
 20
6.851449437294458
 10
10.59856358962136
 20
6.817584620778882
 10
10.60171380511118
 20
6.789108330759052
 10
10.60171380511118
 20
6.779624524126538
 10
10.60171380511118
 20
6.770182167697838
 10
10.59856358962136
 20
6.741705877678007
 10
10.58961034559766
 20
6.707849351203193
 10
10.5749369734477
 20
6.678336806088027
 10
10.55504087561725
 20
6.653466683799966
 10
10.53008785292156
 20
6.633578876010279
 10
10.50040950699114
 20
6.618971824186425
 10
10.4663374394565
 20
6.610026870203486
 10
10.4376538984176
 20
6.606918104917478
 10
10.42812035154051
 20
6.606918104917478
 10
10.42090801607698
 20
6.606918104917478
 10
10.39927100968636
 20
6.607904619768238
 10
10.37647339758897
 20
6.611369856807041
 10
10.35674310057378
 20
6.618242300599309
 10
10.3414065251628
 20
6.626308510261403
 10
10.33659830152045
 20
6.629359245262072
  0
LWPOLYLINE
  5
603
330
1128
100
AcDbEntity
  8
0
 62
     0
100
AcDbPolyline
 90
       45
 70
     1
 43
0.0
 10
3.428233762628146
 20
7.320193212139073
 10
3.418733375914107
 20
7.325855309979988
 10
3.393059119672065
 20
7.347583506818991
 10
3.367956876242648
 20
7.381771634924313
 10
3.352893872176846
 20
7.422699566169698
 10
3.347903267637709
 20
7.458545702427558
 10
3.347903267637709
 20
7.470458491003539
 10
3.347903267637709
 20
7.479950587676815
 10
3.35096229267914
 20
7.508426877696645
 10
3.359907246662079
 20
7.542283404171459
 10
3.374530878567459
 20
7.571795949286625
 10
3.39440210627562
 20
7.596666071574686
 10
3.419272228563681
 20
7.616553879364373
 10
3.448784773678848
 20
7.631160931188227
 10
3.482649590194424
 20
7.640105885171167
 10
3.511125880214254
 20
7.643173200253361
 10
3.520609686846768
 20
7.643173200253361
 10
3.527714251780391
 20
7.643173200253361
 10
3.549085976866598
 20
7.642228135606415
 10
3.571883588963988
 20
7.638854089016001
 10
3.591854297161301
 20
7.632246926528139
 10
3.607232322776086
 20
7.624553768700365
 10
3.612131736866833
 20
7.621585934107324
 10
3.6217150239885
 20
7.615965286470223
 10
3.647762332064862
 20
7.594237089631219
 10
3.673121566757922
 20
7.559957771077509
 10
3.688284051312877
 20
7.518764558527717
 10
3.693316106055828
 20
7.482561950517062
 10
3.693316106055828
 20
7.470458491003539
 10
3.693316106055828
 20
7.461016134574838
 10
3.69020734076982
 20
7.432548134595771
 10
3.681220936583067
 20
7.398683318080194
 10
3.66660559471845
 20
7.369170772965028
 10
3.64667633672495
 20
7.344300650676968
 10
3.6217150239885
 20
7.324421132928044
 10
3.592028388017317
 20
7.309805791063426
 10
3.557939740401148
 20
7.300860837080487
 10
3.529289359525302
 20
7.29775207179448
 10
3.519755812648211
 20
7.29775207179448
 10
3.512518607062386
 20
7.29775207179448
 10
3.490881600671772
 20
7.298738586645238
 10
3.468117148737434
 20
7.302212113724805
 10
3.448337111477662
 20
7.309084557517072
 10
3.433050276311267
 20
7.317142477138404
 10
3.428233762628146
 20
7.320193212139073
  0
LWPOLYLINE
  5
632
330
1128
100
AcDbEntity
  8
0
 62
     0
100
AcDbPolyline
 90
       45
 70
     1
 43
0.0
 10
4.119067729505147
 20
7.320193212139073
 10
4.109567342791108
 20
7.325855309979988
 10
4.083893086549066
 20
7.347583506818991
 10
4.05879084311965
 20
7.381771634924313
 10
4.04373612909461
 20
7.422699566169698
 10
4.038737234514709
 20
7.458545702427558
 10
4.038737234514709
 20
7.470458491003539
 10
4.038737234514709
 20
7.479950587676815
 10
4.041796259556142
 20
7.508426877696645
 10
4.050749503579843
 20
7.542283404171459
 10
4.06536484544446
 20
7.571795949286625
 10
4.085244363193384
 20
7.596666071574686
 10
4.110114485481446
 20
7.616553879364373
 10
4.139618740555848
 20
7.631160931188227
 10
4.173483557071425
 20
7.640105885171167
 10
4.201959847091254
 20
7.643173200253361
 10
4.211443653723769
 20
7.643173200253361
 10
4.218548218657392
 20
7.643173200253361
 10
4.239919943743599
 20
7.642228135606415
 10
4.262717555840989
 20
7.638854089016001
 10
4.282696554079065
 20
7.632246926528139
 10
4.298066289653087
 20
7.624553768700365
 10
4.302973993784597
 20
7.621585934107324
 10
4.3125489908655
 20
7.615965286470223
 10
4.338596298941864
 20
7.594237089631219
 10
4.363963823675686
 20
7.559957771077509
 10
4.37912630823064
 20
7.518764558527717
 10
4.384158362973592
 20
7.482561950517062
 10
4.384158362973592
 20
7.470458491003539
 10
4.384158362973592
 20
7.461016134574838
 10
4.381049597687584
 20
7.432548134595771
 10
4.372054903460068
 20
7.398683318080194
 10
4.35743956159545
 20
7.369170772965028
 10
4.337510303601952
 20
7.344300650676968
 10
4.3125489908655
 20
7.324421132928044
 10
4.28287064493508
 20
7.309805791063426
 10
4.248773707278149
 20
7.300860837080487
 10
4.220131616443066
 20
7.29775207179448
 10
4.210598069565975
 20
7.29775207179448
 10
4.203352573939387
 20
7.29775207179448
 10
4.181715567548773
 20
7.298738586645238
 10
4.158951115614435
 20
7.302212113724805
 10
4.139171078354663
 20
7.309084557517072
 10
4.123884243188268
 20
7.317142477138404
 10
4.119067729505147
 20
7.320193212139073
  0
LWPOLYLINE
  5
661
330
1128
100
AcDbEntity
  8
0
 62
     0
100
AcDbPolyline
 90
       45
 70
     1
 43
0.0
 10
4.809909986422912
 20
7.320193212139073
 10
4.800409599708871
 20
7.325855309979988
 10
4.77473534346683
 20
7.347583506818991
 10
4.749633100037413
 20
7.381771634924313
 10
4.734570095971611
 20
7.422699566169698
 10
4.72957120139171
 20
7.458545702427558
 10
4.72957120139171
 20
7.470458491003539
 10
4.72957120139171
 20
7.479950587676815
 10
4.732638516473905
 20
7.508426877696645
 10
4.741583470456844
 20
7.542283404171459
 10
4.756207102362223
 20
7.571795949286625
 10
4.776078330070385
 20
7.596666071574686
 10
4.800948452358447
 20
7.616553879364373
 10
4.830460997473612
 20
7.631160931188227
 10
4.864325813989188
 20
7.640105885171167
 10
4.892793813968257
 20
7.643173200253361
 10
4.902285910641533
 20
7.643173200253361
 10
4.909390475575155
 20
7.643173200253361
 10
4.9307539106206
 20
7.642228135606415
 10
4.95355152271799
 20
7.638854089016001
 10
4.973530520956065
 20
7.632246926528139
 10
4.988900256530087
 20
7.624553768700365
 10
4.993807960661599
 20
7.621585934107324
 10
5.003391247783265
 20
7.615965286470223
 10
5.029430265818864
 20
7.594237089631219
 10
5.054797790552687
 20
7.559957771077509
 10
5.069960275107642
 20
7.518764558527717
 10
5.074992329850593
 20
7.482561950517062
 10
5.074992329850593
 20
7.470458491003539
 10
5.074992329850593
 20
7.461016134574838
 10
5.071883564564585
 20
7.432548134595771
 10
5.06288887033707
 20
7.398683318080194
 10
5.048281818513215
 20
7.369170772965028
 10
5.028352560519715
 20
7.344300650676968
 10
5.003391247783265
 20
7.324421132928044
 10
4.973704611812082
 20
7.309805791063426
 10
4.93960767415515
 20
7.300860837080487
 10
4.910965583320066
 20
7.29775207179448
 10
4.901432036442976
 20
7.29775207179448
 10
4.894186540816388
 20
7.29775207179448
 10
4.872557824466538
 20
7.298738586645238
 10
4.849793372532199
 20
7.302212113724805
 10
4.830013335272428
 20
7.309084557517072
 10
4.814718210065269
 20
7.317142477138404
 10
4.809909986422912
 20
7.320193212139073
  0
LWPOLYLINE
  5
690
330
1128
100
AcDbEntity
  8
0
 62
     0
100
AcDbPolyline
 90
       43
 70
     1
 43
0.0
 10
5.500743953299912
 20
7.320193212139073
 10
5.491243566585873
 20
7.325855309979988
 10
5.465569310343831
 20
7.347583506818991
 10
5.440467066914414
 20
7.381771634924313
 10
5.425404062848612
 20
7.422699566169698
 10
5.420413458309475
 20
7.458545702427558
 10
5.420413458309475
 20
7.470458491003539
 10
5.420413458309475
 20
7.479950587676815
 10
5.423472483350905
 20
7.508426877696645
 10
5.432417437333846
 20
7.542283404171459
 10
5.447041069239225
 20
7.571795949286625
 10
5.466912296947386
 20
7.596666071574686
 10
5.491782419235448
 20
7.616553879364373
 10
5.521294964350614
 20
7.631160931188227
 10
5.55515978086619
 20
7.640105885171167
 10
5.58363607088602
 20
7.643173200253361
 10
5.593119877518534
 20
7.643173200253361
 10
5.602562233947235
 20
7.643173200253361
 10
5.631038523967066
 20
7.640105885171167
 10
5.664895050441879
 20
7.631160931188227
 10
5.694407595557045
 20
7.616553879364373
 10
5.719277717845106
 20
7.596666071574686
 10
5.739165525634792
 20
7.571795949286625
 10
5.753772577458647
 20
7.542283404171459
 10
5.762717531441586
 20
7.508426877696645
 10
5.765826296727594
 20
7.479950587676815
 10
5.765826296727594
 20
7.470458491003539
 10
5.765826296727594
 20
7.461016134574838
 10
5.762717531441586
 20
7.432548134595771
 10
5.753731127254833
 20
7.398683318080194
 10
5.739115785390217
 20
7.369170772965028
 10
5.719186527396716
 20
7.344300650676968
 10
5.694225214660265
 20
7.324421132928044
 10
5.664538578689084
 20
7.309805791063426
 10
5.630449931072913
 20
7.300860837080487
 10
5.601799550197067
 20
7.29775207179448
 10
5.592266003319978
 20
7.29775207179448
 10
5.585028797734152
 20
7.29775207179448
 10
5.563391791343538
 20
7.298738586645238
 10
5.5406273394092
 20
7.302212113724805
 10
5.520847302149428
 20
7.309084557517072
 10
5.505552176942271
 20
7.317142477138404
 10
5.500743953299912
 20
7.320193212139073
  0
LWPOLYLINE
  5
6BD
330
1128
100
AcDbEntity
  8
0
 62
     0
100
AcDbPolyline
 90
       43
 70
     1
 43
0.0
 10
6.191577920176913
 20
7.320193212139073
 10
6.182077533462874
 20
7.325855309979988
 10
6.156403277220832
 20
7.347583506818991
 10
6.131301033791416
 20
7.381771634924313
 10
6.116246319766376
 20
7.422699566169698
 10
6.111247425186476
 20
7.458545702427558
 10
6.111247425186476
 20
7.470458491003539
 10
6.111247425186476
 20
7.479950587676815
 10
6.114306450227907
 20
7.508426877696645
 10
6.123259694251609
 20
7.542283404171459
 10
6.137875036116227
 20
7.571795949286625
 10
6.15775455386515
 20
7.596666071574686
 10
6.182624676153211
 20
7.616553879364373
 10
6.212128931227615
 20
7.631160931188227
 10
6.245993747743191
 20
7.640105885171167
 10
6.274470037763021
 20
7.643173200253361
 10
6.283953844395535
 20
7.643173200253361
 10
6.293396200824236
 20
7.643173200253361
 10
6.321872490844066
 20
7.640105885171167
 10
6.355737307359643
 20
7.631160931188227
 10
6.385241562434046
 20
7.616553879364373
 10
6.410111684722107
 20
7.596666071574686
 10
6.429999492511794
 20
7.571795949286625
 10
6.44461483437641
 20
7.542283404171459
 10
6.45355978835935
 20
7.508426877696645
 10
6.456668553645358
 20
7.479950587676815
 10
6.456668553645358
 20
7.470458491003539
 10
6.456668553645358
 20
7.461016134574838
 10
6.45355978835935
 20
7.432548134595771
 10
6.444565094131835
 20
7.398683318080194
 10
6.429949752267217
 20
7.369170772965028
 10
6.410020494273717
 20
7.344300650676968
 10
6.385059181537266
 20
7.324421132928044
 10
6.355380835606847
 20
7.309805791063426
 10
6.321283897949915
 20
7.300860837080487
 10
6.292641807114832
 20
7.29775207179448
 10
6.283108260237741
 20
7.29775207179448
 10
6.275862764611153
 20
7.29775207179448
 10
6.25422575822054
 20
7.298738586645238
 10
6.231461306286201
 20
7.302212113724805
 10
6.211681269026429
 20
7.309084557517072
 10
6.196394433860035
 20
7.317142477138404
 10
6.191577920176913
 20
7.320193212139073
  0
LWPOLYLINE
  5
6EA
330
1128
100
AcDbEntity
  8
0
 62
     0
100
AcDbPolyline
 90
       43
 70
     1
 43
0.0
 10
9.645789204765734
 20
7.320193212139073
 10
9.636255657888643
 20
7.325855309979988
 10
9.610556531524313
 20
7.347583506818991
 10
9.585520608420996
 20
7.381771634924313
 10
9.570432734232906
 20
7.422699566169698
 10
9.565458709775296
 20
7.458545702427558
 10
9.565458709775296
 20
7.470458491003539
 10
9.565458709775296
 20
7.479950587676815
 10
9.56852602485749
 20
7.508426877696645
 10
9.577479268881191
 20
7.542283404171459
 10
9.592069740623522
 20
7.571795949286625
 10
9.611965838453969
 20
7.596666071574686
 10
9.63683596074203
 20
7.616553879364373
 10
9.666348505857197
 20
7.631160931188227
 10
9.700171872168958
 20
7.640105885171167
 10
9.728689612392603
 20
7.643173200253361
 10
9.738140258862067
 20
7.643173200253361
 10
9.747590905331531
 20
7.643173200253361
 10
9.776025745147546
 20
7.640105885171167
 10
9.809932011866938
 20
7.631160931188227
 10
9.839444556982102
 20
7.616553879364373
 10
9.864314679270162
 20
7.596666071574686
 10
9.884210777100613
 20
7.571795949286625
 10
9.89880124884294
 20
7.542283404171459
 10
9.907754492866644
 20
7.508426877696645
 10
9.910821807948839
 20
7.479950587676815
 10
9.910821807948839
 20
7.470458491003539
 10
9.910821807948839
 20
7.461016134574838
 10
9.907754492866644
 20
7.432548134595771
 10
9.898718348435313
 20
7.398683318080194
 10
9.884127876692986
 20
7.369170772965028
 10
9.864231778862536
 20
7.344300650676968
 10
9.839278756166848
 20
7.324421132928044
 10
9.809600410236428
 20
7.309805791063426
 10
9.775445442294156
 20
7.300860837080487
 10
9.746844801662888
 20
7.29775207179448
 10
9.737311254785798
 20
7.29775207179448
 10
9.730016018914633
 20
7.29775207179448
 10
9.70837901252402
 20
7.298738586645238
 10
9.685664300834258
 20
7.302212113724805
 10
9.665851103411434
 20
7.309084557517072
 10
9.65059742840809
 20
7.317142477138404
 10
9.645789204765734
 20
7.320193212139073
  0
LWPOLYLINE
  5
717
330
1128
100
AcDbEntity
  8
0
 62
     0
100
AcDbPolyline
 90
       43
 70
     1
 43
0.0
 10
10.33659830152045
 20
7.320193212139073
 10
10.32706475464336
 20
7.325855309979988
 10
10.30144852868665
 20
7.347583506818991
 10
10.27632970517571
 20
7.381771634924313
 10
10.26124183098762
 20
7.422699566169698
 10
10.25626780653001
 20
7.458545702427558
 10
10.25626780653001
 20
7.470458491003539
 10
10.25626780653001
 20
7.479950587676815
 10
10.2593351216122
 20
7.508426877696645
 10
10.2682883656359
 20
7.542283404171459
 10
10.28287883737823
 20
7.571795949286625
 10
10.30277493520868
 20
7.596666071574686
 10
10.32764505749674
 20
7.616553879364373
 10
10.35715760261191
 20
7.631160931188227
 10
10.39098096892367
 20
7.640105885171167
 10
10.41949870914732
 20
7.643173200253361
 10
10.42894935561678
 20
7.643173200253361
 10
10.43840000208624
 20
7.643173200253361
 10
10.46691774230989
 20
7.640105885171167
 10
10.50074110862165
 20
7.631160931188227
 10
10.53025365373681
 20
7.616553879364373
 10
10.55512377602488
 20
7.596666071574686
 10
10.57501987385533
 20
7.571795949286625
 10
10.58961034559766
 20
7.542283404171459
 10
10.59856358962136
 20
7.508426877696645
 10
10.60171380511118
 20
7.479950587676815
 10
10.60171380511118
 20
7.470458491003539
 10
10.60171380511118
 20
7.461016134574838
 10
10.59856358962136
 20
7.432548134595771
 10
10.58961034559766
 20
7.398683318080194
 10
10.5749369734477
 20
7.369170772965028
 10
10.55504087561725
 20
7.344300650676968
 10
10.53008785292156
 20
7.324421132928044
 10
10.50040950699114
 20
7.309805791063426
 10
10.4663374394565
 20
7.300860837080487
 10
10.4376538984176
 20
7.29775207179448
 10
10.42812035154051
 20
7.29775207179448
 10
10.42090801607698
 20
7.29775207179448
 10
10.39927100968636
 20
7.298738586645238
 10
10.37647339758897
 20
7.302212113724805
 10
10.35674310057378
 20
7.309084557517072
 10
10.3414065251628
 20
7.317142477138404
 10
10.33659830152045
 20
7.320193212139073
  0
LWPOLYLINE
  5
744
330
1128
100
AcDbEntity
  8
0
 62
     0
100
AcDbPolyline
 90
       43
 70
     1
 43
0.0
 10
11.02740739827516
 20
7.320193212139073
 10
11.01795675180569
 20
7.325855309979988
 10
10.99225762544136
 20
7.347583506818991
 10
10.96713880193042
 20
7.381771634924313
 10
10.95213382814996
 20
7.422699566169698
 10
10.94707690328472
 20
7.458545702427558
 10
10.94707690328472
 20
7.470458491003539
 10
10.94707690328472
 20
7.479950587676815
 10
10.95014421836692
 20
7.508426877696645
 10
10.95909746239062
 20
7.542283404171459
 10
10.97377083454057
 20
7.571795949286625
 10
10.99358403196339
 20
7.596666071574686
 10
11.01845415425145
 20
7.616553879364373
 10
11.04796669936662
 20
7.631160931188227
 10
11.08187296608601
 20
7.640105885171167
 10
11.11030780590203
 20
7.643173200253361
 10
11.11984135277912
 20
7.643173200253361
 10
11.12929199924858
 20
7.643173200253361
 10
11.1577268390646
 20
7.640105885171167
 10
11.19163310578399
 20
7.631160931188227
 10
11.22106275049153
 20
7.616553879364373
 10
11.24593287277959
 20
7.596666071574686
 10
11.26582897061004
 20
7.571795949286625
 10
11.28050234275999
 20
7.542283404171459
 10
11.28937268637607
 20
7.508426877696645
 10
11.29252290186589
 20
7.479950587676815
 10
11.29252290186589
 20
7.470458491003539
 10
11.29252290186589
 20
7.461016134574838
 10
11.28937268637607
 20
7.432548134595771
 10
11.28041944235237
 20
7.398683318080194
 10
11.26582897061004
 20
7.369170772965028
 10
11.24584997237196
 20
7.344300650676968
 10
11.22089694967627
 20
7.324421132928044
 10
11.19121860374586
 20
7.309805791063426
 10
11.15714653621121
 20
7.300860837080487
 10
11.12846299517231
 20
7.29775207179448
 10
11.11892944829522
 20
7.29775207179448
 10
11.11171711283169
 20
7.29775207179448
 10
11.09008010644108
 20
7.298738586645238
 10
11.06728249434368
 20
7.302212113724805
 10
11.04755219732849
 20
7.309084557517072
 10
11.03221562191752
 20
7.317142477138404
 10
11.02740739827516
 20
7.320193212139073
  0
LWPOLYLINE
  5
771
330
1128
100
AcDbEntity
  8
0
 62
     0
100
AcDbPolyline
 90
       43
 70
     1
 43
0.0
 10
11.7182993954375
 20
7.320193212139073
 10
11.70876584856041
 20
7.325855309979988
 10
11.68306672219608
 20
7.347583506818991
 10
11.65803079909276
 20
7.381771634924313
 10
11.64294292490467
 20
7.422699566169698
 10
11.63796890044706
 20
7.458545702427558
 10
11.63796890044706
 20
7.470458491003539
 10
11.63796890044706
 20
7.479950587676815
 10
11.64103621552925
 20
7.508426877696645
 10
11.64998945955296
 20
7.542283404171459
 10
11.66457993129529
 20
7.571795949286625
 10
11.68447602912573
 20
7.596666071574686
 10
11.7093461514138
 20
7.616553879364373
 10
11.73885869652896
 20
7.631160931188227
 10
11.77268206284073
 20
7.640105885171167
 10
11.80119980306437
 20
7.643173200253361
 10
11.81065044953383
 20
7.643173200253361
 10
11.8201010960033
 20
7.643173200253361
 10
11.84853593581931
 20
7.640105885171167
 10
11.8824422025387
 20
7.631160931188227
 10
11.91195474765387
 20
7.616553879364373
 10
11.93682486994193
 20
7.596666071574686
 10
11.95672096777238
 20
7.571795949286625
 10
11.97131143951471
 20
7.542283404171459
 10
11.98026468353841
 20
7.508426877696645
 10
11.9833319986206
 20
7.479950587676815
 10
11.9833319986206
 20
7.470458491003539
 10
11.9833319986206
 20
7.461016134574838
 10
11.98026468353841
 20
7.432548134595771
 10
11.97122853910708
 20
7.398683318080194
 10
11.95663806736475
 20
7.369170772965028
 10
11.9367419695343
 20
7.344300650676968
 10
11.91178894683862
 20
7.324421132928044
 10
11.8821106009082
 20
7.309805791063426
 10
11.84795563296592
 20
7.300860837080487
 10
11.81935499233465
 20
7.29775207179448
 10
11.80982144545757
 20
7.29775207179448
 10
11.8025262095864
 20
7.29775207179448
 10
11.78088920319579
 20
7.298738586645238
 10
11.75817449150602
 20
7.302212113724805
 10
11.7383612940832
 20
7.309084557517072
 10
11.72310761907985
 20
7.317142477138404
 10
11.7182993954375
 20
7.320193212139073
  0
LWPOLYLINE
  5
79E
330
1128
100
AcDbEntity
  8
0
 62
     0
100
AcDbPolyline
 90
       43
 70
     1
 43
0.0
 10
12.40910849219221
 20
7.320193212139073
 10
12.39957494531512
 20
7.325855309979988
 10
12.37395871935842
 20
7.347583506818991
 10
12.34883989584748
 20
7.381771634924313
 10
12.33375202165939
 20
7.422699566169698
 10
12.32877799720177
 20
7.458545702427558
 10
12.32877799720177
 20
7.470458491003539
 10
12.32877799720177
 20
7.479950587676815
 10
12.33184531228397
 20
7.508426877696645
 10
12.34079855630767
 20
7.542283404171459
 10
12.35538902805
 20
7.571795949286625
 10
12.37528512588045
 20
7.596666071574686
 10
12.40015524816851
 20
7.616553879364373
 10
12.42966779328368
 20
7.631160931188227
 10
12.46349115959544
 20
7.640105885171167
 10
12.49200889981908
 20
7.643173200253361
 10
12.50145954628854
 20
7.643173200253361
 10
12.51091019275801
 20
7.643173200253361
 10
12.53934503257403
 20
7.640105885171167
 10
12.57325129929341
 20
7.631160931188227
 10
12.60284674481621
 20
7.616553879364373
 10
12.62771686710427
 20
7.596666071574686
 10
12.64744716411946
 20
7.571795949286625
 10
12.66212053626942
 20
7.542283404171459
 10
12.67107378029312
 20
7.508426877696645
 10
12.67422399578295
 20
7.479950587676815
 10
12.67422399578295
 20
7.470458491003539
 10
12.67422399578295
 20
7.461016134574838
 10
12.67107378029312
 20
7.432548134595771
 10
12.66212053626942
 20
7.398683318080194
 10
12.64744716411946
 20
7.369170772965028
 10
12.62755106628902
 20
7.344300650676968
 10
12.60259804359333
 20
7.324421132928044
 10
12.57283679725528
 20
7.309805791063426
 10
12.53876472972064
 20
7.300860837080487
 10
12.51016408908937
 20
7.29775207179448
 10
12.5007134426199
 20
7.29775207179448
 10
12.49341820674874
 20
7.29775207179448
 10
12.47178120035813
 20
7.298738586645238
 10
12.44898358826073
 20
7.302212113724805
 10
12.42925329124554
 20
7.309084557517072
 10
12.41391671583457
 20
7.317142477138404
 10
12.40910849219221
 20
7.320193212139073
  0
LWPOLYLINE
  5
7CB
330
1128
100
AcDbEntity
  8
0
 62
     0
100
AcDbPolyline
 90
       43
 70
     1
 43
0.0
 10
13.10000048935455
 20
7.320193212139073
 10
13.09046694247746
 20
7.325855309979988
 10
13.06476781611313
 20
7.347583506818991
 10
13.03964899260219
 20
7.381771634924313
 10
13.0245611184141
 20
7.422699566169698
 10
13.01958709395648
 20
7.458545702427558
 10
13.01958709395648
 20
7.470458491003539
 10
13.01958709395648
 20
7.479950587676815
 10
13.02273730944631
 20
7.508426877696645
 10
13.03160765306238
 20
7.542283404171459
 10
13.04619812480471
 20
7.571795949286625
 10
13.06609422263516
 20
7.596666071574686
 10
13.09096434492322
 20
7.616553879364373
 10
13.12047689003839
 20
7.631160931188227
 10
13.15430025635015
 20
7.640105885171167
 10
13.18290089698142
 20
7.643173200253361
 10
13.19235154345089
 20
7.643173200253361
 10
13.20180218992035
 20
7.643173200253361
 10
13.23023702973637
 20
7.640105885171167
 10
13.26406039604813
 20
7.631160931188227
 10
13.29365584157092
 20
7.616553879364373
 10
13.31852596385898
 20
7.596666071574686
 10
13.33833916128181
 20
7.571795949286625
 10
13.35292963302413
 20
7.542283404171459
 10
13.36188287704784
 20
7.508426877696645
 10
13.36503309253766
 20
7.479950587676815
 10
13.36503309253766
 20
7.470458491003539
 10
13.36503309253766
 20
7.461016134574838
 10
13.36188287704784
 20
7.432548134595771
 10
13.35292963302413
 20
7.398683318080194
 10
13.33833916128181
 20
7.369170772965028
 10
13.31836016304373
 20
7.344300650676968
 10
13.29340714034804
 20
7.324421132928044
 10
13.26372879441762
 20
7.309805791063426
 10
13.22965672688298
 20
7.300860837080487
 10
13.20097318584408
 20
7.29775207179448
 10
13.19152253937462
 20
7.29775207179448
 10
13.18422730350345
 20
7.29775207179448
 10
13.16259029711284
 20
7.298738586645238
 10
13.13979268501545
 20
7.302212113724805
 10
13.11997948759263
 20
7.309084557517072
 10
13.10472581258928
 20
7.317142477138404
 10
13.10000048935455
 20
7.320193212139073
  0
LWPOLYLINE
  5
7F8
330
1128
100
AcDbEntity
  8
0
 62
     0
100
AcDbPolyline
 90
       43
 70
     1
 43
0.0
 10
13.79080958610927
 20
7.320193212139073
 10
13.78127603923217
 20
7.325855309979988
 10
13.75557691286784
 20
7.347583506818991
 10
13.7304580893569
 20
7.381771634924313
 10
13.71537021516881
 20
7.422699566169698
 10
13.71047909111883
 20
7.458545702427558
 10
13.71047909111883
 20
7.470458491003539
 10
13.71047909111883
 20
7.479950587676815
 10
13.71354640620102
 20
7.508426877696645
 10
13.7224167498171
 20
7.542283404171459
 10
13.73709012196705
 20
7.571795949286625
 10
13.7569862197975
 20
7.596666071574686
 10
13.78185634208556
 20
7.616553879364373
 10
13.8112859867931
 20
7.631160931188227
 10
13.84519225351249
 20
7.640105885171167
 10
13.87370999373614
 20
7.643173200253361
 10
13.8831606402056
 20
7.643173200253361
 10
13.89261128667506
 20
7.643173200253361
 10
13.92104612649108
 20
7.640105885171167
 10
13.95486949280284
 20
7.631160931188227
 10
13.98446493832563
 20
7.616553879364373
 10
14.0093350606137
 20
7.596666071574686
 10
14.02914825803652
 20
7.571795949286625
 10
14.04373872977885
 20
7.542283404171459
 10
14.05277487421018
 20
7.508426877696645
 10
14.05584218929237
 20
7.479950587676815
 10
14.05584218929237
 20
7.470458491003539
 10
14.05584218929237
 20
7.461016134574838
 10
14.05277487421018
 20
7.432548134595771
 10
14.04373872977885
 20
7.398683318080194
 10
14.02914825803652
 20
7.369170772965028
 10
14.00925216020607
 20
7.344300650676968
 10
13.98421623710275
 20
7.324421132928044
 10
13.95453789117233
 20
7.309805791063426
 10
13.92046582363769
 20
7.300860837080487
 10
13.89178228259879
 20
7.29775207179448
 10
13.88233163612933
 20
7.29775207179448
 10
13.87511930066579
 20
7.29775207179448
 10
13.85348229427518
 20
7.298738586645238
 10
13.83068468217779
 20
7.302212113724805
 10
13.81087148475497
 20
7.309084557517072
 10
13.795534909344
 20
7.317142477138404
 10
13.79080958610927
 20
7.320193212139073
  0
LWPOLYLINE
  5
825
330
1128
100
AcDbEntity
  8
0
 62
     0
100
AcDbPolyline
 90
       43
 70
     1
 43
0.0
 10
5.500743953299912
 20
8.011027179016075
 10
5.491243566585873
 20
8.016697566897752
 10
5.465569310343831
 20
8.038417473695993
 10
5.440467066914414
 20
8.072605601801314
 10
5.425404062848612
 20
8.113541823087463
 10
5.420413458309475
 20
8.149379669304558
 10
5.420413458309475
 20
8.161300747921302
 10
5.420413458309475
 20
8.170784554553816
 10
5.423472483350905
 20
8.199260844573647
 10
5.432417437333846
 20
8.233125661089225
 10
5.447041069239225
 20
8.262629916163625
 10
5.466912296947386
 20
8.287500038451688
 10
5.491782419235448
 20
8.307387846241376
 10
5.521294964350614
 20
8.321994898065228
 10
5.55515978086619
 20
8.33094814208893
 10
5.58363607088602
 20
8.334007167130363
 10
5.593119877518534
 20
8.334007167130363
 10
5.602562233947235
 20
8.334007167130363
 10
5.631038523967066
 20
8.33094814208893
 10
5.664895050441879
 20
8.321994898065228
 10
5.694407595557045
 20
8.307387846241376
 10
5.719277717845106
 20
8.287500038451688
 10
5.739165525634792
 20
8.262629916163625
 10
5.753772577458647
 20
8.233125661089225
 10
5.762717531441586
 20
8.199260844573647
 10
5.765826296727594
 20
8.170784554553816
 10
5.765826296727594
 20
8.161300747921302
 10
5.765826296727594
 20
8.151858391492603
 10
5.762717531441586
 20
8.123382101472771
 10
5.753731127254833
 20
8.089517284957196
 10
5.739115785390217
 20
8.060013029882793
 10
5.719186527396716
 20
8.035142907594732
 10
5.694225214660265
 20
8.015255099805046
 10
5.664538578689084
 20
8.00064804798119
 10
5.630449931072913
 20
7.991694803957488
 10
5.601799550197067
 20
7.988586038671481
 10
5.592266003319978
 20
7.988586038671481
 10
5.585028797734152
 20
7.988586038671481
 10
5.563391791343538
 20
7.989580843563004
 10
5.5406273394092
 20
7.993046080601807
 10
5.520847302149428
 20
7.999918524394073
 10
5.505552176942271
 20
8.007976444015405
 10
5.500743953299912
 20
8.011027179016075
  0
LWPOLYLINE
  5
852
330
1128
100
AcDbEntity
  8
0
 62
     0
100
AcDbPolyline
 90
       43
 70
     1
 43
0.0
 10
10.33659830152045
 20
8.011027179016075
 10
10.32706475464336
 20
8.016697566897752
 10
10.30144852868665
 20
8.038417473695993
 10
10.27632970517571
 20
8.072605601801314
 10
10.26124183098762
 20
8.113541823087463
 10
10.25626780653001
 20
8.149379669304558
 10
10.25626780653001
 20
8.161300747921302
 10
10.25626780653001
 20
8.170784554553816
 10
10.2593351216122
 20
8.199260844573647
 10
10.2682883656359
 20
8.233125661089225
 10
10.28287883737823
 20
8.262629916163625
 10
10.30277493520868
 20
8.287500038451688
 10
10.32764505749674
 20
8.307387846241376
 10
10.35715760261191
 20
8.321994898065228
 10
10.39098096892367
 20
8.33094814208893
 10
10.41949870914732
 20
8.334007167130363
 10
10.42894935561678
 20
8.334007167130363
 10
10.43840000208624
 20
8.334007167130363
 10
10.46691774230989
 20
8.33094814208893
 10
10.50074110862165
 20
8.321994898065228
 10
10.53025365373681
 20
8.307387846241376
 10
10.55512377602488
 20
8.287500038451688
 10
10.57501987385533
 20
8.262629916163625
 10
10.58961034559766
 20
8.233125661089225
 10
10.59856358962136
 20
8.199260844573647
 10
10.60171380511118
 20
8.170784554553816
 10
10.60171380511118
 20
8.161300747921302
 10
10.60171380511118
 20
8.151858391492603
 10
10.59856358962136
 20
8.123382101472771
 10
10.58961034559766
 20
8.089517284957196
 10
10.5749369734477
 20
8.060013029882793
 10
10.55504087561725
 20
8.035142907594732
 10
10.53008785292156
 20
8.015255099805046
 10
10.50040950699114
 20
8.00064804798119
 10
10.4663374394565
 20
7.991694803957488
 10
10.4376538984176
 20
7.988586038671481
 10
10.42812035154051
 20
7.988586038671481
 10
10.42090801607698
 20
7.988586038671481
 10
10.39927100968636
 20
7.989580843563004
 10
10.37647339758897
 20
7.993046080601807
 10
10.35674310057378
 20
7.999918524394073
 10
10.3414065251628
 20
8.007976444015405
 10
10.33659830152045
 20
8.011027179016075
  0
ENDSEC
  0
SECTION
  2
OBJECTS
  0
DICTIONARY
  5
1118
330
0
100
AcDbDictionary
281
     1
  3
ACAD_DETAILVIEWSTYLE
350
1182
  3
ACAD_GROUP
350
1119
  3
ACAD_LAYOUT
350
1125
  3
ACAD_MATERIAL
350
112E
  3
ACAD_MLEADERSTYLE
350
1177
  3
ACAD_MLINESTYLE
350
1122
  3
ACAD_PLOTSETTINGS
350
1124
  3
ACAD_PLOTSTYLENAME
350
111A
  3
ACAD_SCALELIST
350
113A
  3
ACAD_SECTIONVIEWSTYLE
350
1183
  3
ACAD_TABLESTYLE
350
1175
  3
ACAD_VISUALSTYLE
350
115C
  3
AcDbVariableDictionary
350
117A
  3
ACDB_RECOMPOSE_DATA
350
117E
  3
APPDATA
350
1179
  0
DICTIONARY
  5
1182
102
{ACAD_REACTORS
330
1118
102
}
330
1118
100
AcDbDictionary
281
     1
  0
DICTIONARY
  5
1119
102
{ACAD_REACTORS
330
1118
102
}
330
1118
100
AcDbDictionary
281
     1
  0
DICTIONARY
  5
1125
102
{ACAD_REACTORS
330
1118
102
}
330
1118
100
AcDbDictionary
281
     1
  3
Model
350
1129
  3
Sheet 1
350
1127
  0
DICTIONARY
  5
112E
102
{ACAD_REACTORS
330
1118
102
}
330
1118
100
AcDbDictionary
281
     1
  3
ByBlock
350
1130
  3
ByLayer
350
112F
  3
Global
350
1131
  0
DICTIONARY
  5
1177
102
{ACAD_REACTORS
330
1118
102
}
330
1118
100
AcDbDictionary
281
     1
  3
Standard
350
1178
  0
DICTIONARY
  5
1122
102
{ACAD_REACTORS
330
1118
102
}
330
1118
100
AcDbDictionary
281
     1
  3
Standard
350
1123
  0
DICTIONARY
  5
1124
102
{ACAD_REACTORS
330
1118
102
}
330
1118
100
AcDbDictionary
281
     1
  0
ACDBDICTIONARYWDFLT
  5
111A
102
{ACAD_REACTORS
330
1118
102
}
330
1118
100
AcDbDictionary
281
     1
  3
Normal
350
111B
100
AcDbDictionaryWithDefault
340
111B
  0
DICTIONARY
  5
113A
102
{ACAD_REACTORS
330
1118
102
}
330
1118
100
AcDbDictionary
281
     1
  3
A0
350
113B
  3
A1
350
113C
  3
A2
350
113D
  3
A3
350
113E
  3
A4
350
113F
  3
A5
350
1140
  3
A6
350
1141
  3
A7
350
1142
  3
A8
350
1143
  3
A9
350
1144
  3
B0
350
1145
  3
B1
350
1146
  3
B2
350
1147
  3
B3
350
1148
  3
B4
350
1149
  3
B5
350
114A
  3
B6
350
114B
  3
B7
350
114C
  3
B8
350
114D
  3
B9
350
114E
  3
C0
350
114F
  3
C1
350
1150
  3
C2
350
1151
  3
C3
350
1152
  3
C4
350
1153
  3
C5
350
1154
  3
C6
350
1155
  3
C7
350
1156
  3
C8
350
1157
  3
C9
350
1158
  3
D0
350
1159
  3
D1
350
115A
  3
D2
350
115B
  0
DICTIONARY
  5
1183
102
{ACAD_REACTORS
330
1118
102
}
330
1118
100
AcDbDictionary
281
     1
  0
DICTIONARY
  5
1175
102
{ACAD_REACTORS
330
1118
102
}
330
1118
100
AcDbDictionary
281
     1
  3
Standard
350
1176
  0
DICTIONARY
  5
115C
102
{ACAD_REACTORS
330
1118
102
}
330
1118
100
AcDbDictionary
281
     1
  3
2dWireframe
350
1161
  3
Basic
350
1164
  3
Brighten
350
1168
  3
ColorChange
350
116C
  3
Conceptual
350
1166
  3
Dim
350
1167
  3
EdgeColorOff
350
116F
  3
Facepattern
350
116B
  3
Flat
350
115D
  3
FlatWithEdges
350
115E
  3
Gouraud
350
115F
  3
GouraudWithEdges
350
1160
  3
Hidden
350
1163
  3
JitterOff
350
116D
  3
Linepattern
350
116A
  3
OverhangOff
350
116E
  3
Realistic
350
1165
  3
Shaded
350
1174
  3
Shaded with edges
350
1173
  3
Shades of Gray
350
1170
  3
Sketchy
350
1171
  3
Thicken
350
1169
  3
Wireframe
350
1162
  3
X-Ray
350
1172
  0
DICTIONARY
  5
117A
102
{ACAD_REACTORS
330
1118
102
}
330
1118
100
AcDbDictionary
281
     1
  3
CANNOSCALE
350
117B
  3
CMLEADERSTYLE
350
1180
  3
CTABLESTYLE
350
117F
  3
MSLTSCALE
350
1181
  0
XRECORD
  5
117E
102
{ACAD_REACTORS
330
1118
102
}
330
1118
100
AcDbXrecord
280
     1
 90
        1
330
1176
  0
DICTIONARY
  5
1179
102
{ACAD_REACTORS
330
1118
102
}
330
1118
100
AcDbDictionary
281
     1
  0
LAYOUT
  5
1129
102
{ACAD_REACTORS
330
1125
102
}
330
1125
100
AcDbPlotSettings
  1

  2
none_device
  4
na-letter
  6

 40
6.35
 41
6.35
 42
6.35
 43
14.11111111111111
 44
215.9
 45
279.4
 46
0.0
 47
0.0
 48
0.0
 49
0.0
140
0.0
141
0.0
142
1.0
143
1.0
 70
  1712
 72
     0
 73
     0
 74
     0
  7

 75
     0
 76
     0
 77
     2
 78
   300
147
1.0
148
0.0
149
0.0
100
AcDbLayout
  1
Model
 70
     1
 71
     0
 10
0.0
 20
0.0
 11
12.0
 21
9.0
 12
0.0
 22
0.0
 32
0.0
 14
0.9299719485070597
 24
2.980779664951293
 34
0.0
 15
14.74673418645471
 25
11.96098290121358
 35
0.0
146
0.0
 13
0.0
 23
0.0
 33
0.0
 16
1.0
 26
0.0
 36
0.0
 17
0.0
 27
1.0
 37
0.0
 76
     0
330
1128
331
112B
  0
LAYOUT
  5
1127
102
{ACAD_REACTORS
330
1125
102
}
330
1125
100
AcDbPlotSettings
  1

  2
none_device
  4

  6

 40
0.0
 41
0.0
 42
0.0
 43
0.0
 44
0.0
 45
0.0
 46
0.0
 47
0.0
 48
0.0
 49
0.0
140
0.0
141
0.0
142
1.0
143
1.0
 70
   688
 72
     0
 73
     0
 74
     5
  7

 75
    16
 76
     0
 77
     2
 78
   300
147
1.0
148
0.0
149
0.0
100
AcDbLayout
  1
Sheet 1
 70
     1
 71
     1
 10
0.0
 20
0.0
 11
0.0
 21
0.0
 12
0.0
 22
0.0
 32
0.0
 14
1.000000000000000E+20
 24
1.000000000000000E+20
 34
1.000000000000000E+20
 15
-1.000000000000000E+20
 25
-1.000000000000000E+20
 35
-1.000000000000000E+20
146
0.0
 13
0.0
 23
0.0
 33
0.0
 16
1.0
 26
0.0
 36
0.0
 17
0.0
 27
1.0
 37
0.0
 76
     0
330
1126
  0
MATERIAL
  5
1130
102
{ACAD_REACTORS
330
112E
102
}
330
112E
100
AcDbMaterial
  1
ByBlock
 72
     1
 94
      127
  0
MATERIAL
  5
112F
102
{ACAD_REACTORS
330
112E
102
}
330
112E
100
AcDbMaterial
  1
ByLayer
 72
     1
 94
      127
  0
MATERIAL
  5
1131
102
{ACAD_REACTORS
330
112E
102
}
330
112E
100
AcDbMaterial
  1
Global
 72
     1
 94
      127
  0
MLEADERSTYLE
  5
1178
102
{ACAD_REACTORS
330
1177
102
}
330
1177
100
AcDbMLeaderStyle
179
     2
170
     2
171
     1
172
     0
 90
        2
 40
0.0
 41
0.0
173
     1
 91
-1056964608
340
111F
 92
       -2
290
     1
 42
0.09
291
     1
 43
0.36
  3
Standard
341
0
 44
0.18
300

342
111D
174
     1
178
     1
175
     1
176
     0
 93
-1056964608
 45
0.18
292
     0
297
     0
 46
0.18
343
0
 94
-1056964608
 47
1.0
 49
1.0
140
1.0
293
     1
141
0.0
294
     1
177
     0
142
1.0
295
     0
296
     0
143
0.125
271
     0
272
     9
273
     9
298
     0
  0
MLINESTYLE
  5
1123
102
{ACAD_REACTORS
330
1122
102
}
330
1122
100
AcDbMlineStyle
  2
Standard
 70
     0
  3

 62
   256
 51
90.0
 52
90.0
 71
     2
 49
0.5
 62
   256
  6
BYLAYER
 49
-0.5
 62
   256
  6
BYLAYER
  0
ACDBPLACEHOLDER
  5
111B
102
{ACAD_REACTORS
330
111A
102
}
330
111A
  0
SCALE
  5
113B
102
{ACAD_REACTORS
330
113A
102
}
330
113A
100
AcDbScale
 70
     0
300
1:1
140
1.0
141
1.0
290
     1
  0
SCALE
  5
113C
102
{ACAD_REACTORS
330
113A
102
}
330
113A
100
AcDbScale
 70
     0
300
1:2
140
1.0
141
2.0
290
     0
  0
SCALE
  5
113D
102
{ACAD_REACTORS
330
113A
102
}
330
113A
100
AcDbScale
 70
     0
300
1:4
140
1.0
141
4.0
290
     0
  0
SCALE
  5
113E
102
{ACAD_REACTORS
330
113A
102
}
330
113A
100
AcDbScale
 70
     0
300
1:5
140
1.0
141
5.0
290
     0
  0
SCALE
  5
113F
102
{ACAD_REACTORS
330
113A
102
}
330
113A
100
AcDbScale
 70
     0
300
1:8
140
1.0
141
8.0
290
     0
  0
SCALE
  5
1140
102
{ACAD_REACTORS
330
113A
102
}
330
113A
100
AcDbScale
 70
     0
300
1:10
140
1.0
141
10.0
290
     0
  0
SCALE
  5
1141
102
{ACAD_REACTORS
330
113A
102
}
330
113A
100
AcDbScale
 70
     0
300
1:16
140
1.0
141
16.0
290
     0
  0
SCALE
  5
1142
102
{ACAD_REACTORS
330
113A
102
}
330
113A
100
AcDbScale
 70
     0
300
1:20
140
1.0
141
20.0
290
     0
  0
SCALE
  5
1143
102
{ACAD_REACTORS
330
113A
102
}
330
113A
100
AcDbScale
 70
     0
300
1:30
140
1.0
141
30.0
290
     0
  0
SCALE
  5
1144
102
{ACAD_REACTORS
330
113A
102
}
330
113A
100
AcDbScale
 70
     0
300
1:40
140
1.0
141
40.0
290
     0
  0
SCALE
  5
1145
102
{ACAD_REACTORS
330
113A
102
}
330
113A
100
AcDbScale
 70
     0
300
1:50
140
1.0
141
50.0
290
     0
  0
SCALE
  5
1146
102
{ACAD_REACTORS
330
113A
102
}
330
113A
100
AcDbScale
 70
     0
300
1:100
140
1.0
141
100.0
290
     0
  0
SCALE
  5
1147
102
{ACAD_REACTORS
330
113A
102
}
330
113A
100
AcDbScale
 70
     0
300
2:1
140
2.0
141
1.0
290
     0
  0
SCALE
  5
1148
102
{ACAD_REACTORS
330
113A
102
}
330
113A
100
AcDbScale
 70
     0
300
4:1
140
4.0
141
1.0
290
     0
  0
SCALE
  5
1149
102
{ACAD_REACTORS
330
113A
102
}
330
113A
100
AcDbScale
 70
     0
300
8:1
140
8.0
141
1.0
290
     0
  0
SCALE
  5
114A
102
{ACAD_REACTORS
330
113A
102
}
330
113A
100
AcDbScale
 70
     0
300
10:1
140
10.0
141
1.0
290
     0
  0
SCALE
  5
114B
102
{ACAD_REACTORS
330
113A
102
}
330
113A
100
AcDbScale
 70
     0
300
100:1
140
100.0
141
1.0
290
     0
  0
SCALE
  5
114C
102
{ACAD_REACTORS
330
113A
102
}
330
113A
100
AcDbScale
 70
     0
300
1/128" = 1'-0"
140
0.0078125
141
12.0
290
     0
  0
SCALE
  5
114D
102
{ACAD_REACTORS
330
113A
102
}
330
113A
100
AcDbScale
 70
     0
300
1/64" = 1'-0"
140
0.015625
141
12.0
290
     0
  0
SCALE
  5
114E
102
{ACAD_REACTORS
330
113A
102
}
330
113A
100
AcDbScale
 70
     0
300
1/32" = 1'-0"
140
0.03125
141
12.0
290
     0
  0
SCALE
  5
114F
102
{ACAD_REACTORS
330
113A
102
}
330
113A
100
AcDbScale
 70
     0
300
1/16" = 1'-0"
140
0.0625
141
12.0
290
     0
  0
SCALE
  5
1150
102
{ACAD_REACTORS
330
113A
102
}
330
113A
100
AcDbScale
 70
     0
300
3/32" = 1'-0"
140
0.09375
141
12.0
290
     0
  0
SCALE
  5
1151
102
{ACAD_REACTORS
330
113A
102
}
330
113A
100
AcDbScale
 70
     0
300
1/8" = 1'-0"
140
0.125
141
12.0
290
     0
  0
SCALE
  5
1152
102
{ACAD_REACTORS
330
113A
102
}
330
113A
100
AcDbScale
 70
     0
300
3/16" = 1'-0"
140
0.1875
141
12.0
290
     0
  0
SCALE
  5
1153
102
{ACAD_REACTORS
330
113A
102
}
330
113A
100
AcDbScale
 70
     0
300
1/4" = 1'-0"
140
0.25
141
12.0
290
     0
  0
SCALE
  5
1154
102
{ACAD_REACTORS
330
113A
102
}
330
113A
100
AcDbScale
 70
     0
300
3/8" = 1'-0"
140
0.375
141
12.0
290
     0
  0
SCALE
  5
1155
102
{ACAD_REACTORS
330
113A
102
}
330
113A
100
AcDbScale
 70
     0
300
1/2" = 1'-0"
140
0.5
141
12.0
290
     0
  0
SCALE
  5
1156
102
{ACAD_REACTORS
330
113A
102
}
330
113A
100
AcDbScale
 70
     0
300
3/4" = 1'-0"
140
0.75
141
12.0
290
     0
  0
SCALE
  5
1157
102
{ACAD_REACTORS
330
113A
102
}
330
113A
100
AcDbScale
 70
     0
300
1" = 1'-0"
140
1.0
141
12.0
290
     0
  0
SCALE
  5
1158
102
{ACAD_REACTORS
330
113A
102
}
330
113A
100
AcDbScale
 70
     0
300
1-1/2" = 1'-0"
140
1.5
141
12.0
290
     0
  0
SCALE
  5
1159
102
{ACAD_REACTORS
330
113A
102
}
330
113A
100
AcDbScale
 70
     0
300
3" = 1'-0"
140
3.0
141
12.0
290
     0
  0
SCALE
  5
115A
102
{ACAD_REACTORS
330
113A
102
}
330
113A
100
AcDbScale
 70
     0
300
6" = 1'-0"
140
6.0
141
12.0
290
     0
  0
SCALE
  5
115B
102
{ACAD_REACTORS
330
113A
102
}
330
113A
100
AcDbScale
 70
     0
300
1'-0" = 1'-0"
140
12.0
141
12.0
290
     0
  0
TABLESTYLE
  5
1176
102
{ACAD_REACTORS
330
1175
102
}
102
{ACAD_XDICTIONARY
360
117C
102
}
330
1175
100
AcDbTableStyle
  3
Standard
 70
     0
 71
     0
 40
0.06
 41
0.06
280
     0
281
     0
  7
STANDARD
140
0.18
170
     2
 62
     0
 63
   257
283
     0
 90
        4
 91
        0
  1

274
    -2
284
     1
 64
     0
275
    -2
285
     1
 65
     0
276
    -2
286
     1
 66
     0
277
    -2
287
     1
 67
     0
278
    -2
288
     1
 68
     0
279
    -2
289
     1
 69
     0
  7
STANDARD
140
0.25
170
     5
 62
     0
 63
   257
283
     0
 90
        4
 91
        0
  1

274
    -2
284
     1
 64
     0
275
    -2
285
     1
 65
     0
276
    -2
286
     1
 66
     0
277
    -2
287
     1
 67
     0
278
    -2
288
     1
 68
     0
279
    -2
289
     1
 69
     0
  7
STANDARD
140
0.18
170
     5
 62
     0
 63
   257
283
     0
 90
        4
 91
        0
  1

274
    -2
284
     1
 64
     0
275
    -2
285
     1
 65
     0
276
    -2
286
     1
 66
     0
277
    -2
287
     1
 67
     0
278
    -2
288
     1
 68
     0
279
    -2
289
     1
 69
     0
  0
VISUALSTYLE
  5
1161
102
{ACAD_REACTORS
330
115C
102
}
330
115C
100
AcDbVisualStyle
  2
2dWireframe
 70
     4
177
     3
291
     0
 70
    58
 90
        0
176
     1
 90
        2
176
     1
 90
        0
176
     1
 90
        0
176
     1
 40
0.6
176
     1
 40
30.0
176
     1
 62
     7
420
 16777215
176
     1
 90
        1
176
     1
 90
        4
176
     1
 62
     7
176
     1
 62
   257
176
     1
 90
        1
176
     1
 90
        1
176
     1
 40
1.0
176
     1
 90
        0
176
     1
 62
   257
176
     1
 40
1.0
176
     1
 90
        1
176
     1
 90
        6
176
     1
 90
        2
176
     1
 62
     7
176
     1
 90
        5
176
     1
 90
        0
176
     1
 90
        0
176
     1
290
     0
176
     1
 90
        1
176
     1
 40
0.0
176
     1
 90
        0
176
     1
290
     1
176
     1
290
     1
176
     1
290
     0
176
     1
290
     0
176
     1
290
     0
176
     1
290
     0
176
     1
290
     0
176
     1
290
     0
176
     1
290
     0
176
     1
 90
       50
176
     1
 40
0.0
176
     1
 40
1.0
176
     1
 90
        0
176
     1
 62
   178
420
        0
176
     1
 90
       50
176
     1
 90
        3
176
     1
 62
     5
420
      255
176
     1
290
     0
176
     1
 90
       50
176
     1
 90
       50
176
     1
 90
       50
176
     1
290
     0
176
     1
 90
       50
176
     1
 62
   256
176
     0
 40
1.0
176
     0
 90
        2
176
     1
  1
strokes_ogs.tif
176
     1
290
     0
176
     1
 40
1.0
176
     1
 40
1.0
176
     1
  0
VISUALSTYLE
  5
1164
102
{ACAD_REACTORS
330
115C
102
}
330
115C
100
AcDbVisualStyle
  2
Basic
 70
     7
177
     3
291
     1
 70
    58
 90
        1
176
     1
 90
        0
176
     1
 90
        1
176
     1
 90
        0
176
     1
 40
0.6
176
     1
 40
30.0
176
     1
 62
     7
420
 16777215
176
     1
 90
        0
176
     1
 90
        4
176
     1
 62
     7
176
     1
 62
   257
176
     1
 90
        1
176
     1
 90
        1
176
     1
 40
1.0
176
     1
 90
        8
176
     1
 62
     7
176
     1
 40
1.0
176
     1
 90
        1
176
     1
 90
        6
176
     1
 90
        2
176
     1
 62
     7
176
     1
 90
        5
176
     1
 90
        0
176
     1
 90
        0
176
     1
290
     0
176
     1
 90
        1
176
     1
 40
0.0
176
     1
 90
        0
176
     1
290
     0
176
     1
290
     1
176
     1
290
     1
176
     1
290
     0
176
     1
290
     0
176
     1
290
     0
176
     1
290
     0
176
     1
290
     0
176
     1
290
     0
176
     1
 90
       50
176
     1
 40
0.0
176
     1
 40
1.0
176
     1
 90
        0
176
     1
 62
   178
420
        0
176
     1
 90
       50
176
     1
 90
        3
176
     1
 62
     5
420
      255
176
     1
290
     0
176
     1
 90
       50
176
     1
 90
       50
176
     1
 90
       50
176
     1
290
     0
176
     1
 90
       50
176
     1
 62
   256
176
     0
 40
1.0
176
     0
 90
        2
176
     1
  1
strokes_ogs.tif
176
     1
290
     0
176
     1
 40
1.0
176
     1
 40
1.0
176
     1
  0
VISUALSTYLE
  5
1168
102
{ACAD_REACTORS
330
115C
102
}
330
115C
100
AcDbVisualStyle
  2
Brighten
 70
    12
177
     3
291
     1
 70
    58
 90
        2
176
     1
 90
        2
176
     1
 90
        0
176
     1
 90
        0
176
     1
 40
0.6
176
     1
 40
30.0
176
     1
 62
     7
420
 16777215
176
     1
 90
        1
176
     1
 90
        4
176
     1
 62
     7
176
     1
 62
   257
176
     1
 90
        1
176
     1
 90
        1
176
     1
 40
1.0
176
     1
 90
        8
176
     1
 62
     7
176
     1
 40
1.0
176
     1
 90
        1
176
     1
 90
        6
176
     1
 90
        2
176
     1
 62
     7
176
     1
 90
        5
176
     1
 90
        0
176
     1
 90
        0
176
     1
290
     0
176
     1
 90
        1
176
     1
 40
50.0
176
     1
 90
        0
176
     1
290
     0
176
     1
290
     1
176
     1
290
     1
176
     1
290
     0
176
     1
290
     0
176
     1
290
     0
176
     1
290
     0
176
     1
290
     0
176
     1
290
     0
176
     1
 90
       50
176
     1
 40
0.0
176
     1
 40
1.0
176
     1
 90
        0
176
     1
 62
   178
420
        0
176
     1
 90
       50
176
     1
 90
        3
176
     1
 62
     5
420
      255
176
     1
290
     0
176
     1
 90
       50
176
     1
 90
       50
176
     1
 90
       50
176
     1
290
     0
176
     1
 90
       50
176
     1
 62
   256
176
     0
 40
1.0
176
     0
 90
        2
176
     1
  1
strokes_ogs.tif
176
     1
290
     0
176
     1
 40
1.0
176
     1
 40
1.0
176
     1
  0
VISUALSTYLE
  5
116C
102
{ACAD_REACTORS
330
115C
102
}
330
115C
100
AcDbVisualStyle
  2
ColorChange
 70
    16
177
     3
291
     1
 70
    58
 90
        2
176
     1
 90
        2
176
     1
 90
        3
176
     1
 90
        0
176
     1
 40
0.6
176
     1
 40
30.0
176
     1
 62
     8
420
  8421504
176
     1
 90
        1
176
     1
 90
        4
176
     1
 62
     7
176
     1
 62
   257
176
     1
 90
        1
176
     1
 90
        1
176
     1
 40
1.0
176
     1
 90
        8
176
     1
 62
     8
420
  8421504
176
     1
 40
1.0
176
     1
 90
        1
176
     1
 90
        6
176
     1
 90
        2
176
     1
 62
     7
176
     1
 90
        5
176
     1
 90
        0
176
     1
 90
        0
176
     1
290
     0
176
     1
 90
        1
176
     1
 40
0.0
176
     1
 90
        0
176
     1
290
     0
176
     1
290
     1
176
     1
290
     1
176
     1
290
     0
176
     1
290
     0
176
     1
290
     0
176
     1
290
     0
176
     1
290
     0
176
     1
290
     0
176
     1
 90
       50
176
     1
 40
0.0
176
     1
 40
1.0
176
     1
 90
        0
176
     1
 62
   178
420
        0
176
     1
 90
       50
176
     1
 90
        3
176
     1
 62
     5
420
      255
176
     1
290
     0
176
     1
 90
       50
176
     1
 90
       50
176
     1
 90
       50
176
     1
290
     0
176
     1
 90
       50
176
     1
 62
   256
176
     0
 40
1.0
176
     0
 90
        2
176
     1
  1
strokes_ogs.tif
176
     1
290
     0
176
     1
 40
1.0
176
     1
 40
1.0
176
     1
  0
VISUALSTYLE
  5
1166
102
{ACAD_REACTORS
330
115C
102
}
330
115C
100
AcDbVisualStyle
  2
Conceptual
 70
     9
177
     3
291
     0
 70
    58
 90
        3
176
     1
 90
        2
176
     1
 90
        0
176
     1
 90
        0
176
     1
 40
0.6
176
     1
 40
30.0
176
     1
 62
     7
420
 16777215
176
     1
 90
        2
176
     1
 90
        2
176
     1
 62
     7
176
     1
 62
   257
176
     1
 90
        1
176
     1
 90
        1
176
     1
 40
179.0
176
     1
 90
        8
176
     1
 62
     7
176
     1
 40
1.0
176
     1
 90
        1
176
     1
 90
        6
176
     1
 90
        2
176
     1
 62
     7
176
     1
 90
        3
176
     1
 90
        0
176
     1
 90
        0
176
     1
290
     0
176
     1
 90
        1
176
     1
 40
0.0
176
     1
 90
        0
176
     1
290
     0
176
     1
290
     1
176
     1
290
     1
176
     1
290
     0
176
     1
290
     0
176
     1
290
     0
176
     1
290
     0
176
     1
290
     0
176
     1
290
     0
176
     1
 90
       50
176
     1
 40
0.0
176
     1
 40
1.0
176
     1
 90
        0
176
     1
 62
   178
420
        0
176
     1
 90
       50
176
     1
 90
        3
176
     1
 62
     5
420
      255
176
     1
290
     0
176
     1
 90
       50
176
     1
 90
       50
176
     1
 90
       50
176
     1
290
     0
176
     1
 90
       50
176
     1
 62
   256
176
     0
 40
1.0
176
     0
 90
        2
176
     1
  1
strokes_ogs.tif
176
     1
290
     0
176
     1
 40
1.0
176
     1
 40
1.0
176
     1
  0
VISUALSTYLE
  5
1167
102
{ACAD_REACTORS
330
115C
102
}
330
115C
100
AcDbVisualStyle
  2
Dim
 70
    11
177
     3
291
     1
 70
    58
 90
        2
176
     1
 90
        2
176
     1
 90
        0
176
     1
 90
        0
176
     1
 40
0.6
176
     1
 40
30.0
176
     1
 62
     7
420
 16777215
176
     1
 90
        1
176
     1
 90
        4
176
     1
 62
     7
176
     1
 62
   257
176
     1
 90
        1
176
     1
 90
        1
176
     1
 40
1.0
176
     1
 90
        8
176
     1
 62
     7
176
     1
 40
1.0
176
     1
 90
        1
176
     1
 90
        6
176
     1
 90
        2
176
     1
 62
     7
176
     1
 90
        5
176
     1
 90
        0
176
     1
 90
        0
176
     1
290
     0
176
     1
 90
        1
176
     1
 40
-50.0
176
     1
 90
        0
176
     1
290
     0
176
     1
290
     1
176
     1
290
     1
176
     1
290
     0
176
     1
290
     0
176
     1
290
     0
176
     1
290
     0
176
     1
290
     0
176
     1
290
     0
176
     1
 90
       50
176
     1
 40
0.0
176
     1
 40
1.0
176
     1
 90
        0
176
     1
 62
   178
420
        0
176
     1
 90
       50
176
     1
 90
        3
176
     1
 62
     5
420
      255
176
     1
290
     0
176
     1
 90
       50
176
     1
 90
       50
176
     1
 90
       50
176
     1
290
     0
176
     1
 90
       50
176
     1
 62
   256
176
     0
 40
1.0
176
     0
 90
        2
176
     1
  1
strokes_ogs.tif
176
     1
290
     0
176
     1
 40
1.0
176
     1
 40
1.0
176
     1
  0
VISUALSTYLE
  5
116F
102
{ACAD_REACTORS
330
115C
102
}
330
115C
100
AcDbVisualStyle
  2
EdgeColorOff
 70
    22
177
     3
291
     1
 70
    58
 90
        2
176
     0
 90
        2
176
     0
 90
        0
176
     0
 90
        0
176
     0
 40
0.6
176
     0
 40
30.0
176
     0
 62
     7
420
 16777215
176
     0
 90
        1
176
     0
 90
        4
176
     0
 62
     7
176
     0
 62
   257
176
     0
 90
        1
176
     0
 90
        1
176
     0
 40
1.0
176
     0
 90
        8
176
     2
 62
     7
176
     0
 40
1.0
176
     0
 90
        1
176
     0
 90
        6
176
     0
 90
        2
176
     0
 62
     7
176
     0
 90
        5
176
     0
 90
        0
176
     0
 90
        0
176
     0
290
     0
176
     0
 90
        1
176
     0
 40
0.0
176
     0
 90
        0
176
     0
290
     0
176
     0
290
     1
176
     0
290
     1
176
     0
290
     0
176
     0
290
     0
176
     0
290
     0
176
     0
290
     0
176
     0
290
     0
176
     0
290
     0
176
     0
 90
       50
176
     0
 40
0.0
176
     0
 40
1.0
176
     0
 90
        0
176
     0
 62
   178
420
        0
176
     0
 90
       50
176
     0
 90
        3
176
     0
 62
     5
420
      255
176
     0
290
     0
176
     0
 90
       50
176
     0
 90
       50
176
     0
 90
       50
176
     0
290
     0
176
     0
 90
       50
176
     0
 62
   256
176
     0
 40
1.0
176
     0
 90
        2
176
     0
  1
strokes_ogs.tif
176
     0
290
     0
176
     0
 40
1.0
176
     0
 40
1.0
176
     0
  0
VISUALSTYLE
  5
116B
102
{ACAD_REACTORS
330
115C
102
}
330
115C
100
AcDbVisualStyle
  2
Facepattern
 70
    15
177
     3
291
     1
 70
    58
 90
        2
176
     1
 90
        2
176
     1
 90
        0
176
     1
 90
        0
176
     1
 40
0.6
176
     1
 40
30.0
176
     1
 62
     7
420
 16777215
176
     1
 90
        1
176
     1
 90
        4
176
     1
 62
     7
176
     1
 62
   257
176
     1
 90
        1
176
     1
 90
        1
176
     1
 40
1.0
176
     1
 90
        8
176
     1
 62
     7
176
     1
 40
1.0
176
     1
 90
        1
176
     1
 90
        6
176
     1
 90
        2
176
     1
 62
     7
176
     1
 90
        5
176
     1
 90
        0
176
     1
 90
        0
176
     1
290
     0
176
     1
 90
        1
176
     1
 40
0.0
176
     1
 90
        0
176
     1
290
     0
176
     1
290
     1
176
     1
290
     1
176
     1
290
     0
176
     1
290
     0
176
     1
290
     0
176
     1
290
     0
176
     1
290
     0
176
     1
290
     0
176
     1
 90
       50
176
     1
 40
0.0
176
     1
 40
1.0
176
     1
 90
        0
176
     1
 62
   178
420
        0
176
     1
 90
       50
176
     1
 90
        3
176
     1
 62
     5
420
      255
176
     1
290
     0
176
     1
 90
       50
176
     1
 90
       50
176
     1
 90
       50
176
     1
290
     0
176
     1
 90
       50
176
     1
 62
   256
176
     0
 40
1.0
176
     0
 90
        2
176
     1
  1
strokes_ogs.tif
176
     1
290
     0
176
     1
 40
1.0
176
     1
 40
1.0
176
     1
  0
VISUALSTYLE
  5
115D
102
{ACAD_REACTORS
330
115C
102
}
330
115C
100
AcDbVisualStyle
  2
Flat
 70
     0
177
     3
291
     1
 70
    58
 90
        2
176
     1
 90
        1
176
     1
 90
        1
176
     1
 90
        2
176
     1
 40
0.6
176
     1
 40
30.0
176
     1
 62
     7
420
 16777215
176
     1
 90
        0
176
     1
 90
        0
176
     1
 62
     7
176
     1
 62
   257
176
     1
 90
        1
176
     1
 90
        1
176
     1
 40
1.0
176
     1
 90
        8
176
     1
 62
     7
176
     1
 40
1.0
176
     1
 90
        1
176
     1
 90
        6
176
     1
 90
        2
176
     1
 62
     7
176
     1
 90
        5
176
     1
 90
        0
176
     1
 90
        0
176
     1
290
     0
176
     1
 90
       13
176
     1
 40
0.0
176
     1
 90
        0
176
     1
290
     0
176
     1
290
     1
176
     1
290
     1
176
     1
290
     0
176
     1
290
     0
176
     1
290
     0
176
     1
290
     0
176
     1
290
     0
176
     1
290
     0
176
     1
 90
       50
176
     1
 40
0.0
176
     1
 40
1.0
176
     1
 90
        0
176
     1
 62
   178
420
        0
176
     1
 90
       50
176
     1
 90
        3
176
     1
 62
     5
420
      255
176
     1
290
     0
176
     1
 90
       50
176
     1
 90
       50
176
     1
 90
       50
176
     1
290
     0
176
     1
 90
       50
176
     1
 62
   256
176
     0
 40
1.0
176
     0
 90
        2
176
     1
  1
strokes_ogs.tif
176
     1
290
     0
176
     1
 40
1.0
176
     1
 40
1.0
176
     1
  0
VISUALSTYLE
  5
115E
102
{ACAD_REACTORS
330
115C
102
}
330
115C
100
AcDbVisualStyle
  2
FlatWithEdges
 70
     1
177
     3
291
     1
 70
    58
 90
        2
176
     1
 90
        1
176
     1
 90
        1
176
     1
 90
        2
176
     1
 40
0.6
176
     1
 40
30.0
176
     1
 62
     7
420
 16777215
176
     1
 90
        1
176
     1
 90
        0
176
     1
 62
     7
176
     1
 62
   257
176
     1
 90
        1
176
     1
 90
        1
176
     1
 40
1.0
176
     1
 90
        0
176
     1
 62
   257
176
     1
 40
1.0
176
     1
 90
        1
176
     1
 90
        6
176
     1
 90
        2
176
     1
 62
     7
176
     1
 90
        5
176
     1
 90
        0
176
     1
 90
        0
176
     1
290
     0
176
     1
 90
       13
176
     1
 40
0.0
176
     1
 90
        0
176
     1
290
     0
176
     1
290
     1
176
     1
290
     1
176
     1
290
     0
176
     1
290
     0
176
     1
290
     0
176
     1
290
     0
176
     1
290
     0
176
     1
290
     0
176
     1
 90
       50
176
     1
 40
0.0
176
     1
 40
1.0
176
     1
 90
        0
176
     1
 62
   178
420
        0
176
     1
 90
       50
176
     1
 90
        3
176
     1
 62
     5
420
      255
176
     1
290
     0
176
     1
 90
       50
176
     1
 90
       50
176
     1
 90
       50
176
     1
290
     0
176
     1
 90
       50
176
     1
 62
   256
176
     0
 40
1.0
176
     0
 90
        2
176
     1
  1
strokes_ogs.tif
176
     1
290
     0
176
     1
 40
1.0
176
     1
 40
1.0
176
     1
  0
VISUALSTYLE
  5
115F
102
{ACAD_REACTORS
330
115C
102
}
330
115C
100
AcDbVisualStyle
  2
Gouraud
 70
     2
177
     3
291
     1
 70
    58
 90
        2
176
     1
 90
        2
176
     1
 90
        1
176
     1
 90
        2
176
     1
 40
0.6
176
     1
 40
30.0
176
     1
 62
     7
420
 16777215
176
     1
 90
        0
176
     1
 90
        0
176
     1
 62
     7
176
     1
 62
   257
176
     1
 90
        1
176
     1
 90
        1
176
     1
 40
1.0
176
     1
 90
        0
176
     1
 62
     7
176
     1
 40
1.0
176
     1
 90
        1
176
     1
 90
        6
176
     1
 90
        2
176
     1
 62
     7
176
     1
 90
        5
176
     1
 90
        0
176
     1
 90
        0
176
     1
290
     0
176
     1
 90
       13
176
     1
 40
0.0
176
     1
 90
        0
176
     1
290
     0
176
     1
290
     1
176
     1
290
     1
176
     1
290
     0
176
     1
290
     0
176
     1
290
     0
176
     1
290
     0
176
     1
290
     0
176
     1
290
     0
176
     1
 90
       50
176
     1
 40
0.0
176
     1
 40
1.0
176
     1
 90
        0
176
     1
 62
   178
420
        0
176
     1
 90
       50
176
     1
 90
        3
176
     1
 62
     5
420
      255
176
     1
290
     0
176
     1
 90
       50
176
     1
 90
       50
176
     1
 90
       50
176
     1
290
     0
176
     1
 90
       50
176
     1
 62
   256
176
     0
 40
1.0
176
     0
 90
        2
176
     1
  1
strokes_ogs.tif
176
     1
290
     0
176
     1
 40
1.0
176
     1
 40
1.0
176
     1
  0
VISUALSTYLE
  5
1160
102
{ACAD_REACTORS
330
115C
102
}
330
115C
100
AcDbVisualStyle
  2
GouraudWithEdges
 70
     3
177
     3
291
     1
 70
    58
 90
        2
176
     1
 90
        2
176
     1
 90
        1
176
     1
 90
        2
176
     1
 40
0.6
176
     1
 40
30.0
176
     1
 62
     7
420
 16777215
176
     1
 90
        1
176
     1
 90
        0
176
     1
 62
     7
176
     1
 62
   257
176
     1
 90
        1
176
     1
 90
        1
176
     1
 40
1.0
176
     1
 90
        0
176
     1
 62
   257
176
     1
 40
1.0
176
     1
 90
        1
176
     1
 90
        6
176
     1
 90
        2
176
     1
 62
     7
176
     1
 90
        5
176
     1
 90
        0
176
     1
 90
        0
176
     1
290
     0
176
     1
 90
       13
176
     1
 40
0.0
176
     1
 90
        0
176
     1
290
     0
176
     1
290
     1
176
     1
290
     1
176
     1
290
     0
176
     1
290
     0
176
     1
290
     0
176
     1
290
     0
176
     1
290
     0
176
     1
290
     0
176
     1
 90
       50
176
     1
 40
0.0
176
     1
 40
1.0
176
     1
 90
        0
176
     1
 62
   178
420
        0
176
     1
 90
       50
176
     1
 90
        3
176
     1
 62
     5
420
      255
176
     1
290
     0
176
     1
 90
       50
176
     1
 90
       50
176
     1
 90
       50
176
     1
290
     0
176
     1
 90
       50
176
     1
 62
   256
176
     0
 40
1.0
176
     0
 90
        2
176
     1
  1
strokes_ogs.tif
176
     1
290
     0
176
     1
 40
1.0
176
     1
 40
1.0
176
     1
  0
VISUALSTYLE
  5
1163
102
{ACAD_REACTORS
330
115C
102
}
330
115C
100
AcDbVisualStyle
  2
Hidden
 70
     6
177
     3
291
     0
 70
    58
 90
        1
176
     1
 90
        2
176
     1
 90
        2
176
     1
 90
        0
176
     1
 40
0.6
176
     1
 40
30.0
176
     1
 62
     7
420
 16777215
176
     1
 90
        2
176
     1
 90
        2
176
     1
 62
     7
176
     1
 62
   257
176
     1
 90
        2
176
     1
 90
        1
176
     1
 40
40.0
176
     1
 90
        0
176
     1
 62
   257
176
     1
 40
1.0
176
     1
 90
        1
176
     1
 90
        6
176
     1
 90
        2
176
     1
 62
     7
176
     1
 90
        3
176
     1
 90
        0
176
     1
 90
        0
176
     1
290
     0
176
     1
 90
        1
176
     1
 40
0.0
176
     1
 90
        0
176
     1
290
     0
176
     1
290
     1
176
     1
290
     1
176
     1
290
     0
176
     1
290
     0
176
     1
290
     0
176
     1
290
     0
176
     1
290
     0
176
     1
290
     0
176
     1
 90
       50
176
     1
 40
0.0
176
     1
 40
1.0
176
     1
 90
        0
176
     1
 62
   178
420
        0
176
     1
 90
       50
176
     1
 90
        3
176
     1
 62
     5
420
      255
176
     1
290
     0
176
     1
 90
       50
176
     1
 90
       50
176
     1
 90
       50
176
     1
290
     0
176
     1
 90
       50
176
     1
 62
   256
176
     0
 40
1.0
176
     0
 90
        2
176
     1
  1
strokes_ogs.tif
176
     1
290
     0
176
     1
 40
1.0
176
     1
 40
1.0
176
     1
  0
VISUALSTYLE
  5
116D
102
{ACAD_REACTORS
330
115C
102
}
330
115C
100
AcDbVisualStyle
  2
JitterOff
 70
    20
177
     3
291
     1
 70
    58
 90
        2
176
     0
 90
        2
176
     0
 90
        0
176
     0
 90
        0
176
     0
 40
0.6
176
     0
 40
30.0
176
     0
 62
     7
420
 16777215
176
     0
 90
        1
176
     0
 90
        4
176
     0
 62
     7
176
     0
 62
   257
176
     0
 90
        1
176
     0
 90
        1
176
     0
 40
1.0
176
     0
 90
       10
176
     2
 62
     7
176
     0
 40
1.0
176
     0
 90
        1
176
     0
 90
        6
176
     0
 90
        2
176
     0
 62
     7
176
     0
 90
        5
176
     0
 90
        0
176
     0
 90
        0
176
     0
290
     0
176
     0
 90
        1
176
     0
 40
0.0
176
     0
 90
        0
176
     0
290
     0
176
     0
290
     1
176
     0
290
     1
176
     0
290
     0
176
     0
290
     0
176
     0
290
     0
176
     0
290
     0
176
     0
290
     0
176
     0
290
     0
176
     0
 90
       50
176
     0
 40
0.0
176
     0
 40
1.0
176
     0
 90
        0
176
     0
 62
   178
420
        0
176
     0
 90
       50
176
     0
 90
        3
176
     0
 62
     5
420
      255
176
     0
290
     0
176
     0
 90
       50
176
     0
 90
       50
176
     0
 90
       50
176
     0
290
     0
176
     0
 90
       50
176
     0
 62
   256
176
     0
 40
1.0
176
     0
 90
        2
176
     0
  1
strokes_ogs.tif
176
     0
290
     0
176
     0
 40
1.0
176
     0
 40
1.0
176
     0
  0
VISUALSTYLE
  5
116A
102
{ACAD_REACTORS
330
115C
102
}
330
115C
100
AcDbVisualStyle
  2
Linepattern
 70
    14
177
     3
291
     1
 70
    58
 90
        2
176
     1
 90
        2
176
     1
 90
        0
176
     1
 90
        0
176
     1
 40
0.6
176
     1
 40
30.0
176
     1
 62
     7
420
 16777215
176
     1
 90
        1
176
     1
 90
        4
176
     1
 62
     7
176
     1
 62
   257
176
     1
 90
        7
176
     1
 90
        7
176
     1
 40
1.0
176
     1
 90
        8
176
     1
 62
     7
176
     1
 40
1.0
176
     1
 90
        1
176
     1
 90
        6
176
     1
 90
        2
176
     1
 62
     7
176
     1
 90
        5
176
     1
 90
        0
176
     1
 90
        0
176
     1
290
     0
176
     1
 90
        1
176
     1
 40
0.0
176
     1
 90
        0
176
     1
290
     0
176
     1
290
     1
176
     1
290
     1
176
     1
290
     0
176
     1
290
     0
176
     1
290
     0
176
     1
290
     0
176
     1
290
     0
176
     1
290
     0
176
     1
 90
       50
176
     1
 40
0.0
176
     1
 40
1.0
176
     1
 90
        0
176
     1
 62
   178
420
        0
176
     1
 90
       50
176
     1
 90
        3
176
     1
 62
     5
420
      255
176
     1
290
     0
176
     1
 90
       50
176
     1
 90
       50
176
     1
 90
       50
176
     1
290
     0
176
     1
 90
       50
176
     1
 62
   256
176
     0
 40
1.0
176
     0
 90
        2
176
     1
  1
strokes_ogs.tif
176
     1
290
     0
176
     1
 40
1.0
176
     1
 40
1.0
176
     1
  0
VISUALSTYLE
  5
116E
102
{ACAD_REACTORS
330
115C
102
}
330
115C
100
AcDbVisualStyle
  2
OverhangOff
 70
    21
177
     3
291
     1
 70
    58
 90
        2
176
     0
 90
        2
176
     0
 90
        0
176
     0
 90
        0
176
     0
 40
0.6
176
     0
 40
30.0
176
     0
 62
     7
420
 16777215
176
     0
 90
        1
176
     0
 90
        4
176
     0
 62
     7
176
     0
 62
   257
176
     0
 90
        1
176
     0
 90
        1
176
     0
 40
1.0
176
     0
 90
        9
176
     2
 62
     7
176
     0
 40
1.0
176
     0
 90
        1
176
     0
 90
        6
176
     0
 90
        2
176
     0
 62
     7
176
     0
 90
        5
176
     0
 90
        0
176
     0
 90
        0
176
     0
290
     0
176
     0
 90
        1
176
     0
 40
0.0
176
     0
 90
        0
176
     0
290
     0
176
     0
290
     1
176
     0
290
     1
176
     0
290
     0
176
     0
290
     0
176
     0
290
     0
176
     0
290
     0
176
     0
290
     0
176
     0
290
     0
176
     0
 90
       50
176
     0
 40
0.0
176
     0
 40
1.0
176
     0
 90
        0
176
     0
 62
   178
420
        0
176
     0
 90
       50
176
     0
 90
        3
176
     0
 62
     5
420
      255
176
     0
290
     0
176
     0
 90
       50
176
     0
 90
       50
176
     0
 90
       50
176
     0
290
     0
176
     0
 90
       50
176
     0
 62
   256
176
     0
 40
1.0
176
     0
 90
        2
176
     0
  1
strokes_ogs.tif
176
     0
290
     0
176
     0
 40
1.0
176
     0
 40
1.0
176
     0
  0
VISUALSTYLE
  5
1165
102
{ACAD_REACTORS
330
115C
102
}
330
115C
100
AcDbVisualStyle
  2
Realistic
 70
     8
177
     3
291
     0
 70
    58
 90
        2
176
     1
 90
        3
176
     1
 90
        0
176
     1
 90
        2
176
     1
 40
0.6
176
     1
 40
30.0
176
     1
 62
     7
420
 16777215
176
     1
 90
        0
176
     1
 90
        0
176
     1
 62
     7
176
     1
 62
   257
176
     1
 90
        1
176
     1
 90
        1
176
     1
 40
1.0
176
     1
 90
        8
176
     1
 62
   257
176
     1
 40
1.0
176
     1
 90
        1
176
     1
 90
        6
176
     1
 90
        2
176
     1
 62
     7
176
     1
 90
        3
176
     1
 90
        0
176
     1
 90
        0
176
     1
290
     0
176
     1
 90
       13
176
     1
 40
0.0
176
     1
 90
        0
176
     1
290
     0
176
     1
290
     1
176
     1
290
     1
176
     1
290
     0
176
     1
290
     0
176
     1
290
     0
176
     1
290
     0
176
     1
290
     0
176
     1
290
     0
176
     1
 90
       50
176
     1
 40
0.0
176
     1
 40
1.0
176
     1
 90
        0
176
     1
 62
   178
420
        0
176
     1
 90
       50
176
     1
 90
        3
176
     1
 62
     5
420
      255
176
     1
290
     0
176
     1
 90
       50
176
     1
 90
       50
176
     1
 90
       50
176
     1
290
     0
176
     1
 90
       50
176
     1
 62
   256
176
     0
 40
1.0
176
     0
 90
        2
176
     1
  1
strokes_ogs.tif
176
     1
290
     0
176
     1
 40
1.0
176
     1
 40
1.0
176
     1
  0
VISUALSTYLE
  5
1174
102
{ACAD_REACTORS
330
115C
102
}
330
115C
100
AcDbVisualStyle
  2
Shaded
 70
    27
177
     3
291
     0
 70
    58
 90
        2
176
     1
 90
        2
176
     1
 90
        1
176
     1
 90
        2
176
     1
 40
0.6
176
     1
 40
30.0
176
     1
 62
     7
420
 16777215
176
     1
 90
        0
176
     1
 90
        4
176
     1
 62
     7
176
     1
 62
   257
176
     1
 90
        1
176
     1
 90
        1
176
     1
 40
1.0
176
     1
 90
        8
176
     1
 62
   257
176
     1
 40
1.0
176
     1
 90
        1
176
     1
 90
        6
176
     1
 90
        2
176
     1
 62
     8
420
  7895160
176
     1
 90
        3
176
     1
 90
        0
176
     1
 90
        0
176
     1
290
     0
176
     1
 90
        5
176
     1
 40
0.0
176
     1
 90
        0
176
     1
290
     0
176
     1
290
     1
176
     1
290
     1
176
     1
290
     0
176
     1
290
     0
176
     1
290
     0
176
     1
290
     0
176
     1
290
     0
176
     1
290
     0
176
     1
 90
       50
176
     1
 40
0.0
176
     1
 40
1.0
176
     1
 90
        0
176
     1
 62
   178
420
        0
176
     1
 90
       50
176
     1
 90
        3
176
     1
 62
     5
420
      255
176
     1
290
     0
176
     1
 90
       50
176
     1
 90
       50
176
     1
 90
       50
176
     1
290
     0
176
     1
 90
       50
176
     1
 62
   256
176
     0
 40
1.0
176
     0
 90
        2
176
     1
  1
strokes_ogs.tif
176
     1
290
     0
176
     1
 40
1.0
176
     1
 40
1.0
176
     1
  0
VISUALSTYLE
  5
1173
102
{ACAD_REACTORS
330
115C
102
}
330
115C
100
AcDbVisualStyle
  2
Shaded with edges
 70
    26
177
     3
291
     0
 70
    58
 90
        2
176
     1
 90
        2
176
     1
 90
        1
176
     1
 90
        2
176
     1
 40
0.6
176
     1
 40
30.0
176
     1
 62
     7
420
 16777215
176
     1
 90
        1
176
     1
 90
       10
176
     1
 62
     7
176
     1
 62
   257
176
     1
 90
        2
176
     1
 90
        1
176
     1
 40
1.0
176
     1
 90
        8
176
     1
 62
   257
176
     1
 40
1.0
176
     1
 90
        1
176
     1
 90
        6
176
     1
 90
        2
176
     1
 62
     7
176
     1
 90
        3
176
     1
 90
        0
176
     1
 90
        0
176
     1
290
     0
176
     1
 90
        5
176
     1
 40
0.0
176
     1
 90
        0
176
     1
290
     0
176
     1
290
     1
176
     1
290
     1
176
     1
290
     0
176
     1
290
     0
176
     1
290
     0
176
     1
290
     0
176
     1
290
     0
176
     1
290
     0
176
     1
 90
       50
176
     1
 40
0.0
176
     1
 40
1.0
176
     1
 90
        0
176
     1
 62
   178
420
        0
176
     1
 90
       50
176
     1
 90
        3
176
     1
 62
     5
420
      255
176
     1
290
     0
176
     1
 90
       50
176
     1
 90
       50
176
     1
 90
       50
176
     1
290
     0
176
     1
 90
       50
176
     1
 62
   256
176
     0
 40
1.0
176
     0
 90
        2
176
     1
  1
strokes_ogs.tif
176
     1
290
     0
176
     1
 40
1.0
176
     1
 40
1.0
176
     1
  0
VISUALSTYLE
  5
1170
102
{ACAD_REACTORS
330
115C
102
}
330
115C
100
AcDbVisualStyle
  2
Shades of Gray
 70
    23
177
     3
291
     0
 70
    58
 90
        2
176
     1
 90
        2
176
     1
 90
        3
176
     1
 90
        0
176
     1
 40
0.6
176
     1
 40
30.0
176
     1
 62
     7
420
 16777215
176
     1
 90
        2
176
     1
 90
        2
176
     1
 62
     7
176
     1
 62
     7
176
     1
 90
        1
176
     1
 90
        1
176
     1
 40
40.0
176
     1
 90
        8
176
     1
 62
     7
176
     1
 40
1.0
176
     1
 90
        1
176
     1
 90
        6
176
     1
 90
        2
176
     1
 62
     7
176
     1
 90
        3
176
     1
 90
        0
176
     1
 90
        0
176
     1
290
     0
176
     1
 90
        1
176
     1
 40
0.0
176
     1
 90
        0
176
     1
290
     0
176
     1
290
     1
176
     1
290
     1
176
     1
290
     0
176
     1
290
     0
176
     1
290
     0
176
     1
290
     0
176
     1
290
     0
176
     1
290
     0
176
     1
 90
       50
176
     1
 40
0.0
176
     1
 40
1.0
176
     1
 90
        0
176
     1
 62
   178
420
        0
176
     1
 90
       50
176
     1
 90
        3
176
     1
 62
     5
420
      255
176
     1
290
     0
176
     1
 90
       50
176
     1
 90
       50
176
     1
 90
       50
176
     1
290
     0
176
     1
 90
       50
176
     1
 62
   256
176
     0
 40
1.0
176
     0
 90
        2
176
     1
  1
strokes_ogs.tif
176
     1
290
     0
176
     1
 40
1.0
176
     1
 40
1.0
176
     1
  0
VISUALSTYLE
  5
1171
102
{ACAD_REACTORS
330
115C
102
}
330
115C
100
AcDbVisualStyle
  2
Sketchy
 70
    24
177
     3
291
     0
 70
    58
 90
        1
176
     1
 90
        2
176
     1
 90
        2
176
     1
 90
        0
176
     1
 40
0.6
176
     1
 40
30.0
176
     1
 62
     7
420
 16777215
176
     1
 90
        2
176
     1
 90
        2
176
     1
 62
     7
176
     1
 62
     7
176
     1
 90
        1
176
     1
 90
        1
176
     1
 40
40.0
176
     1
 90
       11
176
     1
 62
     7
176
     1
 40
1.0
176
     1
 90
        1
176
     1
 90
        6
176
     1
 90
        2
176
     1
 62
     7
176
     1
 90
        6
176
     1
 90
        0
176
     1
 90
        0
176
     1
290
     0
176
     1
 90
        1
176
     1
 40
0.0
176
     1
 90
        0
176
     1
290
     0
176
     1
290
     1
176
     1
290
     1
176
     1
290
     0
176
     1
290
     0
176
     1
290
     0
176
     1
290
     0
176
     1
290
     0
176
     1
290
     0
176
     1
 90
       50
176
     1
 40
0.0
176
     1
 40
1.0
176
     1
 90
        0
176
     1
 62
   178
420
        0
176
     1
 90
       50
176
     1
 90
        3
176
     1
 62
     5
420
      255
176
     1
290
     0
176
     1
 90
       50
176
     1
 90
       50
176
     1
 90
       50
176
     1
290
     0
176
     1
 90
       50
176
     1
 62
   256
176
     0
 40
1.0
176
     0
 90
        2
176
     1
  1
strokes_ogs.tif
176
     1
290
     0
176
     1
 40
1.0
176
     1
 40
1.0
176
     1
  0
VISUALSTYLE
  5
1169
102
{ACAD_REACTORS
330
115C
102
}
330
115C
100
AcDbVisualStyle
  2
Thicken
 70
    13
177
     3
291
     1
 70
    58
 90
        2
176
     1
 90
        2
176
     1
 90
        0
176
     1
 90
        0
176
     1
 40
0.6
176
     1
 40
30.0
176
     1
 62
     7
420
 16777215
176
     1
 90
        1
176
     1
 90
        4
176
     1
 62
     7
176
     1
 62
   257
176
     1
 90
        1
176
     1
 90
        1
176
     1
 40
1.0
176
     1
 90
       12
176
     1
 62
     7
176
     1
 40
1.0
176
     1
 90
        1
176
     1
 90
        6
176
     1
 90
        2
176
     1
 62
     7
176
     1
 90
        5
176
     1
 90
        0
176
     1
 90
        0
176
     1
290
     0
176
     1
 90
        1
176
     1
 40
0.0
176
     1
 90
        0
176
     1
290
     0
176
     1
290
     1
176
     1
290
     1
176
     1
290
     0
176
     1
290
     0
176
     1
290
     0
176
     1
290
     0
176
     1
290
     0
176
     1
290
     0
176
     1
 90
       50
176
     1
 40
0.0
176
     1
 40
1.0
176
     1
 90
        0
176
     1
 62
   178
420
        0
176
     1
 90
       50
176
     1
 90
        3
176
     1
 62
     5
420
      255
176
     1
290
     0
176
     1
 90
       50
176
     1
 90
       50
176
     1
 90
       50
176
     1
290
     0
176
     1
 90
       50
176
     1
 62
   256
176
     0
 40
1.0
176
     0
 90
        2
176
     1
  1
strokes_ogs.tif
176
     1
290
     0
176
     1
 40
1.0
176
     1
 40
1.0
176
     1
  0
VISUALSTYLE
  5
1162
102
{ACAD_REACTORS
330
115C
102
}
330
115C
100
AcDbVisualStyle
  2
Wireframe
 70
     5
177
     3
291
     0
 70
    58
 90
        0
176
     1
 90
        2
176
     1
 90
        0
176
     1
 90
        0
176
     1
 40
0.6
176
     1
 40
30.0
176
     1
 62
     7
420
 16777215
176
     1
 90
        1
176
     1
 90
        4
176
     1
 62
     7
176
     1
 62
   257
176
     1
 90
        1
176
     1
 90
        1
176
     1
 40
1.0
176
     1
 90
        0
176
     1
 62
   257
176
     1
 40
1.0
176
     1
 90
        1
176
     1
 90
        6
176
     1
 90
        2
176
     1
 62
     7
176
     1
 90
        3
176
     1
 90
        0
176
     1
 90
        0
176
     1
290
     0
176
     1
 90
        1
176
     1
 40
0.0
176
     1
 90
        0
176
     1
290
     0
176
     1
290
     1
176
     1
290
     1
176
     1
290
     0
176
     1
290
     0
176
     1
290
     0
176
     1
290
     0
176
     1
290
     0
176
     1
290
     0
176
     1
 90
       50
176
     1
 40
0.0
176
     1
 40
1.0
176
     1
 90
        0
176
     1
 62
   178
420
        0
176
     1
 90
       50
176
     1
 90
        3
176
     1
 62
     5
420
      255
176
     1
290
     0
176
     1
 90
       50
176
     1
 90
       50
176
     1
 90
       50
176
     1
290
     0
176
     1
 90
       50
176
     1
 62
   256
176
     0
 40
1.0
176
     0
 90
        2
176
     1
  1
strokes_ogs.tif
176
     1
290
     0
176
     1
 40
1.0
176
     1
 40
1.0
176
     1
  0
VISUALSTYLE
  5
1172
102
{ACAD_REACTORS
330
115C
102
}
330
115C
100
AcDbVisualStyle
  2
X-Ray
 70
    25
177
     3
291
     0
 70
    58
 90
        2
176
     1
 90
        2
176
     1
 90
        1
176
     1
 90
        1
176
     1
 40
0.5
176
     1
 40
30.0
176
     1
 62
     7
420
 16777215
176
     1
 90
        1
176
     1
 90
        0
176
     1
 62
     7
176
     1
 62
   257
176
     1
 90
        1
176
     1
 90
        1
176
     1
 40
1.0
176
     1
 90
        8
176
     1
 62
     7
176
     1
 40
1.0
176
     1
 90
        1
176
     1
 90
        6
176
     1
 90
        2
176
     1
 62
     7
176
     1
 90
        3
176
     1
 90
        0
176
     1
 90
        0
176
     1
290
     0
176
     1
 90
       13
176
     1
 40
0.0
176
     1
 90
        0
176
     1
290
     0
176
     1
290
     1
176
     1
290
     1
176
     1
290
     0
176
     1
290
     0
176
     1
290
     0
176
     1
290
     0
176
     1
290
     0
176
     1
290
     0
176
     1
 90
       50
176
     1
 40
0.0
176
     1
 40
1.0
176
     1
 90
        0
176
     1
 62
   178
420
        0
176
     1
 90
       50
176
     1
 90
        3
176
     1
 62
     5
420
      255
176
     1
290
     0
176
     1
 90
       50
176
     1
 90
       50
176
     1
 90
       50
176
     1
290
     0
176
     1
 90
       50
176
     1
 62
   256
176
     0
 40
1.0
176
     0
 90
        2
176
     1
  1
strokes_ogs.tif
176
     1
290
     0
176
     1
 40
1.0
176
     1
 40
1.0
176
     1
  0
DICTIONARYVAR
  5
117B
102
{ACAD_REACTORS
330
117A
102
}
330
117A
100
DictionaryVariables
280
     0
  1
1:1
  0
DICTIONARYVAR
  5
1180
102
{ACAD_REACTORS
330
117A
102
}
330
117A
100
DictionaryVariables
280
     0
  1
Standard
  0
DICTIONARYVAR
  5
117F
102
{ACAD_REACTORS
330
117A
102
}
330
117A
100
DictionaryVariables
280
     0
  1
Standard
  0
DICTIONARYVAR
  5
1181
102
{ACAD_REACTORS
330
117A
102
}
330
117A
100
DictionaryVariables
280
     0
  1
0
  0
DICTIONARY
  5
117C
330
1176
100
AcDbDictionary
280
     1
281
     1
  3
ACAD_ROUNDTRIP_2008_TABLESTYLE_CELLSTYLEMAP
360
117D
  0
CELLSTYLEMAP
  5
117D
102
{ACAD_REACTORS
330
117C
102
}
330
117C
100
AcDbCellStyleMap
 90
        3
300
CELLSTYLE
  1
TABLEFORMAT_BEGIN
 90
        5
170
     1
 91
        0
 92
    32768
 62
   257
 93
        1
300
CONTENTFORMAT
  1
CONTENTFORMAT_BEGIN
 90
        0
 91
        0
 92
        4
 93
        0
300

 40
0.0
140
1.0
 94
        5
 62
     0
340
111D
144
0.25
309
CONTENTFORMAT_END
171
     1
301
MARGIN
  1
CELLMARGIN_BEGIN
 40
0.06
 40
0.06
 40
0.06
 40
0.06
 40
0.06
 40
0.06
309
CELLMARGIN_END
 94
        6
 95
        1
302
GRIDFORMAT
  1
GRIDFORMAT_BEGIN
 90
        0
 91
        1
 62
     0
 92
       -2
340
111F
 93
        0
 40
0.045
309
GRIDFORMAT_END
 95
        2
302
GRIDFORMAT
  1
GRIDFORMAT_BEGIN
 90
        0
 91
        1
 62
     0
 92
       -2
340
111F
 93
        0
 40
0.045
309
GRIDFORMAT_END
 95
        4
302
GRIDFORMAT
  1
GRIDFORMAT_BEGIN
 90
        0
 91
        1
 62
     0
 92
       -2
340
111F
 93
        0
 40
0.045
309
GRIDFORMAT_END
 95
        8
302
GRIDFORMAT
  1
GRIDFORMAT_BEGIN
 90
        0
 91
        1
 62
     0
 92
       -2
340
111F
 93
        0
 40
0.045
309
GRIDFORMAT_END
 95
       16
302
GRIDFORMAT
  1
GRIDFORMAT_BEGIN
 90
        0
 91
        1
 62
     0
 92
       -2
340
111F
 93
        0
 40
0.045
309
GRIDFORMAT_END
 95
       32
302
GRIDFORMAT
  1
GRIDFORMAT_BEGIN
 90
        0
 91
        1
 62
     0
 92
       -2
340
111F
 93
        0
 40
0.045
309
GRIDFORMAT_END
309
TABLEFORMAT_END
  1
CELLSTYLE_BEGIN
 90
        1
 91
        1
300
_TITLE
309
CELLSTYLE_END
300
CELLSTYLE
  1
TABLEFORMAT_BEGIN
 90
        5
170
     1
 91
        0
 92
        0
 62
   257
 93
        1
300
CONTENTFORMAT
  1
CONTENTFORMAT_BEGIN
 90
        0
 91
        0
 92
        4
 93
        0
300

 40
0.0
140
1.0
 94
        5
 62
     0
340
111D
144
0.18
309
CONTENTFORMAT_END
171
     1
301
MARGIN
  1
CELLMARGIN_BEGIN
 40
0.06
 40
0.06
 40
0.06
 40
0.06
 40
0.06
 40
0.06
309
CELLMARGIN_END
 94
        6
 95
        1
302
GRIDFORMAT
  1
GRIDFORMAT_BEGIN
 90
        0
 91
        1
 62
     0
 92
       -2
340
111F
 93
        0
 40
0.045
309
GRIDFORMAT_END
 95
        2
302
GRIDFORMAT
  1
GRIDFORMAT_BEGIN
 90
        0
 91
        1
 62
     0
 92
       -2
340
111F
 93
        0
 40
0.045
309
GRIDFORMAT_END
 95
        4
302
GRIDFORMAT
  1
GRIDFORMAT_BEGIN
 90
        0
 91
        1
 62
     0
 92
       -2
340
111F
 93
        0
 40
0.045
309
GRIDFORMAT_END
 95
        8
302
GRIDFORMAT
  1
GRIDFORMAT_BEGIN
 90
        0
 91
        1
 62
     0
 92
       -2
340
111F
 93
        0
 40
0.045
309
GRIDFORMAT_END
 95
       16
302
GRIDFORMAT
  1
GRIDFORMAT_BEGIN
 90
        0
 91
        1
 62
     0
 92
       -2
340
111F
 93
        0
 40
0.045
309
GRIDFORMAT_END
 95
       32
302
GRIDFORMAT
  1
GRIDFORMAT_BEGIN
 90
        0
 91
        1
 62
     0
 92
       -2
340
111F
 93
        0
 40
0.045
309
GRIDFORMAT_END
309
TABLEFORMAT_END
  1
CELLSTYLE_BEGIN
 90
        2
 91
        1
300
_HEADER
309
CELLSTYLE_END
300
CELLSTYLE
  1
TABLEFORMAT_BEGIN
 90
        5
170
     1
 91
        0
 92
        0
 62
   257
 93
        1
300
CONTENTFORMAT
  1
CONTENTFORMAT_BEGIN
 90
        0
 91
        0
 92
        4
 93
        0
300

 40
0.0
140
1.0
 94
        2
 62
     0
340
111D
144
0.18
309
CONTENTFORMAT_END
171
     1
301
MARGIN
  1
CELLMARGIN_BEGIN
 40
0.06
 40
0.06
 40
0.06
 40
0.06
 40
0.06
 40
0.06
309
CELLMARGIN_END
 94
        6
 95
        1
302
GRIDFORMAT
  1
GRIDFORMAT_BEGIN
 90
        0
 91
        1
 62
     0
 92
       -2
340
111F
 93
        0
 40
0.045
309
GRIDFORMAT_END
 95
        2
302
GRIDFORMAT
  1
GRIDFORMAT_BEGIN
 90
        0
 91
        1
 62
     0
 92
       -2
340
111F
 93
        0
 40
0.045
309
GRIDFORMAT_END
 95
        4
302
GRIDFORMAT
  1
GRIDFORMAT_BEGIN
 90
        0
 91
        1
 62
     0
 92
       -2
340
111F
 93
        0
 40
0.045
309
GRIDFORMAT_END
 95
        8
302
GRIDFORMAT
  1
GRIDFORMAT_BEGIN
 90
        0
 91
        1
 62
     0
 92
       -2
340
111F
 93
        0
 40
0.045
309
GRIDFORMAT_END
 95
       16
302
GRIDFORMAT
  1
GRIDFORMAT_BEGIN
 90
        0
 91
        1
 62
     0
 92
       -2
340
111F
 93
        0
 40
0.045
309
GRIDFORMAT_END
 95
       32
302
GRIDFORMAT
  1
GRIDFORMAT_BEGIN
 90
        0
 91
        1
 62
     0
 92
       -2
340
111F
 93
        0
 40
0.045
309
GRIDFORMAT_END
309
TABLEFORMAT_END
  1
CELLSTYLE_BEGIN
 90
        3
 91
        2
300
_DATA
309
CELLSTYLE_END
  0
ENDSEC
  0
EOF
